<?xml version="1.0" encoding="iso-8859-1"?>
<!-- Generator: Adobe Illustrator 19.0.0, SVG Export Plug-In . SVG Version: 6.00 Build 0)  -->
<svg version="1.1" id="Capa_1" xmlns="http://www.w3.org/2000/svg" xmlns:xlink="http://www.w3.org/1999/xlink" x="0px" y="0px"
	 viewBox="0 0 512 512" style="enable-background:new 0 0 512 512;" xml:space="preserve">
<g>
	<g>
		<path d="M168.872,452.877l-58.401-0.236c-0.014,0-0.027,0-0.041,0c-5.526,0-10.016,4.467-10.038,9.999
			c-0.022,5.544,4.454,10.057,9.999,10.079l58.401,0.236c0.014,0,0.027,0,0.041,0c5.526,0,10.016-4.467,10.038-9.999
			C178.893,457.412,174.417,452.899,168.872,452.877z"/>
	</g>
</g>
<g>
	<g>
		<path d="M201.957,452.641c-12.919,0-12.941,20.078,0,20.078C214.876,472.719,214.898,452.641,201.957,452.641z"/>
	</g>
</g>
<g>
	<g>
		<path d="M156.782,263.028c-35.981,0-65.255,29.273-65.255,65.255s29.273,65.255,65.255,65.255
			c35.982,0,65.255-29.273,65.255-65.255S192.763,263.028,156.782,263.028z M156.782,373.459c-24.91,0-45.176-20.266-45.176-45.176
			c0-24.91,20.265-45.176,45.176-45.176c24.91,0,45.176,20.266,45.176,45.176C201.958,353.193,181.692,373.459,156.782,373.459z"/>
	</g>
</g>
<g>
	<g>
		<path d="M447.253,89.834L241.757,54.885l205.495-34.947c5.465-0.93,9.143-6.114,8.214-11.58c-0.929-5.465-6.112-9.143-11.58-8.214
			L191.919,42.995V20.421c0-5.544-4.496-10.039-10.039-10.039h-50.206c-5.544,0-10.039,4.496-10.039,10.039v59.918
			C84.686,86.362,56.39,118.49,56.39,157.114v15.571v329.276c0,5.544,4.496,10.039,10.039,10.039h180.706
			c5.544,0,10.039-4.496,10.039-10.039V172.685v-15.571c0-38.628-28.301-70.757-65.255-76.778v-13.56l251.967,42.851
			c0.569,0.097,1.136,0.145,1.695,0.145c4.805,0,9.053-3.461,9.886-8.358C456.395,95.948,452.718,90.763,447.253,89.834z
			 M141.713,30.46h30.128v48.851h-30.128V30.46z M237.095,491.922H76.468V182.724h160.627V491.922z M237.095,157.114v5.532H76.468
			v-5.532c0-31.83,25.895-57.725,57.725-57.725h45.176C211.2,99.39,237.095,125.284,237.095,157.114z"/>
	</g>
</g>
<g>
</g>
<g>
</g>
<g>
</g>
<g>
</g>
<g>
</g>
<g>
</g>
<g>
</g>
<g>
</g>
<g>
</g>
<g>
</g>
<g>
</g>
<g>
</g>
<g>
</g>
<g>
</g>
<g>
</g>
</svg>
