<?xml version="1.0" encoding="iso-8859-1"?>
<!-- Generator: Adobe Illustrator 19.0.0, SVG Export Plug-In . SVG Version: 6.00 Build 0)  -->
<svg version="1.1" id="Capa_1" xmlns="http://www.w3.org/2000/svg" xmlns:xlink="http://www.w3.org/1999/xlink" x="0px" y="0px"
	 viewBox="0 0 512 512" style="enable-background:new 0 0 512 512;" xml:space="preserve">
<g>
	<g>
		<path d="M509.059,248.901c-1.158-1.159-28.873-28.68-73.858-56.51C393.485,166.584,328.529,135.82,256,135.82
			c-72.529,0-137.484,30.764-179.202,56.572c-44.986,27.83-72.7,55.351-73.857,56.51c-3.92,3.92-3.92,10.276,0,14.196
			c1.158,1.158,28.873,28.68,73.857,56.51C118.516,345.416,183.47,376.179,256,376.179c72.529,0,137.484-30.764,179.202-56.572
			c44.986-27.83,72.7-55.351,73.858-56.51C512.98,259.177,512.98,252.821,509.059,248.901z M424.203,302.802
			C384.798,327.117,323.629,356.101,256,356.101c-67.629,0-128.798-28.984-168.203-53.299C57.982,284.405,35.752,265.814,24.779,256
			c10.976-9.815,33.207-28.406,63.018-46.802c39.405-24.315,100.574-53.299,168.203-53.299c67.629,0,128.798,28.984,168.203,53.299
			c29.811,18.396,52.043,36.987,63.018,46.802C476.245,265.815,454.014,284.406,424.203,302.802z"/>
	</g>
</g>
<g>
	<g>
		<path d="M256,171.128c-46.798,0-84.872,38.073-84.872,84.872s38.074,84.872,84.872,84.872s84.872-38.073,84.872-84.872
			C340.871,209.201,302.798,171.128,256,171.128z M256,320.793c-35.728,0-64.793-29.067-64.793-64.793
			c0-14.249,4.634-27.43,12.46-38.139l18.093,18.093c-3.461,5.888-5.454,12.737-5.454,20.046c0,21.888,17.807,39.695,39.695,39.695
			s39.695-17.808,39.695-39.695S277.888,216.305,256,216.305c-7.308,0-14.155,1.993-20.042,5.452l-18.093-18.094
			c10.708-7.824,23.887-12.457,38.135-12.457c35.728,0,64.793,29.067,64.793,64.793S291.727,320.793,256,320.793z M236.383,256
			c0-10.816,8.8-19.617,19.617-19.617c10.816,0,19.617,8.8,19.617,19.617s-8.8,19.617-19.617,19.617
			C245.183,275.616,236.383,266.816,236.383,256z"/>
	</g>
</g>
<g>
	<g>
		<path d="M453.87,248.033c-6.665-5.108-13.562-10.098-20.5-14.831c-8.979-6.128-18.182-11.93-27.353-17.245
			c-4.799-2.782-10.94-1.145-13.721,3.65c-2.78,4.798-1.146,10.941,3.651,13.721c8.748,5.071,17.531,10.608,26.108,16.46
			c6.634,4.526,13.229,9.297,19.6,14.18c1.822,1.396,3.969,2.072,6.101,2.072c3.016,0,5.998-1.353,7.974-3.932
			C459.103,257.707,458.27,251.406,453.87,248.033z"/>
	</g>
</g>
<g>
	<g>
		<path d="M375.634,201.104c-12.919,0-12.942,20.078,0,20.078C388.554,221.183,388.575,201.104,375.634,201.104z"/>
	</g>
</g>
<g>
</g>
<g>
</g>
<g>
</g>
<g>
</g>
<g>
</g>
<g>
</g>
<g>
</g>
<g>
</g>
<g>
</g>
<g>
</g>
<g>
</g>
<g>
</g>
<g>
</g>
<g>
</g>
<g>
</g>
</svg>
