<?xml version="1.0" encoding="iso-8859-1"?>
<!-- Generator: Adobe Illustrator 19.0.0, SVG Export Plug-In . SVG Version: 6.00 Build 0)  -->
<svg version="1.1" id="Capa_1" xmlns="http://www.w3.org/2000/svg" xmlns:xlink="http://www.w3.org/1999/xlink" x="0px" y="0px"
	 viewBox="0 0 512 512" style="enable-background:new 0 0 512 512;" xml:space="preserve">
<g>
	<g>
		<path d="M257.807,148.359c-31.514,0-57.153,25.639-57.153,57.154v23.371h-15.721c-5.545,0-10.039,4.496-10.039,10.039
			c0,5.544,4.495,10.039,10.039,10.039h15.721v41.091c0,15.112-12.295,27.407-27.407,27.407c-5.545,0-10.039,4.496-10.039,10.039
			c0,5.544,4.495,10.039,10.039,10.039c26.184,0,47.485-21.302,47.485-47.485v-41.091h15.711c5.545,0,10.039-4.496,10.039-10.039
			s-4.495-10.039-10.039-10.039h-15.711v-23.371c0-20.443,16.631-37.076,37.075-37.076c5.545,0,10.039-4.496,10.039-10.039
			S263.352,148.359,257.807,148.359z"/>
	</g>
</g>
<g>
	<g>
		<path d="M322.432,269.432l23.409-23.409c3.921-3.921,3.921-10.278,0.001-14.198c-3.921-3.918-10.277-3.918-14.197,0l-23.41,23.41
			l-23.41-23.41c-3.92-3.919-10.277-3.919-14.198,0c-3.92,3.92-3.92,10.277,0,14.198l23.41,23.409l-23.41,23.409
			c-3.92,3.92-3.92,10.277,0,14.198c1.961,1.96,4.53,2.94,7.099,2.94c2.569,0,5.139-0.981,7.099-2.94l23.41-23.41l23.41,23.41
			c1.961,1.96,4.53,2.94,7.099,2.94c2.569,0,5.139-0.981,7.099-2.94c3.92-3.92,3.92-10.277,0-14.198L322.432,269.432z"/>
	</g>
</g>
<g>
	<g>
		<path d="M256,88.345c-92.45,0-167.665,75.21-167.665,167.655S163.55,423.655,256,423.655c92.445,0,167.655-75.21,167.655-167.655
			S348.445,88.345,256,88.345z M256,403.576c-81.38,0-147.586-66.203-147.586-147.576S174.62,108.424,256,108.424
			c81.374,0,147.576,66.203,147.576,147.576S337.374,403.576,256,403.576z"/>
	</g>
</g>
<g>
	<g>
		<path d="M427.088,0H84.902C38.087,0,0,38.091,0,84.912v342.177C0,473.909,38.087,512,84.902,512h342.187
			C473.909,512,512,473.909,512,427.088V84.912C512,38.091,473.909,0,427.088,0z M491.922,427.088
			c0,35.749-29.085,64.833-64.833,64.833H84.902c-35.744,0-64.823-29.085-64.823-64.833V84.912c0-35.749,29.08-64.833,64.823-64.833
			h342.187c35.749,0,64.833,29.085,64.833,64.833V427.088z"/>
	</g>
</g>
<g>
	<g>
		<path d="M463.812,145.048c-5.545,0-10.039,4.496-10.039,10.039v88.507c0,5.544,4.495,10.039,10.039,10.039
			c5.545,0,10.039-4.496,10.039-10.039v-88.507C473.851,149.543,469.356,145.048,463.812,145.048z"/>
	</g>
</g>
<g>
	<g>
		<path d="M463.575,111.923c-12.919,0-12.941,20.078,0,20.078C476.494,132.002,476.516,111.923,463.575,111.923z"/>
	</g>
</g>
<g>
</g>
<g>
</g>
<g>
</g>
<g>
</g>
<g>
</g>
<g>
</g>
<g>
</g>
<g>
</g>
<g>
</g>
<g>
</g>
<g>
</g>
<g>
</g>
<g>
</g>
<g>
</g>
<g>
</g>
</svg>
