<?xml version="1.0" encoding="iso-8859-1"?>
<!-- Generator: Adobe Illustrator 19.0.0, SVG Export Plug-In . SVG Version: 6.00 Build 0)  -->
<svg version="1.1" id="Capa_1" xmlns="http://www.w3.org/2000/svg" xmlns:xlink="http://www.w3.org/1999/xlink" x="0px" y="0px"
	 viewBox="0 0 512 512" style="enable-background:new 0 0 512 512;" xml:space="preserve">
<g>
	<g>
		<path d="M501.961,245.961h-34.645v-1.677c0-5.544-4.495-10.039-10.039-10.039s-10.039,4.496-10.039,10.039v1.677H439.3
			c-2.245-41.939-18.527-81.249-46.588-112.475l5.613-5.613l1.184,1.184c1.961,1.96,4.53,2.94,7.099,2.94
			c2.569,0,5.139-0.981,7.099-2.94c3.92-3.92,3.92-10.277,0-14.198l-1.184-1.184l24.495-24.495c3.92-3.92,3.92-10.277,0-14.198
			c-3.92-3.919-10.277-3.919-14.198,0l-24.494,24.496l-1.183-1.183c-3.92-3.919-10.277-3.919-14.198,0
			c-3.92,3.92-3.92,10.277,0,14.198l1.183,1.183l-5.614,5.614c-7.982-7.161-16.584-13.626-25.675-19.279
			c-4.707-2.928-10.9-1.485-13.826,3.225c-2.928,4.708-1.484,10.899,3.225,13.826c7.789,4.843,15.173,10.359,22.055,16.45
			l-12.702,12.702c-23.987-20.954-53.771-33.293-85.551-35.443V92.801c10.557,0.641,21,2.284,31.16,4.92
			c5.365,1.383,10.845-1.829,12.239-7.195c1.393-5.367-1.828-10.847-7.195-12.24c-11.802-3.063-23.942-4.92-36.203-5.584v-7.949
			h1.677c5.545,0,10.039-4.496,10.039-10.039c0-5.544-4.495-10.039-10.039-10.039h-1.677V10.039C266.039,4.496,261.545,0,256,0
			s-10.039,4.496-10.039,10.039v34.635h-1.677c-5.545,0-10.039,4.496-10.039,10.039c0,5.544,4.495,10.039,10.039,10.039h1.677v7.937
			c-41.935,2.245-81.246,18.526-112.484,46.589l-5.61-5.61l1.193-1.193c3.918-3.923,3.913-10.279-0.009-14.197
			c-3.923-3.918-10.28-3.913-14.197,0.009l-1.184,1.184l-24.49-24.491c-3.921-3.918-10.277-3.919-14.197,0
			c-3.92,3.92-3.921,10.277,0,14.198l24.49,24.49l-1.174,1.174c-3.923,3.918-3.927,10.274-0.009,14.198
			c1.961,1.964,4.532,2.945,7.104,2.945c2.567,0,5.134-0.979,7.094-2.935l1.183-1.183l5.609,5.609
			c-28.062,31.237-44.344,70.549-46.589,112.483h-7.936v-1.677c0-5.544-4.495-10.039-10.039-10.039
			c-5.545,0-10.039,4.496-10.039,10.039v1.677H10.039C4.495,245.961,0,250.456,0,256c0,5.544,4.495,10.039,10.039,10.039h34.635
			v1.667c0,5.544,4.495,10.039,10.039,10.039c5.545,0,10.039-4.496,10.039-10.039v-1.667h7.936
			c2.245,41.942,18.53,81.251,46.597,112.476l-5.617,5.617l-1.189-1.189c-3.919-3.92-10.276-3.92-14.198-0.001
			c-3.92,3.92-3.921,10.276,0,14.197l1.19,1.19l-24.49,24.49c-3.921,3.919-3.922,10.276-0.002,14.198
			c1.961,1.961,4.53,2.941,7.1,2.941c2.569,0,5.138-0.98,7.098-2.939l24.492-24.492l1.179,1.179c1.961,1.961,4.53,2.94,7.099,2.94
			s5.139-0.981,7.099-2.941c3.92-3.92,3.92-10.276,0-14.197l-1.179-1.179l5.619-5.619c31.237,28.063,70.545,44.344,112.474,46.589
			v7.937h-1.677c-5.545,0-10.039,4.496-10.039,10.039c0,5.544,4.495,10.039,10.039,10.039h1.677v34.645
			c0,5.544,4.495,10.039,10.039,10.039c5.545,0,10.039-4.496,10.039-10.039v-34.645h1.667c5.545,0,10.039-4.496,10.039-10.039
			s-4.495-10.039-10.039-10.039h-1.667V439.3c41.93-2.245,81.237-18.526,112.474-46.589l5.614,5.614l-1.183,1.183
			c-3.92,3.92-3.92,10.277,0,14.198c1.961,1.96,4.53,2.94,7.099,2.94c2.569,0,5.139-0.981,7.099-2.94l1.183-1.183l24.495,24.495
			c1.961,1.96,4.53,2.94,7.099,2.94c2.569,0,5.139-0.981,7.099-2.94c3.92-3.92,3.921-10.277,0-14.198l-24.495-24.495l1.184-1.184
			c3.92-3.92,3.92-10.277,0-14.198c-3.92-3.919-10.277-3.919-14.198,0l-1.184,1.184l-5.614-5.614
			c28.062-31.237,44.343-70.546,46.588-112.474h7.937v1.677c0,5.544,4.495,10.039,10.039,10.039c5.545,0,10.039-4.496,10.039-10.039
			v-1.676h34.647c5.545,0,10.039-4.496,10.039-10.039C512,250.456,507.505,245.961,501.961,245.961z M133.501,147.7l12.71,12.71
			c-20.954,23.987-33.293,53.771-35.443,85.551H92.805C95.005,209.39,109.202,175.113,133.501,147.7z M130.899,245.961
			c2.077-26.415,12.334-51.172,29.547-71.317l71.316,71.317H130.899z M231.763,266.039l-71.317,71.317
			c-17.212-20.143-27.469-44.9-29.547-71.317H231.763z M133.51,364.292c-24.305-27.402-38.504-61.677-40.705-98.253h17.963
			c2.15,31.781,14.491,61.565,35.443,85.551L133.51,364.292z M245.961,419.185c-36.565-2.201-70.837-16.397-98.251-40.698
			l12.701-12.701c23.99,20.949,53.774,33.285,85.55,35.435V419.185z M245.961,381.091c-26.412-2.077-51.169-12.331-71.315-29.539
			l71.315-71.315V381.091z M245.961,231.762l-71.317-71.317c20.143-17.212,44.9-27.469,71.317-29.547V231.762z M245.961,110.768
			c-31.781,2.15-61.567,14.491-85.551,35.443l-12.71-12.71c27.414-24.3,61.691-38.496,98.261-40.697V110.768z M378.489,147.709
			c24.3,27.405,38.496,61.679,40.697,98.252h-17.963c-2.15-31.778-14.488-61.563-35.435-85.55L378.489,147.709z M381.09,245.961
			H280.237l71.315-71.315C368.758,194.791,379.013,219.548,381.09,245.961z M381.091,266.039
			c-2.077,26.413-12.331,51.17-29.538,71.315l-71.315-71.315H381.091z M266.039,130.899c26.415,2.077,51.173,12.334,71.317,29.547
			l-71.317,71.317V130.899z M266.039,280.238l71.315,71.315c-20.146,17.207-44.902,27.461-71.315,29.538V280.238z M266.039,419.185
			v-17.963c31.776-2.15,61.56-14.487,85.55-35.435l12.701,12.701C336.877,402.788,302.604,416.985,266.039,419.185z M378.489,364.29
			l-12.701-12.701c20.949-23.989,33.285-53.773,35.435-85.55h17.963C416.985,302.604,402.788,336.878,378.489,364.29z"/>
	</g>
</g>
<g>
	<g>
		<path d="M323.597,87.675c-12.919,0-12.941,20.078,0,20.078C336.517,107.754,336.538,87.675,323.597,87.675z"/>
	</g>
</g>
<g>
</g>
<g>
</g>
<g>
</g>
<g>
</g>
<g>
</g>
<g>
</g>
<g>
</g>
<g>
</g>
<g>
</g>
<g>
</g>
<g>
</g>
<g>
</g>
<g>
</g>
<g>
</g>
<g>
</g>
</svg>
