<?xml version="1.0" encoding="iso-8859-1"?>
<!-- Generator: Adobe Illustrator 19.0.0, SVG Export Plug-In . SVG Version: 6.00 Build 0)  -->
<svg version="1.1" id="Capa_1" xmlns="http://www.w3.org/2000/svg" xmlns:xlink="http://www.w3.org/1999/xlink" x="0px" y="0px"
	 viewBox="0 0 512.001 512.001" style="enable-background:new 0 0 512.001 512.001;" xml:space="preserve">
<g>
	<g>
		<path d="M451.334,305.173c0-3.753-2.072-7.2-5.387-8.96l-75.717-40.21l20.385-10.826c0.124-0.066,0.245-0.135,0.366-0.205
			l54.964-29.185c3.315-1.76,5.388-5.207,5.388-8.96s-2.073-7.2-5.388-8.96l-75.718-40.215l75.718-40.211
			c3.315-1.76,5.387-5.207,5.387-8.96c0-3.754-2.073-7.2-5.388-8.96L260.757,1.185c-2.975-1.58-6.541-1.58-9.515,0L66.055,99.52
			c-3.315,1.76-5.388,5.206-5.388,8.96c0,3.753,2.072,7.2,5.387,8.96l75.718,40.211l-75.718,40.215
			c-3.315,1.76-5.388,5.207-5.388,8.96c0,3.753,2.073,7.2,5.388,8.96l54.963,29.185c0.121,0.07,0.243,0.139,0.367,0.205
			l20.385,10.826l-75.717,40.21c-3.315,1.76-5.387,5.207-5.387,8.96c0,3.753,2.072,7.2,5.387,8.96l75.723,40.213l-75.723,40.213
			c-3.313,1.761-5.385,5.207-5.385,8.961c0,3.754,2.073,7.2,5.388,8.96l185.188,98.336c1.487,0.789,3.123,1.185,4.757,1.185
			c1.634,0,3.271-0.396,4.757-1.185l185.188-98.336c3.315-1.76,5.388-5.206,5.388-8.96c0-3.753-2.072-7.2-5.387-8.96l-75.723-40.213
			l75.723-40.213C449.263,312.373,451.334,308.926,451.334,305.173z M396.003,194.317l23.554,12.51l-23.554,12.507V194.317z
			 M116,219.334l-23.554-12.507L116,194.316V219.334z M375.713,183.54v46.577l-16.81,8.928v-64.433L375.713,183.54z M92.445,108.48
			l163.557-86.849l163.557,86.849l-163.557,86.86l-13.136-6.976c-0.444-0.28-0.909-0.532-1.396-0.742l-73.302-38.929
			c-0.001,0-0.001-0.001-0.001-0.001L92.445,108.48z M338.612,174.442v75.372l-16.809,8.928v-75.373L338.612,174.442z
			 M301.512,194.144v75.373l-16.81,8.928v-75.373L301.512,194.144z M264.412,213.848v75.373l-8.409,4.466l-8.411-4.467v-75.372
			l3.653,1.94c1.488,0.789,3.123,1.185,4.757,1.185c1.634,0,3.27-0.396,4.757-1.185L264.412,213.848z M227.3,203.071v75.372
			l-16.81-8.928v-75.372L227.3,203.071z M190.2,183.369v75.372l-16.809-8.927v-75.372L190.2,183.369z M136.29,230.117v-46.578
			l16.81-8.929v64.433L136.29,230.117z M419.556,403.52l-163.555,86.849L92.445,403.52l70.963-37.686l87.835,46.646
			c1.488,0.789,3.123,1.185,4.758,1.185s3.271-0.396,4.758-1.185l87.835-46.646L419.556,403.52z M343.848,345.38
			c-0.016,0.008-0.031,0.017-0.047,0.025l-87.801,46.629l-87.801-46.629c-0.015-0.008-0.029-0.016-0.045-0.023l-75.711-40.208
			l70.964-37.687l32.039,17.014c0.054,0.03,0.109,0.058,0.163,0.086l55.632,29.543c1.488,0.79,3.124,1.186,4.759,1.186
			c1.634,0,3.27-0.396,4.757-1.185l18.531-9.841c0.056-0.029,0.113-0.059,0.168-0.089l36.909-19.601
			c0.069-0.036,0.139-0.072,0.207-0.11l32.02-17.004l70.965,37.686L343.848,345.38z"/>
	</g>
</g>
<g>
	<g>
		<path d="M346.323,121.799c-2.348-5.089-8.378-7.307-13.464-4.959l-81.211,37.486c-5.087,2.348-7.306,8.376-4.959,13.464
			c1.711,3.71,5.383,5.895,9.217,5.895c1.423,0,2.869-0.3,4.247-0.936l81.211-37.486
			C346.451,132.915,348.67,126.887,346.323,121.799z"/>
	</g>
</g>
<g>
	<g>
		<path d="M367.404,101.665c-13.056,0-13.077,20.29,0,20.29C380.46,121.956,380.481,101.665,367.404,101.665z"/>
	</g>
</g>
<g>
</g>
<g>
</g>
<g>
</g>
<g>
</g>
<g>
</g>
<g>
</g>
<g>
</g>
<g>
</g>
<g>
</g>
<g>
</g>
<g>
</g>
<g>
</g>
<g>
</g>
<g>
</g>
<g>
</g>
</svg>
