<?xml version="1.0" encoding="iso-8859-1"?>
<!-- Generator: Adobe Illustrator 19.0.0, SVG Export Plug-In . SVG Version: 6.00 Build 0)  -->
<svg version="1.1" id="Capa_1" xmlns="http://www.w3.org/2000/svg" xmlns:xlink="http://www.w3.org/1999/xlink" x="0px" y="0px"
	 viewBox="0 0 512 512" style="enable-background:new 0 0 512 512;" xml:space="preserve">
<g>
	<g>
		<path d="M501.856,54.138H10.144C4.541,54.138,0,58.68,0,64.281v383.437c0,5.602,4.541,10.144,10.144,10.144h491.712
			c5.601,0,10.144-4.542,10.144-10.144V64.281C512,58.68,507.458,54.138,501.856,54.138z M491.712,437.575H20.288V74.425h471.425
			V437.575z"/>
	</g>
</g>
<g>
	<g>
		<path d="M256,104.857c-83.341,0-151.143,67.802-151.143,151.143S172.659,407.143,256,407.143S407.143,339.341,407.143,256
			S339.341,104.857,256,104.857z M256,386.855c-72.154,0-130.855-58.701-130.855-130.855S183.846,125.145,256,125.145
			S386.855,183.846,386.855,256S328.154,386.855,256,386.855z"/>
	</g>
</g>
<g>
	<g>
		<path d="M453.887,292.676c-5.601,0-10.144,4.542-10.144,10.144v89.429c0,5.601,4.542,10.144,10.144,10.144
			s10.144-4.542,10.144-10.144V302.82C464.031,297.218,459.489,292.676,453.887,292.676z"/>
	</g>
</g>
<g>
	<g>
		<path d="M453.648,259.206c-13.054,0-13.075,20.288,0,20.288C466.702,279.494,466.723,259.206,453.648,259.206z"/>
	</g>
</g>
<g>
</g>
<g>
</g>
<g>
</g>
<g>
</g>
<g>
</g>
<g>
</g>
<g>
</g>
<g>
</g>
<g>
</g>
<g>
</g>
<g>
</g>
<g>
</g>
<g>
</g>
<g>
</g>
<g>
</g>
</svg>
