<?xml version="1.0" encoding="iso-8859-1"?>
<!-- Generator: Adobe Illustrator 19.0.0, SVG Export Plug-In . SVG Version: 6.00 Build 0)  -->
<svg version="1.1" id="Capa_1" xmlns="http://www.w3.org/2000/svg" xmlns:xlink="http://www.w3.org/1999/xlink" x="0px" y="0px"
	 viewBox="0 0 512.001 512.001" style="enable-background:new 0 0 512.001 512.001;" xml:space="preserve">
<g>
	<g>
		<path d="M512,112.856c0-5.569-4.515-10.085-10.085-10.085H93.7V39.326c0-5.569-4.515-10.085-10.085-10.085
			S73.53,33.758,73.53,39.326v63.445H10.085C4.515,102.771,0,107.287,0,112.856s4.515,10.085,10.085,10.085H73.53v349.733
			c0,5.569,4.515,10.085,10.085,10.085h279.663c0.022,0,0.044-0.003,0.067-0.003c0.311-0.002,0.621-0.016,0.93-0.046
			c0.214-0.021,0.423-0.058,0.632-0.093c0.113-0.018,0.228-0.029,0.34-0.052c0.245-0.048,0.484-0.113,0.722-0.179
			c0.077-0.021,0.154-0.036,0.23-0.06c0.238-0.073,0.47-0.158,0.701-0.248c0.077-0.029,0.154-0.052,0.23-0.084
			c0.215-0.089,0.422-0.192,0.628-0.294c0.09-0.044,0.182-0.083,0.269-0.13c0.188-0.101,0.367-0.214,0.548-0.326
			c0.101-0.063,0.206-0.119,0.305-0.186c0.17-0.114,0.332-0.241,0.495-0.365c0.1-0.077,0.205-0.146,0.303-0.226
			c0.213-0.175,0.415-0.363,0.613-0.555c0.039-0.037,0.082-0.07,0.12-0.108L509.046,341.17c0.003-0.003,0.006-0.007,0.009-0.011
			c0.314-0.315,0.598-0.656,0.867-1.008c0.063-0.083,0.125-0.163,0.185-0.247c0.256-0.357,0.495-0.728,0.704-1.118
			c0.016-0.029,0.027-0.059,0.043-0.09c0.192-0.368,0.357-0.75,0.503-1.144c0.03-0.082,0.062-0.162,0.09-0.244
			c0.144-0.421,0.268-0.849,0.356-1.292c0.004-0.019,0.005-0.038,0.009-0.056c0.078-0.401,0.125-0.814,0.153-1.23
			c0.008-0.119,0.014-0.238,0.018-0.357c0.004-0.112,0.017-0.221,0.017-0.333V112.856H512z M373.363,448.327V344.125h104.203
			L373.363,448.327z M491.829,323.954H363.278c-5.57,0-10.085,4.516-10.085,10.085V462.59H93.7V122.941h398.129V323.954z"/>
	</g>
</g>
<g>
	<g>
		<path d="M404.364,143.453h-93.3c-5.57,0-10.085,4.516-10.085,10.085c0,5.569,4.515,10.085,10.085,10.085h93.3
			c5.57,0,10.085-4.516,10.085-10.085C414.449,147.969,409.934,143.453,404.364,143.453z"/>
	</g>
</g>
<g>
	<g>
		<path d="M439.282,143.204c-12.978,0-13,20.17,0,20.17C452.26,163.374,452.282,143.204,439.282,143.204z"/>
	</g>
</g>
<g>
</g>
<g>
</g>
<g>
</g>
<g>
</g>
<g>
</g>
<g>
</g>
<g>
</g>
<g>
</g>
<g>
</g>
<g>
</g>
<g>
</g>
<g>
</g>
<g>
</g>
<g>
</g>
<g>
</g>
</svg>
