<?xml version="1.0" encoding="iso-8859-1"?>
<!-- Generator: Adobe Illustrator 19.0.0, SVG Export Plug-In . SVG Version: 6.00 Build 0)  -->
<svg version="1.1" id="Capa_1" xmlns="http://www.w3.org/2000/svg" xmlns:xlink="http://www.w3.org/1999/xlink" x="0px" y="0px"
	 viewBox="0 0 512 512" style="enable-background:new 0 0 512 512;" xml:space="preserve">
<g>
	<g>
		<path d="M450.256,364.28c-4.613-3.095-10.863-1.867-13.959,2.745c-12.2,18.171-32.529,29.018-54.382,29.018
			c-5.556,0-10.06,4.505-10.06,10.06s4.504,10.06,10.06,10.06c28.569,0,55.143-14.177,71.087-37.923
			C456.098,373.627,454.869,367.377,450.256,364.28z"/>
	</g>
</g>
<g>
	<g>
		<path d="M194.865,189.06c-31.019,0-56.256,25.237-56.256,56.256c0,31.019,25.236,56.256,56.256,56.256
			s56.256-25.237,56.256-56.256C251.121,214.297,225.885,189.06,194.865,189.06z M194.865,281.453
			c-19.925,0-36.136-16.21-36.136-36.136s16.211-36.136,36.136-36.136s36.136,16.21,36.136,36.136S214.79,281.453,194.865,281.453z"
			/>
	</g>
</g>
<g>
	<g>
		<path d="M51.206,135.46c-5.556,0-10.06,4.505-10.06,10.06v33.54c0,5.555,4.504,10.06,10.06,10.06s10.06-4.505,10.06-10.06v-33.54
			C61.266,139.964,56.762,135.46,51.206,135.46z"/>
	</g>
</g>
<g>
	<g>
		<path d="M81.145,135.46c-5.556,0-10.06,4.505-10.06,10.06v33.54c0,5.555,4.504,10.06,10.06,10.06s10.06-4.505,10.06-10.06v-33.54
			C91.205,139.964,86.701,135.46,81.145,135.46z"/>
	</g>
</g>
<g>
	<g>
		<path d="M389.729,200.75v-65.733c0-20.408-16.608-37.011-37.021-37.011h-71.972l-12.83-39.712
			c-1.341-4.153-5.208-6.968-9.573-6.968H131.405c-4.364,0-8.23,2.814-9.572,6.966l-12.839,39.714H37.021
			C16.608,98.006,0,114.609,0,135.017v166.374c0,20.408,16.608,37.011,37.021,37.011h215.045
			c4.052,68.103,60.738,122.271,129.846,122.271c71.731,0,130.087-58.353,130.087-130.077
			C512,261.491,457.834,204.808,389.729,200.75z M325.958,118.126h26.75c9.32,0,16.901,7.578,16.901,16.891v66.085
			c-15.191,1.429-29.948,5.507-43.651,12.047V118.126z M369.609,221.334v80.057c0,9.314-7.582,16.891-16.901,16.891h-80.074
			c1.284-11.617,4.394-22.867,9.308-33.556c8.601-18.719,22.257-34.615,39.499-45.975
			C335.942,229.178,352.424,223.251,369.609,221.334z M138.726,71.447h112.286l8.58,26.559H130.14L138.726,71.447z M37.021,318.283
			c-9.32,0-16.901-7.577-16.901-16.891V135.017c0-9.314,7.582-16.891,16.901-16.891h79.149c0.031,0,0.062,0,0.094,0h157.074
			c0.025,0,0.049,0.003,0.074,0.003s0.05-0.003,0.076-0.003h32.349v106.965c-6.495,4.682-12.512,9.933-18,15.675
			c-2.381-49.223-43.172-88.536-92.974-88.536c-51.328,0-93.086,41.759-93.086,93.086c0,29.536,13.83,55.901,35.352,72.966H37.021z
			 M261.391,275.336c-11.796,26.09-37.91,42.947-66.526,42.947c-40.234,0-72.967-32.733-72.967-72.966s32.733-72.966,72.966-72.966
			s72.966,32.733,72.966,72.966C267.831,255.776,265.664,265.877,261.391,275.336z M381.913,440.553
			c-58.011,0-105.669-45.149-109.687-102.151h80.482c20.414,0,37.021-16.603,37.021-37.011V220.91
			c57.002,4.023,102.151,51.679,102.151,109.687C491.88,391.228,442.549,440.553,381.913,440.553z"/>
	</g>
</g>
<g>
	<g>
		<path d="M457.423,332.122c-12.946,0-12.968,20.12,0,20.12C470.369,352.243,470.39,332.122,457.423,332.122z"/>
	</g>
</g>
<g>
</g>
<g>
</g>
<g>
</g>
<g>
</g>
<g>
</g>
<g>
</g>
<g>
</g>
<g>
</g>
<g>
</g>
<g>
</g>
<g>
</g>
<g>
</g>
<g>
</g>
<g>
</g>
<g>
</g>
</svg>
