<?xml version="1.0" encoding="iso-8859-1"?>
<!-- Generator: Adobe Illustrator 19.0.0, SVG Export Plug-In . SVG Version: 6.00 Build 0)  -->
<svg version="1.1" id="Capa_1" xmlns="http://www.w3.org/2000/svg" xmlns:xlink="http://www.w3.org/1999/xlink" x="0px" y="0px"
	 viewBox="0 0 511.999 511.999" style="enable-background:new 0 0 511.999 511.999;" xml:space="preserve">
<g>
	<g>
		<path d="M501.96,376.823h-34.913v-32.266h34.913c5.545,0,10.039-4.496,10.039-10.039s-4.495-10.039-10.039-10.039h-34.913v-32.267
			h34.913c5.545,0,10.039-4.496,10.039-10.039s-4.495-10.039-10.039-10.039h-34.913v-32.266h34.913
			c5.545,0,10.039-4.496,10.039-10.039s-4.495-10.039-10.039-10.039h-34.913V187.52h34.913c5.545,0,10.039-4.496,10.039-10.039
			s-4.495-10.039-10.039-10.039h-34.913v-32.267h34.913c5.545,0,10.039-4.496,10.039-10.039s-4.495-10.039-10.039-10.039h-34.913
			c-0.003-38.676-31.467-70.143-70.144-70.149V10.04C396.903,4.496,392.408,0,386.863,0c-5.545,0-10.039,4.496-10.039,10.039v34.907
			h-32.266V10.04C344.558,4.496,340.063,0,334.519,0c-5.545,0-10.039,4.496-10.039,10.039v34.907h-32.266V10.04
			C292.213,4.496,287.719,0,282.174,0c-5.545,0-10.039,4.496-10.039,10.039v34.907h-32.266V10.04C239.868,4.496,235.374,0,229.829,0
			c-5.545,0-10.039,4.496-10.039,10.039v34.907h-32.266V10.04C187.524,4.496,183.029,0,177.484,0
			c-5.545,0-10.039,4.496-10.039,10.039v34.907h-32.266V10.04C135.179,4.496,130.684,0,125.14,0S115.1,4.496,115.1,10.04v34.907
			c-38.683,0-70.154,31.472-70.154,70.155H10.039C4.495,115.102,0,119.597,0,125.141s4.495,10.039,10.039,10.039h34.907v32.266
			H10.039C4.495,167.447,0,171.942,0,177.486s4.495,10.039,10.039,10.039h34.907v32.266H10.039C4.495,219.791,0,224.287,0,229.831
			s4.495,10.039,10.039,10.039h34.907v32.267H10.039C4.495,272.137,0,276.633,0,282.176c0,5.544,4.495,10.039,10.039,10.039h34.907
			v32.266H10.039C4.495,324.482,0,328.978,0,334.521c0,5.544,4.495,10.039,10.039,10.039h34.907v32.266H10.039
			C4.495,376.827,0,381.322,0,386.866c0,5.544,4.495,10.039,10.039,10.039h34.907c0.005,38.679,31.474,70.144,70.153,70.144v34.91
			c0,5.544,4.495,10.039,10.039,10.039s10.039-4.496,10.039-10.039v-34.91h32.266v34.91c0,5.544,4.495,10.039,10.039,10.039
			s10.039-4.496,10.039-10.039v-34.91h32.266v34.91c0,5.544,4.495,10.039,10.039,10.039s10.039-4.496,10.039-10.039v-34.91h32.267
			v34.91c0,5.544,4.495,10.039,10.039,10.039c5.545,0,10.039-4.496,10.039-10.039v-34.91h32.266v34.91
			c0,5.544,4.495,10.039,10.039,10.039c5.545,0,10.039-4.496,10.039-10.039v-34.91h32.266v34.91c0,5.544,4.495,10.039,10.039,10.039
			c5.545,0,10.039-4.496,10.039-10.039v-34.911c38.676-0.006,70.14-31.47,70.143-70.147h34.914c5.545,0,10.039-4.496,10.039-10.039
			S507.504,376.823,501.96,376.823z M430.21,135.175h16.759v32.267H430.21c-5.545,0-10.039,4.496-10.039,10.039
			c0,5.544,4.495,10.039,10.039,10.039h16.759v32.267H430.21c-5.545,0-10.039,4.496-10.039,10.039
			c0,5.544,4.495,10.039,10.039,10.039h16.759v32.266H430.21c-5.545,0-10.039,4.496-10.039,10.039s4.495,10.039,10.039,10.039
			h16.759v32.267H430.21c-5.545,0-10.039,4.496-10.039,10.039s4.495,10.039,10.039,10.039h16.759v32.266H430.21
			c-5.545,0-10.039,4.496-10.039,10.039c0,5.544,4.495,10.039,10.039,10.039h16.759c-0.004,27.605-22.461,50.063-50.065,50.069
			V430.21c0-5.544-4.495-10.039-10.039-10.039c-5.545,0-10.039,4.496-10.039,10.039v16.762h-32.266V430.21
			c0-5.544-4.495-10.039-10.039-10.039c-5.545,0-10.039,4.496-10.039,10.039v16.762h-32.266V430.21
			c0-5.544-4.495-10.039-10.039-10.039c-5.545,0-10.039,4.496-10.039,10.039v16.762h-32.267V430.21
			c0-5.544-4.495-10.039-10.039-10.039s-10.039,4.496-10.039,10.039v16.762h-32.266V430.21c0-5.544-4.495-10.039-10.039-10.039
			s-10.039,4.496-10.039,10.039v16.762h-32.266V430.21c0-5.544-4.495-10.039-10.039-10.039c-5.545,0-10.039,4.496-10.039,10.039
			v16.762c-27.608,0-50.07-22.459-50.075-50.066h16.766c5.545,0,10.039-4.496,10.039-10.039c0-5.544-4.495-10.039-10.039-10.039
			H65.025V344.56h16.766c5.545,0,10.039-4.496,10.039-10.039c0-5.544-4.495-10.039-10.039-10.039H65.025v-32.266h16.766
			c5.545,0,10.039-4.496,10.039-10.039c0-5.544-4.495-10.039-10.039-10.039H65.025V239.87h16.766
			c5.545,0,10.039-4.496,10.039-10.039s-4.495-10.039-10.039-10.039H65.025v-32.266h16.766c5.545,0,10.039-4.496,10.039-10.039
			c0-5.544-4.495-10.039-10.039-10.039H65.025V135.18h16.766c5.545,0,10.039-4.496,10.039-10.039
			c0-5.544-4.495-10.039-10.039-10.039H65.025c0-27.613,22.464-50.077,50.076-50.077V81.79c0,5.544,4.495,10.039,10.039,10.039
			s10.039-4.496,10.039-10.039V65.025h32.266V81.79c0,5.544,4.495,10.039,10.039,10.039s10.039-4.496,10.039-10.039V65.025h32.266
			V81.79c0,5.544,4.495,10.039,10.039,10.039s10.039-4.496,10.039-10.039V65.025h32.266V81.79c0,5.544,4.495,10.039,10.039,10.039
			c5.545,0,10.039-4.496,10.039-10.039V65.025h32.266V81.79c0,5.544,4.495,10.039,10.039,10.039c5.545,0,10.039-4.496,10.039-10.039
			V65.025h32.266V81.79c0,5.544,4.495,10.039,10.039,10.039c5.545,0,10.039-4.496,10.039-10.039V65.025
			c27.606,0.006,50.063,22.464,50.066,50.072h-16.759c-5.545,0-10.039,4.496-10.039,10.039
			C420.172,130.68,424.665,135.175,430.21,135.175z"/>
	</g>
</g>
<g>
	<g>
		<path d="M195.953,384.506H125.14c-5.545,0-10.039,4.496-10.039,10.039s4.495,10.039,10.039,10.039h70.813
			c5.545,0,10.039-4.496,10.039-10.039S201.496,384.506,195.953,384.506z"/>
	</g>
</g>
<g>
	<g>
		<path d="M225.884,384.506c-12.92,0-12.941,20.079,0,20.079C238.803,404.584,238.824,384.506,225.884,384.506z"/>
	</g>
</g>
<g>
</g>
<g>
</g>
<g>
</g>
<g>
</g>
<g>
</g>
<g>
</g>
<g>
</g>
<g>
</g>
<g>
</g>
<g>
</g>
<g>
</g>
<g>
</g>
<g>
</g>
<g>
</g>
<g>
</g>
</svg>
