<?xml version="1.0" encoding="iso-8859-1"?>
<!-- Generator: Adobe Illustrator 19.0.0, SVG Export Plug-In . SVG Version: 6.00 Build 0)  -->
<svg version="1.1" id="Capa_1" xmlns="http://www.w3.org/2000/svg" xmlns:xlink="http://www.w3.org/1999/xlink" x="0px" y="0px"
	 viewBox="0 0 512 512" style="enable-background:new 0 0 512 512;" xml:space="preserve">
<g>
	<g>
		<path d="M264.759,5.124C262.981,1.96,259.634,0,256.005,0c-3.629,0-6.976,1.959-8.754,5.124
			c-6.079,10.825-148.872,266.081-148.872,349.25C98.379,441.289,169.09,512,256.005,512c86.909,0,157.616-70.711,157.616-157.626
			C413.621,271.205,270.837,15.949,264.759,5.124z M256.005,491.922c-75.844,0-137.547-61.703-137.547-137.547
			c0-22.177,12.619-74.573,72.742-198.256c25.717-52.907,51.686-101.293,64.805-125.297c13.116,24.004,39.084,72.389,64.8,125.297
			c60.118,123.683,72.737,176.081,72.737,198.256C393.542,430.219,331.843,491.922,256.005,491.922z"/>
	</g>
</g>
<g>
	<g>
		<path d="M343.368,386.008c-4.975-2.45-10.993-0.399-13.44,4.576c-13.996,28.446-42.323,46.118-73.927,46.118
			c-5.544,0-10.039,4.496-10.039,10.039c0,5.544,4.496,10.039,10.04,10.039c19.479,0,38.444-5.517,54.843-15.953
			c15.944-10.147,28.772-24.456,37.099-41.379C350.392,394.473,348.343,388.456,343.368,386.008z"/>
	</g>
</g>
<g>
	<g>
		<path d="M348.031,353.715c-12.92,0-12.942,20.078,0,20.078C360.951,373.793,360.972,353.715,348.031,353.715z"/>
	</g>
</g>
<g>
</g>
<g>
</g>
<g>
</g>
<g>
</g>
<g>
</g>
<g>
</g>
<g>
</g>
<g>
</g>
<g>
</g>
<g>
</g>
<g>
</g>
<g>
</g>
<g>
</g>
<g>
</g>
<g>
</g>
</svg>
