<?xml version="1.0" encoding="iso-8859-1"?>
<!-- Generator: Adobe Illustrator 19.0.0, SVG Export Plug-In . SVG Version: 6.00 Build 0)  -->
<svg version="1.1" id="Capa_1" xmlns="http://www.w3.org/2000/svg" xmlns:xlink="http://www.w3.org/1999/xlink" x="0px" y="0px"
	 viewBox="0 0 512 512" style="enable-background:new 0 0 512 512;" xml:space="preserve">
<g>
	<g>
		<path d="M477.934,34.098c-0.094-0.096-0.19-0.188-0.289-0.28C455.695,12.009,426.58,0,395.62,0
			c-31.093,0-60.326,12.11-82.313,34.097l-63.071,63.081L97.203,250.199c-0.002,0.002-0.003,0.003-0.005,0.005l-63.073,63.073
			c-21.984,21.996-34.092,51.227-34.092,82.307c0,31.1,12.108,60.334,34.094,82.32C56.115,499.892,85.348,512,116.441,512
			s60.323-12.109,82.304-34.096l63.071-63.061c0.003-0.003,0.007-0.006,0.01-0.009l153.026-153.037
			c0.003-0.003,0.006-0.007,0.009-0.01l63.073-63.061C523.311,153.337,523.311,79.486,477.934,34.098z M184.032,463.19
			c-18.052,18.057-42.056,28.001-67.59,28.001c-25.535,0-49.542-9.945-67.6-28.002c-18.056-18.056-27.999-42.065-27.999-67.606
			c0-25.525,9.944-49.532,27.999-67.596l55.714-55.714l135.201,135.201L184.032,463.19z M254.471,392.762L119.27,257.561
			l138.322-138.312L392.784,254.44L254.471,392.762z M463.222,184.011l-55.724,55.715L272.305,104.533l19.805-19.807l62.148,62.149
			c2.032,2.031,4.694,3.047,7.357,3.047s5.325-1.016,7.357-3.047c4.063-4.063,4.063-10.651,0-14.715l-62.149-62.15L328.02,48.81
			c18.057-18.056,42.064-28.001,67.6-28.001c25.534,0,49.538,9.944,67.59,28.001c0.086,0.086,0.175,0.172,0.264,0.254
			C500.489,86.361,500.404,146.821,463.222,184.011z"/>
	</g>
</g>
<g>
	<g>
		<path d="M267.5,176.93c-4.064-4.062-10.651-4.062-14.715,0l-5.872,5.873c-4.063,4.063-4.063,10.651,0,14.715
			c2.032,2.031,4.694,3.047,7.357,3.047c2.662,0,5.325-1.017,7.357-3.047l5.873-5.873C271.563,187.582,271.563,180.994,267.5,176.93
			z"/>
	</g>
</g>
<g>
	<g>
		<path d="M301.3,210.729c-4.064-4.062-10.65-4.062-14.715,0l-5.873,5.873c-4.063,4.063-4.063,10.651,0,14.715
			c2.032,2.031,4.694,3.047,7.358,3.047s5.325-1.016,7.357-3.047l5.873-5.873C305.363,221.381,305.363,214.793,301.3,210.729z"/>
	</g>
</g>
<g>
	<g>
		<path d="M335.099,244.528c-4.064-4.062-10.65-4.062-14.715,0l-5.873,5.873c-4.063,4.063-4.063,10.651,0,14.715
			c2.033,2.032,4.694,3.047,7.358,3.047c2.663,0,5.325-1.016,7.357-3.047l5.873-5.873
			C339.162,255.18,339.162,248.592,335.099,244.528z"/>
	</g>
</g>
<g>
	<g>
		<path d="M232.522,211.91c-4.063-4.064-10.65-4.063-14.714-0.001l-5.873,5.872c-4.064,4.062-4.064,10.65-0.001,14.714
			c2.032,2.032,4.694,3.048,7.358,3.048c2.662,0,5.325-1.017,7.356-3.047l5.873-5.872
			C236.585,222.562,236.585,215.974,232.522,211.91z"/>
	</g>
</g>
<g>
	<g>
		<path d="M266.322,245.708c-4.063-4.061-10.65-4.062-14.714,0l-5.873,5.873c-4.063,4.063-4.063,10.651,0,14.715
			c2.032,2.031,4.694,3.047,7.357,3.047s5.325-1.016,7.357-3.047l5.873-5.873C270.385,256.359,270.385,249.771,266.322,245.708z"/>
	</g>
</g>
<g>
	<g>
		<path d="M300.121,279.506c-4.064-4.062-10.65-4.062-14.715,0l-5.873,5.873c-4.063,4.063-4.063,10.651,0,14.715
			c2.033,2.032,4.694,3.047,7.358,3.047c2.663,0,5.325-1.016,7.357-3.047l5.873-5.873
			C304.184,290.158,304.184,283.57,300.121,279.506z"/>
	</g>
</g>
<g>
	<g>
		<path d="M197.544,246.886c-4.063-4.062-10.651-4.062-14.714,0l-5.873,5.873c-4.063,4.063-4.063,10.651,0,14.715
			c2.032,2.031,4.694,3.047,7.357,3.047s5.326-1.017,7.357-3.047l5.873-5.873C201.607,257.538,201.607,250.95,197.544,246.886z"/>
	</g>
</g>
<g>
	<g>
		<path d="M231.343,280.686c-4.062-4.062-10.65-4.062-14.714,0l-5.873,5.873c-4.063,4.063-4.063,10.651,0,14.715
			c2.032,2.031,4.694,3.047,7.357,3.047c2.662,0,5.326-1.016,7.357-3.047l5.873-5.873
			C235.405,291.338,235.405,284.75,231.343,280.686z"/>
	</g>
</g>
<g>
	<g>
		<path d="M265.144,314.487c-4.062-4.064-10.65-4.064-14.714-0.001l-5.873,5.872c-4.064,4.062-4.064,10.65-0.001,14.714
			c2.032,2.032,4.694,3.048,7.358,3.048c2.662,0,5.325-1.016,7.356-3.047l5.873-5.872
			C269.206,325.139,269.207,318.551,265.144,314.487z"/>
	</g>
</g>
<g>
	<g>
		<path d="M396.404,167.154c-13.389,0-13.411,20.809,0,20.809C409.794,187.963,409.815,167.154,396.404,167.154z"/>
	</g>
</g>
<g>
</g>
<g>
</g>
<g>
</g>
<g>
</g>
<g>
</g>
<g>
</g>
<g>
</g>
<g>
</g>
<g>
</g>
<g>
</g>
<g>
</g>
<g>
</g>
<g>
</g>
<g>
</g>
<g>
</g>
</svg>
