<?xml version="1.0" encoding="iso-8859-1"?>
<!-- Generator: Adobe Illustrator 19.0.0, SVG Export Plug-In . SVG Version: 6.00 Build 0)  -->
<svg version="1.1" id="Capa_1" xmlns="http://www.w3.org/2000/svg" xmlns:xlink="http://www.w3.org/1999/xlink" x="0px" y="0px"
	 viewBox="0 0 512 512" style="enable-background:new 0 0 512 512;" xml:space="preserve">
<g>
	<g>
		<path d="M502.505,89.4l-79.9-79.898C416.477,3.374,408.329,0,399.663,0c-8.667,0-16.814,3.374-22.942,9.502L58.706,327.517
			c-0.136,0.137-0.256,0.282-0.383,0.423c-0.075,0.084-0.154,0.164-0.227,0.251c-0.258,0.309-0.498,0.626-0.713,0.956
			c-0.002,0.003-0.004,0.006-0.006,0.01c-0.217,0.333-0.407,0.677-0.581,1.027c-0.04,0.08-0.076,0.163-0.114,0.245
			c-0.137,0.295-0.259,0.595-0.365,0.898c-0.019,0.054-0.046,0.104-0.064,0.157L0.529,498.641
			c-1.216,3.647-0.267,7.668,2.452,10.386C4.915,510.962,7.508,512,10.158,512c1.074,0,2.157-0.17,3.208-0.522l167.157-55.726
			c0.053-0.017,0.102-0.044,0.154-0.063c0.305-0.108,0.607-0.229,0.903-0.367c0.081-0.038,0.162-0.073,0.243-0.113
			c0.353-0.175,0.699-0.365,1.034-0.585c0.001-0.001,0.002-0.001,0.003-0.002c0.331-0.216,0.65-0.457,0.958-0.715
			c0.085-0.071,0.163-0.148,0.247-0.222c0.143-0.128,0.289-0.249,0.426-0.386l280.502-280.503c0.001-0.001,0.003-0.002,0.004-0.003
			c0.001-0.001,0.002-0.003,0.003-0.004l37.505-37.505C515.155,122.633,515.155,102.05,502.505,89.4z M346.389,68.54l41.363,41.364
			L121.598,376.058l-41.363-41.363L346.389,68.54z M26.205,485.804l11.992-35.971l23.975,23.98L26.205,485.804z M83.697,466.637
			l-38.324-38.333l24.943-74.823l88.21,88.209L83.697,466.637z M177.314,431.773L135.95,390.41l266.154-266.154l41.362,41.362
			L177.314,431.773z M488.152,120.933l-30.333,30.333l-97.078-97.078l30.333-30.333c4.736-4.737,12.443-4.737,17.178,0l79.9,79.899
			C492.888,108.49,492.888,116.197,488.152,120.933z"/>
	</g>
</g>
<g>
	<g>
		<path d="M332.292,123.394c-3.962-3.962-10.389-3.962-14.352,0l-63.265,63.266c-3.964,3.964-3.964,10.39,0,14.353
			c1.982,1.981,4.579,2.973,7.176,2.973c2.597,0,5.195-0.992,7.176-2.973l63.265-63.266
			C336.255,133.784,336.255,127.358,332.292,123.394z"/>
	</g>
</g>
<g>
	<g>
		<path d="M348.625,96.576c-13.06,0-13.083,20.297,0,20.297C361.686,116.873,361.707,96.576,348.625,96.576z"/>
	</g>
</g>
<g>
</g>
<g>
</g>
<g>
</g>
<g>
</g>
<g>
</g>
<g>
</g>
<g>
</g>
<g>
</g>
<g>
</g>
<g>
</g>
<g>
</g>
<g>
</g>
<g>
</g>
<g>
</g>
<g>
</g>
</svg>
