<?xml version="1.0" encoding="iso-8859-1"?>
<!-- Generator: Adobe Illustrator 19.0.0, SVG Export Plug-In . SVG Version: 6.00 Build 0)  -->
<svg version="1.1" id="Capa_1" xmlns="http://www.w3.org/2000/svg" xmlns:xlink="http://www.w3.org/1999/xlink" x="0px" y="0px"
	 viewBox="0 0 512.001 512.001" style="enable-background:new 0 0 512.001 512.001;" xml:space="preserve">
<g>
	<g>
		<path d="M397.909,122.59l-6.27-6.27c-7.324-7.323-17.059-11.356-27.412-11.356c-10.356,0-20.09,4.035-27.406,11.356
			L92.694,360.437l-87.559,87.56c-3.886,3.886-3.886,10.188,0,14.075l47.014,47.014c1.866,1.866,4.398,2.915,7.037,2.915
			c2.639,0,5.171-1.049,7.037-2.915l87.554-87.555c0.002-0.002,0.003-0.003,0.005-0.005c0.002-0.002,0.003-0.003,0.005-0.005
			l244.125-244.115C413.016,162.289,413.015,137.698,397.909,122.59z M59.187,487.974l-32.94-32.94l73.486-73.484l32.939,32.939
			L59.187,487.974z M383.834,163.335L146.746,400.415l-32.939-32.939l237.09-237.083c3.56-3.562,8.293-5.524,13.329-5.524
			c5.038,0,9.774,1.964,13.338,5.527l6.27,6.269C391.184,144.015,391.183,155.981,383.834,163.335z"/>
	</g>
</g>
<g>
	<g>
		<path d="M355.135,20.324l-10.189-0.091l0.089-10.192c0.047-5.496-4.369-9.991-9.866-10.041c-5.487-0.047-9.992,4.368-10.04,9.864
			l-0.089,10.192l-10.194-0.091c-5.511-0.018-9.992,4.368-10.04,9.864c-0.049,5.496,4.367,9.991,9.864,10.041l10.199,0.091
			l-0.089,10.196c-0.047,5.496,4.371,9.989,9.868,10.036c0.029,0,0.057,0,0.086,0c5.457,0,9.904-4.401,9.95-9.869l0.089-10.186
			l10.184,0.091c0.031,0,0.061,0,0.091,0c5.454,0,9.901-4.398,9.95-9.864C365.047,24.869,360.631,20.373,355.135,20.324z"/>
	</g>
</g>
<g>
	<g>
		<path d="M244.885,72.702l-10.2-0.089l0.089-10.198c0.046-5.496-4.372-9.989-9.869-10.036c-5.475-0.013-9.989,4.373-10.035,9.869
			l-0.089,10.193l-10.189-0.089c-0.029,0-0.057,0-0.086,0c-5.457,0-9.904,4.401-9.95,9.869c-0.046,5.496,4.372,9.989,9.869,10.036
			l10.184,0.089l-0.089,10.193c-0.05,5.497,4.366,9.992,9.863,10.041c0.03,0,0.061,0,0.091,0c5.455,0,9.901-4.398,9.95-9.864
			l0.089-10.198l10.194,0.089c0.031,0,0.061,0,0.091,0c5.454,0,9.901-4.398,9.95-9.864
			C254.797,77.247,250.381,72.752,244.885,72.702z"/>
	</g>
</g>
<g>
	<g>
		<path d="M439.09,250.169l-10.199-0.091l0.089-10.196c0.046-5.497-4.373-9.99-9.869-10.036c-0.029,0-0.057,0-0.086,0
			c-5.457,0-9.904,4.401-9.95,9.869l-0.089,10.186l-10.194-0.091c-0.03,0-0.061,0-0.091,0c-5.455,0-9.901,4.398-9.95,9.864
			c-0.049,5.496,4.367,9.991,9.864,10.041l10.199,0.091l-0.089,10.191c-0.049,5.496,4.367,9.991,9.864,10.041
			c0.03,0,0.061,0,0.091,0c5.455,0,9.901-4.398,9.95-9.864l0.089-10.191l10.194,0.091c0.03,0,0.061,0,0.091,0
			c5.455,0,9.901-4.398,9.95-9.864C449.002,254.714,444.586,250.219,439.09,250.169z"/>
	</g>
</g>
<g>
	<g>
		<path d="M499.912,135.321l-10.194-0.089l0.089-10.188c0.046-5.497-4.372-9.989-9.869-10.036c-0.029,0-0.057,0-0.086,0
			c-5.457,0-9.904,4.401-9.95,9.869l-0.089,10.183l-10.194-0.089c-0.031,0-0.061,0-0.091,0c-5.454,0-9.901,4.398-9.95,9.864
			c-0.049,5.496,4.367,9.991,9.863,10.041l10.2,0.089l-0.089,10.193c-0.049,5.496,4.367,9.991,9.864,10.041c0.03,0,0.061,0,0.091,0
			c5.455,0,9.901-4.398,9.95-9.864l0.089-10.198l10.199,0.089c0.029,0,0.057,0,0.086,0c5.457,0,9.904-4.401,9.95-9.869
			C509.827,139.861,505.409,135.368,499.912,135.321z"/>
	</g>
</g>
<g>
	<g>
		<path d="M214.33,296.435c-3.886-3.885-10.188-3.885-14.074,0l-62.041,62.042c-3.887,3.887-3.887,10.189,0,14.075
			c1.943,1.943,4.49,2.915,7.037,2.915s5.094-0.972,7.037-2.915l62.041-62.042C218.216,306.624,218.216,300.322,214.33,296.435z"/>
	</g>
</g>
<g>
	<g>
		<path d="M230.347,270.135c-12.807,0-12.829,19.904,0,19.904C243.155,290.039,243.176,270.135,230.347,270.135z"/>
	</g>
</g>
<g>
</g>
<g>
</g>
<g>
</g>
<g>
</g>
<g>
</g>
<g>
</g>
<g>
</g>
<g>
</g>
<g>
</g>
<g>
</g>
<g>
</g>
<g>
</g>
<g>
</g>
<g>
</g>
<g>
</g>
</svg>
