<?xml version="1.0" encoding="iso-8859-1"?>
<!-- Generator: Adobe Illustrator 19.0.0, SVG Export Plug-In . SVG Version: 6.00 Build 0)  -->
<svg version="1.1" id="Capa_1" xmlns="http://www.w3.org/2000/svg" xmlns:xlink="http://www.w3.org/1999/xlink" x="0px" y="0px"
	 viewBox="0 0 511.999 511.999" style="enable-background:new 0 0 511.999 511.999;" xml:space="preserve">
<g>
	<g>
		<path d="M437.702,135.032c-2.804-6.802-7.45-12.473-13.397-16.493l3.876-9.135c3.248-7.65,3.321-16.109,0.207-23.819
			c-3.115-7.712-9.046-13.748-16.692-16.991c-3.865-1.643-7.957-2.477-12.16-2.477c-12.527,0-23.776,7.447-28.656,18.966
			l-7.802,18.381c-0.007,0.017-0.016,0.032-0.023,0.049c-0.004,0.01-0.006,0.02-0.01,0.029l-56,131.945h-19.919V129.301
			c9.257-8.604,14.657-20.802,14.657-33.567c0-21.208-30.79-79.091-36.962-90.478C263.065,2.017,259.677,0,255.993,0
			c-3.683,0-7.071,2.017-8.827,5.256c-6.172,11.387-36.962,69.271-36.962,90.478c0,12.761,5.4,24.963,14.657,33.574V235.49H201.66
			L129.596,65.68c-2.166-5.103-8.06-7.487-13.162-5.32L77.601,76.834c-2.451,1.04-4.389,3.011-5.387,5.479s-0.974,5.232,0.066,7.684
			l15.995,37.688c0.002,0.006,0.004,0.011,0.006,0.017c0.002,0.004,0.004,0.007,0.006,0.011l45.742,107.775h-13.093
			c-5.545,0-10.039,4.495-10.039,10.039v224.447c0,23.173,18.847,42.024,42.014,42.024h206.165
			c23.167,0,42.014-18.852,42.014-42.024V245.529c0-5.545-4.495-10.039-10.039-10.039h-16.377l41.429-97.623
			c1.257,1.407,2.295,3.02,3.036,4.819c1.737,4.214,1.715,8.845-0.064,13.037l-19.998,47.123c-2.165,5.104,0.216,10.998,5.32,13.163
			c1.28,0.543,2.609,0.8,3.917,0.8c3.908,0,7.623-2.296,9.246-6.12l19.998-47.126C441.452,154.384,441.503,144.251,437.702,135.032z
			 M255.993,31.723c12.596,24.949,25.71,54.464,25.71,64.011c0,8.172-3.941,15.932-10.547,20.761
			c-4.424,3.238-9.668,4.949-15.163,4.949c-5.493,0-10.739-1.71-15.171-4.944c-6.6-4.837-10.539-12.599-10.539-20.766
			C230.283,86.187,243.397,56.671,255.993,31.723z M267.047,140.18v95.31H244.94v-95.31c3.581,0.886,7.283,1.343,11.053,1.343
			C259.763,141.523,263.466,141.065,267.047,140.18z M94.685,91.397l20.349-8.633l8.159,19.224l-20.347,8.633L94.685,91.397z
			 M110.689,129.103l20.347-8.632l48.813,115.018h-24.008L110.689,129.103z M381.01,255.568v214.408h0.002
			c0,12.101-9.84,21.946-21.936,21.946H152.911c-12.095,0-21.936-9.844-21.936-21.946V255.568h18.172c0.043,0,0.086,0,0.13,0h45.709
			c0.011,0,0.022,0.002,0.033,0.002c0.016,0,0.033-0.002,0.049-0.002H234.9h42.185h36.55c0.016,0,0.033,0.002,0.049,0.002
			c0.011,0,0.022-0.002,0.033-0.002h45.721c0.036,0,0.071,0,0.107,0H381.01z M352.862,235.49h-24.006l48.868-115.142l20.458,8.352
			L352.862,235.49z M409.699,101.561l-3.672,8.654l-20.457-8.352l3.794-8.939c1.731-4.087,5.723-6.727,10.171-6.727
			c1.489,0,2.936,0.294,4.312,0.879c2.716,1.151,4.819,3.293,5.925,6.031C410.876,95.843,410.851,98.845,409.699,101.561z"/>
	</g>
</g>
<g>
	<g>
		<path d="M342.469,352.884c-5.545,0-10.039,4.495-10.039,10.039v88.507c0,5.545,4.495,10.039,10.039,10.039
			s10.039-4.495,10.039-10.039v-88.507C352.508,357.379,348.014,352.884,342.469,352.884z"/>
	</g>
</g>
<g>
	<g>
		<path d="M342.233,319.759c-12.919,0-12.942,20.078,0,20.078C355.153,339.838,355.174,319.759,342.233,319.759z"/>
	</g>
</g>
<g>
</g>
<g>
</g>
<g>
</g>
<g>
</g>
<g>
</g>
<g>
</g>
<g>
</g>
<g>
</g>
<g>
</g>
<g>
</g>
<g>
</g>
<g>
</g>
<g>
</g>
<g>
</g>
<g>
</g>
</svg>
