<?xml version="1.0" encoding="iso-8859-1"?>
<!-- Generator: Adobe Illustrator 19.0.0, SVG Export Plug-In . SVG Version: 6.00 Build 0)  -->
<svg version="1.1" id="Capa_1" xmlns="http://www.w3.org/2000/svg" xmlns:xlink="http://www.w3.org/1999/xlink" x="0px" y="0px"
	 viewBox="0 0 512 512" style="enable-background:new 0 0 512 512;" xml:space="preserve">
<g>
	<g>
		<path d="M417.472,259.875c-0.202-2.719-1.5-5.238-3.597-6.98C329.536,182.845,266.212,8.771,265.449,6.654
			c-0.025-0.071-0.059-0.139-0.086-0.209c-0.07-0.182-0.144-0.362-0.223-0.539c-0.026-0.057-0.047-0.115-0.074-0.172
			c-0.036-0.077-0.078-0.15-0.116-0.225c-0.077-0.154-0.158-0.304-0.243-0.453c-0.034-0.06-0.065-0.122-0.101-0.183
			c-0.053-0.088-0.111-0.173-0.167-0.259c-0.077-0.12-0.156-0.237-0.238-0.353c-0.047-0.066-0.09-0.136-0.139-0.201
			c-0.066-0.09-0.139-0.175-0.208-0.262c-0.075-0.095-0.153-0.189-0.231-0.28c-0.062-0.073-0.122-0.148-0.187-0.22
			c-0.072-0.08-0.149-0.155-0.224-0.232c-0.08-0.083-0.162-0.164-0.244-0.244c-0.077-0.074-0.152-0.151-0.231-0.223
			c-0.071-0.064-0.146-0.123-0.218-0.185c-0.093-0.08-0.189-0.159-0.285-0.235c-0.086-0.068-0.171-0.14-0.259-0.205
			c-0.064-0.047-0.132-0.09-0.197-0.137c-0.118-0.083-0.239-0.165-0.361-0.243c-0.085-0.054-0.168-0.111-0.255-0.165
			c-0.057-0.034-0.116-0.064-0.175-0.097c-0.153-0.088-0.308-0.171-0.467-0.25c-0.073-0.037-0.144-0.078-0.219-0.113
			c-0.053-0.025-0.108-0.045-0.162-0.069c-0.185-0.083-0.372-0.161-0.563-0.233c-0.034-0.013-0.068-0.029-0.102-0.042
			c-0.028-0.01-0.053-0.024-0.081-0.034c-0.001,0-0.002,0-0.002-0.001c-0.051-0.018-0.104-0.03-0.156-0.048
			c-0.184-0.063-0.37-0.119-0.559-0.172c-0.079-0.022-0.158-0.05-0.238-0.07c-0.065-0.016-0.13-0.026-0.196-0.041
			c-0.16-0.036-0.32-0.068-0.483-0.096c-0.095-0.017-0.19-0.039-0.285-0.054c-0.089-0.013-0.179-0.02-0.268-0.03
			c-0.131-0.016-0.261-0.028-0.393-0.038c-0.105-0.009-0.21-0.023-0.316-0.028c-0.11-0.006-0.22-0.003-0.33-0.005
			c-0.057,0-0.112-0.008-0.17-0.008c-0.061,0-0.12,0.008-0.181,0.009c-0.101,0.002-0.201-0.002-0.302,0.003
			c-0.115,0.006-0.228,0.02-0.342,0.029c-0.132,0.011-0.262,0.023-0.392,0.039c-0.082,0.01-0.164,0.015-0.245,0.027
			c-0.103,0.015-0.205,0.039-0.307,0.057c-0.162,0.029-0.322,0.06-0.481,0.097c-0.06,0.014-0.122,0.023-0.182,0.038
			c-0.084,0.021-0.167,0.05-0.251,0.073c-0.186,0.051-0.369,0.106-0.55,0.169c-0.053,0.018-0.107,0.031-0.161,0.049h-0.001
			c-0.014,0.005-0.028,0.012-0.042,0.018c-0.049,0.018-0.095,0.041-0.145,0.06c-0.189,0.072-0.375,0.149-0.559,0.232
			c-0.054,0.024-0.109,0.045-0.163,0.07c-0.075,0.035-0.146,0.076-0.219,0.113c-0.158,0.08-0.314,0.163-0.467,0.251
			c-0.057,0.033-0.116,0.062-0.174,0.096c-0.087,0.052-0.171,0.109-0.256,0.165c-0.123,0.079-0.244,0.161-0.363,0.244
			c-0.064,0.045-0.13,0.087-0.194,0.134c-0.089,0.066-0.174,0.138-0.261,0.206c-0.097,0.077-0.193,0.157-0.287,0.237
			c-0.071,0.06-0.144,0.118-0.214,0.181c-0.08,0.072-0.156,0.15-0.233,0.225c-0.083,0.081-0.166,0.163-0.246,0.246
			c-0.073,0.076-0.149,0.15-0.22,0.228c-0.065,0.072-0.124,0.148-0.188,0.221c-0.079,0.093-0.157,0.187-0.233,0.283
			c-0.068,0.086-0.138,0.17-0.205,0.258c-0.049,0.066-0.092,0.136-0.14,0.202c-0.082,0.116-0.161,0.235-0.238,0.354
			c-0.055,0.086-0.113,0.169-0.166,0.257c-0.036,0.06-0.067,0.122-0.101,0.183c-0.085,0.149-0.166,0.3-0.243,0.453
			c-0.038,0.075-0.08,0.148-0.116,0.225c-0.027,0.056-0.048,0.115-0.074,0.172c-0.08,0.177-0.154,0.356-0.223,0.539
			c-0.027,0.07-0.06,0.138-0.086,0.209c-0.763,2.117-64.085,176.191-148.425,246.241c-2.097,1.742-3.396,4.263-3.597,6.981
			c-0.201,2.719,0.712,5.403,2.53,7.435c18.15,20.288,62.695,76.56,70.401,113.265h-23.177c-5.545,0-10.039,4.495-10.039,10.039
			s4.495,10.039,10.039,10.039h24.325v101.308c0,5.545,4.495,10.039,10.039,10.039h77.352h77.352
			c5.545,0,10.039-4.495,10.039-10.039V400.655h24.325c5.545,0,10.039-4.495,10.039-10.039s-4.495-10.039-10.039-10.039h-23.171
			c7.711-36.679,52.251-92.967,70.4-113.266C416.761,265.278,417.673,262.594,417.472,259.875z M255.998,241.473
			c10.556,0,19.145,8.589,19.145,19.145c0,10.556-8.589,19.145-19.145,19.145c-10.556,0-19.145-8.589-19.145-19.145
			C236.854,250.061,245.442,241.473,255.998,241.473z M323.311,491.922h-67.313h-67.313v-91.266h134.626V491.922z M362.167,302.197
			c-22.005,31.598-34.744,57.893-38.006,78.379H187.837c-3.263-20.486-16.002-46.781-38.006-78.379
			c-12.07-17.333-24.021-32.077-31.167-40.564c34.812-31.647,69.565-81.731,103.414-149.07c9.359-18.62,17.376-36.064,23.881-50.976
			v161.115c-16.779,4.446-29.184,19.757-29.184,37.916c0,21.628,17.596,39.223,39.223,39.223c21.628,0,39.223-17.596,39.223-39.223
			c0-18.158-12.405-33.469-29.184-37.916V61.587c6.505,14.912,14.523,32.356,23.882,50.976
			c33.849,67.339,68.602,117.424,103.414,149.07C386.188,270.119,374.237,284.864,362.167,302.197z"/>
	</g>
</g>
<g>
	<g>
		<path d="M267.772,344.011h-56.679c-5.545,0-10.039,4.495-10.039,10.039c0,5.545,4.495,10.039,10.039,10.039h56.679
			c5.545,0,10.039-4.495,10.039-10.039C277.812,348.505,273.317,344.011,267.772,344.011z"/>
	</g>
</g>
<g>
	<g>
		<path d="M300.897,343.774c-12.919,0-12.941,20.078,0,20.078C313.816,363.852,313.838,343.774,300.897,343.774z"/>
	</g>
</g>
<g>
</g>
<g>
</g>
<g>
</g>
<g>
</g>
<g>
</g>
<g>
</g>
<g>
</g>
<g>
</g>
<g>
</g>
<g>
</g>
<g>
</g>
<g>
</g>
<g>
</g>
<g>
</g>
<g>
</g>
</svg>
