<?xml version="1.0" encoding="iso-8859-1"?>
<!-- Generator: Adobe Illustrator 19.0.0, SVG Export Plug-In . SVG Version: 6.00 Build 0)  -->
<svg version="1.1" id="Capa_1" xmlns="http://www.w3.org/2000/svg" xmlns:xlink="http://www.w3.org/1999/xlink" x="0px" y="0px"
	 viewBox="0 0 512 512" style="enable-background:new 0 0 512 512;" xml:space="preserve">
<g>
	<g>
		<path d="M501.961,0H10.039C4.496,0,0,4.495,0,10.039V256c0,0.005,0,0.01,0,0.016c0.004,2.653,1.038,5.066,2.723,6.859
			c0.001,0.001,0.003,0.003,0.004,0.004c0.002,0.002,0.004,0.004,0.006,0.006c0.067,0.072,0.138,0.144,0.208,0.215l245.961,245.961
			c0.172,0.171,0.348,0.334,0.528,0.492c0.001,0,0.001,0.001,0.002,0.001c0.002,0.002,0.005,0.004,0.008,0.007
			c0.002,0.001,0.003,0.002,0.005,0.004c0.001,0.001,0.003,0.003,0.005,0.004c0.003,0.002,0.005,0.004,0.008,0.007
			c0.001,0,0.002,0.001,0.002,0.001c1.646,1.416,3.756,2.305,6.07,2.412c0.002,0,0.003,0,0.004,0
			c0.157,0.007,0.313,0.011,0.47,0.011c0.026,0,0.052,0,0.078,0l245.879-0.01c5.546,0,10.039-4.495,10.039-10.039V10.039
			C512,4.495,507.504,0,501.961,0z M245.961,477.724L34.277,266.039h211.684V477.724z M491.922,491.913l-225.882,0.009V256
			c0-5.545-4.496-10.039-10.039-10.039H20.078V20.078h471.843V491.913z"/>
	</g>
</g>
<g>
	<g>
		<path d="M459.796,362.568c-5.544,0-10.039,4.495-10.039,10.039v88.507c0,5.545,4.496,10.039,10.039,10.039
			c5.544,0,10.039-4.495,10.039-10.039v-88.507C469.835,367.063,465.34,362.568,459.796,362.568z"/>
	</g>
</g>
<g>
	<g>
		<path d="M459.559,329.443c-12.919,0-12.941,20.078,0,20.078C472.479,349.521,472.501,329.443,459.559,329.443z"/>
	</g>
</g>
<g>
</g>
<g>
</g>
<g>
</g>
<g>
</g>
<g>
</g>
<g>
</g>
<g>
</g>
<g>
</g>
<g>
</g>
<g>
</g>
<g>
</g>
<g>
</g>
<g>
</g>
<g>
</g>
<g>
</g>
</svg>
