<?xml version="1.0" encoding="iso-8859-1"?>
<!-- Generator: Adobe Illustrator 19.0.0, SVG Export Plug-In . SVG Version: 6.00 Build 0)  -->
<svg version="1.1" id="Capa_1" xmlns="http://www.w3.org/2000/svg" xmlns:xlink="http://www.w3.org/1999/xlink" x="0px" y="0px"
	 viewBox="0 0 512 512" style="enable-background:new 0 0 512 512;" xml:space="preserve">
<g>
	<g>
		<path d="M488.264,497.814L265.143,5.892C263.516,2.304,259.941,0,256,0s-7.515,2.304-9.143,5.892L23.736,497.814
			c-1.409,3.107-1.144,6.718,0.705,9.585c1.848,2.867,5.027,4.601,8.438,4.601h446.243c3.411,0,6.59-1.733,8.438-4.601
			C489.409,504.531,489.673,500.921,488.264,497.814z M48.456,491.922L256,34.343l207.544,457.578H48.456z"/>
	</g>
</g>
<g>
	<g>
		<path d="M423.729,446.657l-36.162-80.782c-2.265-5.061-8.203-7.327-13.265-5.062c-5.061,2.266-7.327,8.204-5.061,13.265
			l36.162,80.782c1.669,3.729,5.332,5.94,9.169,5.94c1.37,0,2.764-0.282,4.096-0.878
			C423.729,457.656,425.995,451.718,423.729,446.657z"/>
	</g>
</g>
<g>
	<g>
		<path d="M364.654,329.8c-12.919,0-12.941,20.078,0,20.078C377.573,349.879,377.594,329.8,364.654,329.8z"/>
	</g>
</g>
<g>
</g>
<g>
</g>
<g>
</g>
<g>
</g>
<g>
</g>
<g>
</g>
<g>
</g>
<g>
</g>
<g>
</g>
<g>
</g>
<g>
</g>
<g>
</g>
<g>
</g>
<g>
</g>
<g>
</g>
</svg>
