<?xml version="1.0" encoding="iso-8859-1"?>
<!-- Generator: Adobe Illustrator 19.0.0, SVG Export Plug-In . SVG Version: 6.00 Build 0)  -->
<svg version="1.1" id="Capa_1" xmlns="http://www.w3.org/2000/svg" xmlns:xlink="http://www.w3.org/1999/xlink" x="0px" y="0px"
	 viewBox="0 0 512 512" style="enable-background:new 0 0 512 512;" xml:space="preserve">
<g>
	<g>
		<path d="M328.282,173.176h-75.304c-5.544,0-10.039,4.495-10.039,10.039v75.294c0,5.545,4.496,10.039,10.039,10.039h75.304
			c5.544,0,10.039-4.495,10.039-10.039v-75.294C338.322,177.671,333.826,173.176,328.282,173.176z M318.243,248.471h-55.226v-55.216
			h55.226V248.471z"/>
	</g>
</g>
<g>
	<g>
		<path d="M461.302,0H50.698C22.743,0,0,22.739,0,50.688v410.614C0,489.257,22.743,512,50.698,512h410.604
			C489.257,512,512,489.257,512,461.302V50.688C512,22.739,489.257,0,461.302,0z M192.743,491.922H50.698
			c-16.883,0-30.62-13.736-30.62-30.62V143.059h172.664V491.922z M491.922,461.302c0,16.884-13.737,30.62-30.62,30.62H212.821
			V143.059h279.1V461.302z M491.922,122.98H20.078V50.688c0-16.878,13.737-30.61,30.62-30.61h410.604
			c16.883,0,30.62,13.732,30.62,30.61V122.98z"/>
	</g>
</g>
<g>
	<g>
		<path d="M455.553,325.867c-5.544,0-10.039,4.495-10.039,10.039v88.507c0,5.545,4.496,10.039,10.039,10.039
			s10.039-4.495,10.039-10.039v-88.507C465.592,330.362,461.097,325.867,455.553,325.867z"/>
	</g>
</g>
<g>
	<g>
		<path d="M455.316,292.742c-12.919,0-12.941,20.078,0,20.078C468.235,312.82,468.256,292.742,455.316,292.742z"/>
	</g>
</g>
<g>
</g>
<g>
</g>
<g>
</g>
<g>
</g>
<g>
</g>
<g>
</g>
<g>
</g>
<g>
</g>
<g>
</g>
<g>
</g>
<g>
</g>
<g>
</g>
<g>
</g>
<g>
</g>
<g>
</g>
</svg>
