<?xml version="1.0" encoding="iso-8859-1"?>
<!-- Generator: Adobe Illustrator 19.0.0, SVG Export Plug-In . SVG Version: 6.00 Build 0)  -->
<svg version="1.1" id="Capa_1" xmlns="http://www.w3.org/2000/svg" xmlns:xlink="http://www.w3.org/1999/xlink" x="0px" y="0px"
	 viewBox="0 0 512 512" style="enable-background:new 0 0 512 512;" xml:space="preserve">
<g>
	<g>
		<path d="M501.961,0.001H10.042c-5.545,0-10.039,4.495-10.039,10.039v245.888c0,0.023-0.003,0.045-0.003,0.068v11.545
			c0,0.023,0.003,0.045,0.003,0.068v38.793c0,0.023-0.003,0.045-0.003,0.068v22.384c0,0.023,0.003,0.045,0.003,0.068v38.793
			c0,0.023-0.003,0.045-0.003,0.068v22.384c0,0.023,0.003,0.045,0.003,0.068v38.793c0,0.023-0.003,0.045-0.003,0.068v22.384
			c0,0.023,0.003,0.045,0.003,0.068v38.793c0,0.023-0.003,0.045-0.003,0.068v11.545c-0.001,2.77,1.123,5.28,2.942,7.097
			c1.817,1.818,4.327,2.943,7.101,2.943h491.919c5.544,0,10.039-4.495,10.039-10.039V10.041C512,4.496,507.504,0.001,501.961,0.001z
			 M491.921,491.92H266.037v-1.509c0-5.545-4.495-10.039-10.039-10.039c-5.545,0-10.039,4.495-10.039,10.039v1.506h-1.506
			c-0.023,0-0.045,0.003-0.068,0.003h-38.792c-0.023,0-0.045-0.003-0.068-0.003h-22.384c-0.023,0-0.045,0.003-0.068,0.003h-38.793
			c-0.023,0-0.045-0.003-0.068-0.003h-22.384c-0.023,0-0.045,0.003-0.068,0.003H82.965c-0.023,0-0.045-0.003-0.068-0.003H60.513
			c-0.023,0-0.045,0.003-0.068,0.003H21.651c-0.023,0-0.045-0.003-0.068-0.003H20.08V266.036h1.503
			c5.545,0,10.039-4.495,10.039-10.039c0-5.545-4.495-10.039-10.039-10.039H20.08V20.08h471.84V491.92z"/>
	</g>
</g>
<g>
	<g>
		<path d="M82.896,245.957H60.512c-5.545,0-10.039,4.495-10.039,10.039c0,5.545,4.495,10.039,10.039,10.039h22.384
			c5.545,0,10.039-4.495,10.039-10.039C92.936,250.451,88.441,245.957,82.896,245.957z"/>
	</g>
</g>
<g>
	<g>
		<path d="M205.524,245.957h-22.384c-5.545,0-10.039,4.495-10.039,10.039c0,5.545,4.495,10.039,10.039,10.039h22.384
			c5.545,0,10.039-4.495,10.039-10.039C215.563,250.451,211.068,245.957,205.524,245.957z"/>
	</g>
</g>
<g>
	<g>
		<path d="M144.21,245.957h-22.384c-5.545,0-10.039,4.495-10.039,10.039c0,5.545,4.495,10.039,10.039,10.039h22.384
			c5.545,0,10.039-4.495,10.039-10.039C154.25,250.451,149.755,245.957,144.21,245.957z"/>
	</g>
</g>
<g>
	<g>
		<path d="M255.997,245.957h-11.545c-5.545,0-10.039,4.495-10.039,10.039c0,5.545,4.495,10.039,10.039,10.039h1.506v1.506
			c0,5.545,4.495,10.039,10.039,10.039c5.545,0,10.039-4.495,10.039-10.039v-11.545
			C266.037,250.451,261.542,245.957,255.997,245.957z"/>
	</g>
</g>
<g>
	<g>
		<path d="M255.997,296.431c-5.545,0-10.039,4.495-10.039,10.039v22.384c0,5.545,4.495,10.039,10.039,10.039
			c5.545,0,10.039-4.495,10.039-10.039V306.47C266.037,300.925,261.542,296.431,255.997,296.431z"/>
	</g>
</g>
<g>
	<g>
		<path d="M255.997,357.744c-5.545,0-10.039,4.495-10.039,10.039v22.384c0,5.545,4.495,10.039,10.039,10.039
			c5.545,0,10.039-4.495,10.039-10.039v-22.384C266.037,362.238,261.542,357.744,255.997,357.744z"/>
	</g>
</g>
<g>
	<g>
		<path d="M255.997,419.058c-5.545,0-10.039,4.495-10.039,10.039v22.384c0,5.545,4.495,10.039,10.039,10.039
			c5.545,0,10.039-4.495,10.039-10.039v-22.384C266.037,423.553,261.542,419.058,255.997,419.058z"/>
	</g>
</g>
<g>
	<g>
		<path d="M454.776,93.37c-5.544,0-10.039,4.495-10.039,10.039v88.506c0,5.545,4.495,10.039,10.039,10.039
			s10.039-4.495,10.039-10.039v-88.506C464.815,97.864,460.319,93.37,454.776,93.37z"/>
	</g>
</g>
<g>
	<g>
		<path d="M454.54,60.244c-12.919,0-12.941,20.078,0,20.078C467.459,80.323,467.48,60.244,454.54,60.244z"/>
	</g>
</g>
<g>
</g>
<g>
</g>
<g>
</g>
<g>
</g>
<g>
</g>
<g>
</g>
<g>
</g>
<g>
</g>
<g>
</g>
<g>
</g>
<g>
</g>
<g>
</g>
<g>
</g>
<g>
</g>
<g>
</g>
</svg>
