<?xml version="1.0" encoding="iso-8859-1"?>
<!-- Generator: Adobe Illustrator 19.0.0, SVG Export Plug-In . SVG Version: 6.00 Build 0)  -->
<svg version="1.1" id="Capa_1" xmlns="http://www.w3.org/2000/svg" xmlns:xlink="http://www.w3.org/1999/xlink" x="0px" y="0px"
	 viewBox="0 0 512 512" style="enable-background:new 0 0 512 512;" xml:space="preserve">
<g>
	<g>
		<path d="M507.231,247.456l-104.789-64.632c-3.095-1.91-6.985-1.995-10.163-0.222c-3.177,1.774-5.146,5.127-5.146,8.766v54.593
			h-22.377c-5.545,0-10.039,4.495-10.039,10.039c0,5.545,4.495,10.039,10.039,10.039h22.377v54.593c0,3.639,1.969,6.992,5.146,8.766
			c1.523,0.85,3.209,1.273,4.892,1.273c1.83,0,3.658-0.5,5.271-1.495l104.789-64.633c2.965-1.828,4.769-5.062,4.769-8.544
			S510.195,249.284,507.231,247.456z M407.211,302.646v-93.29L482.837,256L407.211,302.646z"/>
	</g>
</g>
<g>
	<g>
		<path d="M320.633,387.133h-54.593V266.04h32.457c5.545,0,10.039-4.495,10.039-10.039s-4.495-10.039-10.039-10.039h-32.457V124.868
			h54.593c3.639,0,6.992-1.969,8.766-5.146s1.689-7.066-0.222-10.163L264.544,4.769C262.716,1.806,259.483,0,256,0
			s-6.716,1.805-8.544,4.769l-64.632,104.789c-1.91,3.097-1.995,6.985-0.222,10.163c1.773,3.177,5.127,5.146,8.766,5.146h54.593
			v121.094H124.868v-54.593c0-3.639-1.969-6.992-5.146-8.766s-7.067-1.689-10.163,0.222L4.769,247.456
			C1.805,249.284,0,252.518,0,256s1.805,6.716,4.769,8.544l104.789,64.633c1.612,0.995,3.44,1.495,5.271,1.495
			c1.684,0,3.369-0.423,4.892-1.273c3.177-1.774,5.146-5.127,5.146-8.766V266.04h121.094v121.093h-54.593
			c-3.639,0-6.992,1.969-8.766,5.146s-1.689,7.066,0.222,10.163l64.632,104.789c1.828,2.965,5.062,4.769,8.544,4.769
			s6.716-1.805,8.544-4.769l64.633-104.789c1.91-3.097,1.995-6.985,0.222-10.163C327.626,389.101,324.272,387.133,320.633,387.133z
			 M104.789,302.646L29.163,256l75.626-46.645C104.789,209.355,104.789,302.646,104.789,302.646z M209.355,104.79L256,29.163
			l46.645,75.626H209.355z M256,482.838l-46.645-75.626h93.29L256,482.838z"/>
	</g>
</g>
<g>
	<g>
		<path d="M332.632,245.961c-12.919,0-12.941,20.078,0,20.078C345.552,266.04,345.574,245.961,332.632,245.961z"/>
	</g>
</g>
<g>
</g>
<g>
</g>
<g>
</g>
<g>
</g>
<g>
</g>
<g>
</g>
<g>
</g>
<g>
</g>
<g>
</g>
<g>
</g>
<g>
</g>
<g>
</g>
<g>
</g>
<g>
</g>
<g>
</g>
</svg>
