<?xml version="1.0" encoding="iso-8859-1"?>
<!-- Generator: Adobe Illustrator 19.0.0, SVG Export Plug-In . SVG Version: 6.00 Build 0)  -->
<svg version="1.1" id="Capa_1" xmlns="http://www.w3.org/2000/svg" xmlns:xlink="http://www.w3.org/1999/xlink" x="0px" y="0px"
	 viewBox="0 0 512 512" style="enable-background:new 0 0 512 512;" xml:space="preserve">
<g>
	<g>
		<path d="M511.997,51.045c0-13.634-5.311-26.454-14.953-36.095C487.401,5.31,474.583,0,460.951,0s-26.449,5.31-36.092,14.951
			l-37.538,37.548l-14.463-14.463c-1.994-1.993-4.697-3.113-7.517-3.113s-5.523,1.12-7.516,3.114l-49.444,49.455
			c-4.151,4.151-4.149,10.88,0,15.031l14.454,14.454L42.398,397.411c-12.203,12.204-17.289,29.299-14.001,45.897L3.117,468.58
			c-4.152,4.149-4.153,10.879-0.002,15.031l25.263,25.275c1.993,1.994,4.697,3.114,7.517,3.114c0,0,0,0,0.001,0
			c2.819,0,5.523-1.12,7.516-3.113l25.283-25.282c16.588,3.287,33.689-1.804,45.898-14.012l280.436-280.425l14.465,14.465
			c1.993,1.993,4.697,3.113,7.517,3.113s5.523-1.12,7.516-3.114l49.444-49.455c4.151-4.151,4.149-10.879,0-15.031l-14.465-14.465
			l37.539-37.539C506.686,77.498,511.997,64.679,511.997,51.045z M99.56,454.562c-8.076,8.077-19.822,10.814-30.652,7.142
			c-3.83-1.298-8.066-0.309-10.926,2.551l-22.084,22.083L25.663,476.1l22.083-22.076c2.861-2.86,3.851-7.097,2.552-10.928
			c-3.672-10.836-0.94-22.582,7.132-30.652l280.436-280.436l42.13,42.13L99.56,454.562z M417.006,181.085l-14.458-14.458
			c-0.002-0.002-0.003-0.003-0.005-0.005l-57.161-57.161l-14.455-14.455l34.416-34.422l86.078,86.079L417.006,181.085z
			 M482.011,72.111l-37.538,37.539l-42.12-42.12l37.539-37.548c5.626-5.626,13.105-8.725,21.06-8.725s15.434,3.099,21.06,8.725
			c5.628,5.627,8.727,13.108,8.727,21.064S487.639,66.483,482.011,72.111z"/>
	</g>
</g>
<g>
	<g>
		<path d="M135.725,389.395c-4.15-4.151-10.881-4.151-15.032,0l-38.176,38.176c-4.15,4.15-4.15,10.881,0,15.032
			c2.077,2.076,4.797,3.113,7.517,3.113c2.72,0,5.441-1.037,7.516-3.113l38.176-38.176
			C139.876,400.277,139.876,393.547,135.725,389.395z"/>
	</g>
</g>
<g>
	<g>
		<path d="M152.832,361.308c-13.678,0-13.701,21.257,0,21.257C166.51,382.565,166.532,361.308,152.832,361.308z"/>
	</g>
</g>
<g>
</g>
<g>
</g>
<g>
</g>
<g>
</g>
<g>
</g>
<g>
</g>
<g>
</g>
<g>
</g>
<g>
</g>
<g>
</g>
<g>
</g>
<g>
</g>
<g>
</g>
<g>
</g>
<g>
</g>
</svg>
