<?xml version="1.0" encoding="iso-8859-1"?>
<!-- Generator: Adobe Illustrator 19.0.0, SVG Export Plug-In . SVG Version: 6.00 Build 0)  -->
<svg version="1.1" id="Capa_1" xmlns="http://www.w3.org/2000/svg" xmlns:xlink="http://www.w3.org/1999/xlink" x="0px" y="0px"
	 viewBox="0 0 512 512" style="enable-background:new 0 0 512 512;" xml:space="preserve">
<g>
	<g>
		<path d="M274.974,245.961h-8.935v-8.935c0-5.545-4.496-10.039-10.039-10.039c-5.545,0-10.039,4.495-10.039,10.039v8.935h-8.935
			c-5.545,0-10.039,4.495-10.039,10.039c0,5.545,4.495,10.039,10.039,10.039h8.935v8.935c0,5.545,4.495,10.039,10.039,10.039
			c5.544,0,10.039-4.495,10.039-10.039v-8.935h8.935c5.544,0,10.039-4.495,10.039-10.039S280.518,245.961,274.974,245.961z"/>
	</g>
</g>
<g>
	<g>
		<path d="M484.232,76.499C499.543,76.499,512,64.046,512,48.74V27.758C512,12.453,499.543,0,484.232,0H463.25
			c-15.306,0-27.758,12.453-27.758,27.758v0.452h-45.387c-5.544,0-10.039,4.495-10.039,10.039c0,5.545,4.496,10.039,10.039,10.039
			h45.387v0.452c0,15.307,12.453,27.758,27.758,27.758h0.451v169.462h-8.934c-5.544,0-10.039,4.495-10.039,10.039
			c0,5.545,4.496,10.039,10.039,10.039h8.934v169.452h-0.451c-15.306,0-27.758,12.453-27.758,27.758v0.452H266.039v-8.935
			c0-5.545-4.496-10.039-10.039-10.039c-5.545,0-10.039,4.495-10.039,10.039v8.935H76.499v-0.452
			c0-15.306-12.453-27.758-27.758-27.758h-0.452V266.039h8.935c5.545,0,10.039-4.495,10.039-10.039s-4.495-10.039-10.039-10.039
			h-8.935V76.499h0.452c15.307,0,27.758-12.453,27.758-27.758v-0.452h169.462v8.935c0,5.545,4.495,10.039,10.039,10.039
			c5.544,0,10.039-4.495,10.039-10.039v-8.935h53.298c5.544,0,10.039-4.495,10.039-10.039c0-5.545-4.496-10.039-10.039-10.039
			h-53.298v-8.935c0-5.545-4.496-10.039-10.039-10.039c-5.545,0-10.039,4.495-10.039,10.039v8.935H76.499v-0.452
			C76.499,12.453,64.046,0,48.74,0H27.758C12.453,0,0,12.453,0,27.758V48.74c0,15.306,12.453,27.758,27.758,27.758h0.452v169.462
			h-8.935c-5.545,0-10.039,4.495-10.039,10.039c0,5.545,4.495,10.039,10.039,10.039h8.935v169.452h-0.452
			C12.453,435.491,0,447.944,0,463.25v20.982C0,499.543,12.453,512,27.758,512H48.74c15.307,0,27.758-12.457,27.758-27.768v-0.452
			h169.462v8.935c0,5.545,4.495,10.039,10.039,10.039c5.544,0,10.039-4.495,10.039-10.039v-8.935h169.452v0.452
			c0,15.312,12.453,27.768,27.758,27.768h20.981c15.312,0,27.768-12.457,27.768-27.768V463.25c0-15.306-12.457-27.758-27.768-27.758
			h-0.452V266.039h8.935c5.544,0,10.039-4.495,10.039-10.039s-4.496-10.039-10.039-10.039h-8.935V76.499H484.232z M27.758,56.42
			c-4.235,0-7.68-3.445-7.68-7.68V27.758c0-4.235,3.445-7.68,7.68-7.68H48.74c4.234,0,7.68,3.445,7.68,7.68V48.74
			c0,4.234-3.445,7.68-7.68,7.68H27.758z M56.42,484.232c0,4.241-3.445,7.69-7.68,7.69H27.758c-4.235,0-7.68-3.45-7.68-7.69V463.25
			c0-4.234,3.445-7.68,7.68-7.68H48.74c4.234,0,7.68,3.445,7.68,7.68V484.232z M484.231,455.57c4.241,0,7.691,3.445,7.691,7.68
			v20.982c0,4.241-3.45,7.69-7.69,7.69H463.25c-4.236,0-7.68-3.45-7.68-7.69V463.25c0-4.234,3.445-7.68,7.68-7.68H484.231z
			 M463.25,56.42c-4.235,0-7.68-3.445-7.68-7.68V27.758c0-4.235,3.445-7.68,7.68-7.68h20.981c4.241,0,7.69,3.445,7.69,7.68V48.74
			c0,4.234-3.451,7.68-7.69,7.68H463.25z"/>
	</g>
</g>
<g>
	<g>
		<path d="M353.969,28.21c-12.919,0-12.941,20.078,0,20.078C366.888,48.289,366.909,28.21,353.969,28.21z"/>
	</g>
</g>
<g>
</g>
<g>
</g>
<g>
</g>
<g>
</g>
<g>
</g>
<g>
</g>
<g>
</g>
<g>
</g>
<g>
</g>
<g>
</g>
<g>
</g>
<g>
</g>
<g>
</g>
<g>
</g>
<g>
</g>
</svg>
