<svg height="512pt" viewBox="-121 0 512 512.001" width="512pt" xmlns="http://www.w3.org/2000/svg"><path d="m11.476562 259.394531 11.667969 245.460938c.1875 4 3.488281 7.144531 7.492188 7.144531h209.484375c4.003906 0 7.300781-3.144531 7.492187-7.144531l11.667969-245.460938c6.675781-2.394531 11.472656-8.773437 11.472656-16.261719v-29.980468c0-9.53125-7.753906-17.289063-17.289062-17.289063h-95.039063l4.113281-4.109375c3.050782-3.074218 3.042969-8.0625-.019531-11.125l-71.195312-71.191406c-3.085938-3.085938-8.078125-3.085938-11.167969 0l-16.757812 16.757812c-3.128907 3.132813-3.039063 8.144532 0 11.167969l58.5 58.5h-36.324219c-4.144531 0-7.5 3.359375-7.5 7.5 0 4.144531 3.355469 7.5 7.5 7.5h167.890625c1.265625 0 2.292968 1.027344 2.292968 2.292969v29.976562c0 1.261719-1.027343 2.289063-2.292968 2.289063h-236.175782c-1.261718 0-2.289062-1.027344-2.289062-2.289063v-29.976562c0-1.265625 1.027344-2.292969 2.289062-2.292969h33.285157c4.144531 0 7.5-3.355469 7.5-7.5 0-4.140625-3.355469-7.5-7.5-7.5h-33.285157c-9.53125 0-17.289062 7.757813-17.289062 17.292969v29.976562c0 7.488282 4.796875 13.867188 11.476562 16.261719zm128.6875-66.480469-36.695312-36.699218 6.710938-6.710938 36.695312 36.695313zm-54.421874-67.847656 13.832031 13.832032-6.714844 6.710937-13.828125-13.832031zm147.226562 371.933594h-195.179688l-11.246093-236.578125h217.671875zm0 0"/><path d="m145.214844 278.304688h-15.453125c-10.015625 0-18.167969 8.152343-18.167969 18.167968v96.671875c0 4.140625 3.359375 7.5 7.5 7.5 4.144531 0 7.5-3.359375 7.5-7.5v-96.671875c0-1.746094 1.421875-3.167968 3.167969-3.167968h15.453125c1.746094 0 3.167968 1.421874 3.167968 3.167968v156.597656c0 1.75-1.421874 3.167969-3.167968 3.167969h-15.453125c-1.746094 0-3.167969-1.417969-3.167969-3.167969v-24.925781c0-4.144531-3.355469-7.5-7.5-7.5-4.140625 0-7.5 3.355469-7.5 7.5v24.925781c0 10.019532 8.152344 18.167969 18.167969 18.167969h15.453125c10.015625 0 18.167968-8.148437 18.167968-18.167969v-156.597656c0-10.015625-8.152343-18.167968-18.167968-18.167968zm0 0"/><path d="m75.867188 278.027344-15.4375.757812c-9.917969.492188-17.660157 8.960938-17.257813 18.882813l6.324219 156.4375c.398437 9.832031 8.488281 17.4375 18.132812 17.4375.65625 0-.410156.042969 16.355469-.785157 8.726563 0 17.6875-8.210937 17.257813-18.878906l-6.324219-156.441406c-.402344-9.929688-8.769531-17.890625-19.050781-17.410156zm7.375 177.746094c-16.636719.824218-16.417969 1.140624-17.730469-.0625-1.480469-1.359376-.601563 8.371093-7.351563-158.648438-.070312-1.730469 1.277344-3.207031 3.007813-3.292969 16.96875-.835937 16.429687-1.125 17.734375.066407 1.476562 1.351562.597656-8.375 7.351562 158.644531.070313 1.730469-1.277344 3.210937-3.011718 3.292969zm0 0"/><path d="m214.546875 278.785156-15.4375-.757812c-10.1875-.484375-18.644531 7.394531-19.050781 17.410156l-6.324219 156.4375c-.433594 10.695312 8.566406 18.882812 17.257813 18.882812 16.574218.816407 15.699218.785157 16.355468.785157 9.664063 0 17.734375-7.625 18.132813-17.4375l6.324219-156.4375c.402343-9.921875-7.339844-18.390625-17.257813-18.882813zm-4.054687 174.714844c-.070313 1.746094-1.558594 3.132812-3.320313 3.035156l-15.441406-.761718c-1.726563-.082032-3.078125-1.5625-3.007813-3.292969 6.75-166.984375 5.902344-157.324219 7.351563-158.644531 1.320312-1.207032 1.054687-.886719 17.734375-.066407 1.730468.085938 3.078125 1.5625 3.007812 3.292969zm0 0"/><path d="m20.535156 121.8125c3.089844 3.109375 8.097656 3.105469 11.1875.019531l71.191406-71.191406c3.070313-3.074219 3.070313-8.070313 0-11.140625l-16.804687-16.808594c-3.074219-3.050781-8.0625-3.042968-11.121094.019532-73.089843 73.089843-62.226562 62.226562-71.175781 71.175781-3.105469 3.085937-3.113281 8.09375-.019531 11.1875zm60.023438-83.457031 6.714844 6.710937-36.699219 36.695313-6.710938-6.710938zm-47.304688 47.304687 6.714844 6.710938-13.832031 13.832031-6.710938-6.714844zm0 0"/><path d="m167.84375 158.886719 16.804688 16.804687c3.0625 3.042969 8.050781 3.054688 11.121093-.019531l71.175781-71.175781c3.105469-3.082032 3.113282-8.089844.019532-11.1875l-16.742188-16.738282c-3.089844-3.109374-8.097656-3.105468-11.1875-.019531l-71.191406 71.195313c-3.078125 3.078125-3.082031 8.0625 0 11.140625zm76.777344-66.703125 6.710937 6.710937-13.828125 13.832031-6.714844-6.710937zm-24.4375 24.4375 6.710937 6.710937-36.695312 36.695313-6.710938-6.710938zm0 0"/><path d="m150.972656 116.457031h23.699219c4.351563 0 7.894531-3.542969 7.894531-7.898437v-51.703125c0-4.140625-3.355468-7.5-7.5-7.5-4.140625 0-7.5 3.359375-7.5 7.5v10.039062h-9.492187v-51.894531h9.492187v6.855469c0 4.144531 3.359375 7.5 7.5 7.5 4.144532 0 7.5-3.355469 7.5-7.5v-13.980469c0-4.34375-3.53125-7.875-7.875-7.875h-23.742187c-4.34375 0-7.875 3.53125-7.875 7.875v100.683594c0 4.355468 3.542969 7.898437 7.898437 7.898437zm16.59375-34.5625v19.5625h-9.492187v-19.5625zm0 0"/></svg>