<?xml version="1.0" encoding="UTF-8"?>
<svg enable-background="new 0 0 511.999 511.999" version="1.1" viewBox="0 0 512 512" xml:space="preserve" xmlns="http://www.w3.org/2000/svg" xmlns:cc="http://creativecommons.org/ns#" xmlns:dc="http://purl.org/dc/elements/1.1/" xmlns:rdf="http://www.w3.org/1999/02/22-rdf-syntax-ns#"><metadata><rdf:RDF><cc:Work rdf:about=""><dc:format>image/svg+xml</dc:format><dc:type rdf:resource="http://purl.org/dc/dcmitype/StillImage"/><dc:title/></cc:Work></rdf:RDF></metadata>


























<g transform="rotate(90 256 256)">
	
		<path d="m200.91 97.163c-2.425-1.903-5.592-2.587-8.584-1.854l-184.67 45.176c-0.077 0.019-0.149 0.047-0.225 0.067-0.205 0.055-0.408 0.113-0.607 0.182-0.127 0.043-0.25 0.089-0.374 0.137-0.179 0.068-0.355 0.141-0.529 0.219-0.141 0.063-0.278 0.131-0.416 0.2-0.147 0.074-0.291 0.151-0.434 0.232-0.152 0.086-0.3 0.178-0.447 0.271-0.12 0.077-0.24 0.157-0.357 0.24-0.153 0.107-0.3 0.218-0.446 0.333-0.106 0.084-0.211 0.17-0.313 0.258-0.142 0.122-0.278 0.246-0.412 0.375-0.101 0.097-0.201 0.197-0.298 0.298-0.121 0.126-0.239 0.256-0.353 0.388-0.1 0.116-0.198 0.235-0.293 0.355-0.099 0.126-0.196 0.255-0.288 0.385-0.097 0.138-0.192 0.277-0.282 0.419-0.079 0.123-0.155 0.249-0.228 0.375-0.09 0.156-0.176 0.313-0.257 0.473-0.064 0.125-0.125 0.252-0.184 0.38-0.075 0.164-0.146 0.329-0.212 0.499-0.054 0.138-0.104 0.277-0.153 0.417-0.055 0.161-0.106 0.322-0.154 0.486-0.046 0.162-0.087 0.324-0.125 0.488-0.034 0.147-0.066 0.293-0.093 0.441-0.035 0.191-0.063 0.383-0.088 0.575-0.016 0.129-0.032 0.258-0.043 0.388-0.018 0.212-0.027 0.426-0.032 0.64 1e-3 0.078-9e-3 0.153-9e-3 0.23v300.22c0 0.048 7e-3 0.095 7e-3 0.144 3e-3 0.2 0.015 0.401 0.031 0.602 0.011 0.151 0.022 0.3 0.04 0.449 0.019 0.16 0.046 0.319 0.073 0.48 0.031 0.188 0.065 0.374 0.107 0.558 0.012 0.051 0.017 0.102 0.029 0.154 0.025 0.101 0.059 0.198 0.086 0.297 0.041 0.147 0.08 0.294 0.128 0.439 0.054 0.166 0.116 0.326 0.179 0.488 0.047 0.122 0.089 0.245 0.141 0.363 0.245 0.57 0.54 1.109 0.877 1.612 0.03 0.045 0.064 0.088 0.095 0.133 0.144 0.207 0.293 0.408 0.45 0.602 0.052 0.064 0.107 0.127 0.162 0.19 0.143 0.168 0.29 0.33 0.443 0.487 0.069 0.07 0.139 0.14 0.21 0.208 0.146 0.141 0.295 0.277 0.45 0.409 0.082 0.071 0.165 0.142 0.249 0.21 0.152 0.121 0.307 0.236 0.465 0.348 0.091 0.065 0.182 0.133 0.275 0.196 0.181 0.12 0.367 0.23 0.556 0.337 0.137 0.078 0.275 0.154 0.416 0.226 0.191 0.097 0.382 0.194 0.579 0.279 0.117 0.051 0.239 0.094 0.359 0.142 0.166 0.064 0.331 0.128 0.501 0.184 0.12 0.039 0.24 0.073 0.36 0.108 0.186 0.053 0.373 0.101 0.563 0.145 0.105 0.024 0.211 0.047 0.318 0.068 0.235 0.045 0.473 0.08 0.712 0.108 0.067 8e-3 0.133 0.019 0.2 0.025 0.32 0.031 0.643 0.052 0.969 0.052 0.071 0 0.145-0.011 0.216-0.013 0.304-6e-3 0.605-0.021 0.901-0.054 0.103-0.011 0.207-0.032 0.31-0.047 0.283-0.04 0.563-0.089 0.838-0.153 0.042-0.01 0.085-0.013 0.128-0.023l184.67-45.187c4.494-1.099 7.653-5.126 7.653-9.751v-300.21c1e-3 -3.082-1.415-5.995-3.84-7.897zm-16.236 300.23-164.59 40.273v-279.55l164.59-40.264z"/>
	

	
		<path d="m511.99 150.01c-3e-3 -0.215-0.012-0.429-0.031-0.641-0.011-0.13-0.027-0.258-0.043-0.386-0.024-0.194-0.052-0.387-0.088-0.577-0.027-0.149-0.059-0.294-0.093-0.44-0.038-0.164-0.079-0.326-0.125-0.488-0.047-0.164-0.098-0.325-0.154-0.486-0.048-0.141-0.098-0.279-0.153-0.417-0.066-0.169-0.138-0.334-0.212-0.499-0.058-0.129-0.12-0.255-0.184-0.38-0.081-0.161-0.168-0.318-0.257-0.473-0.073-0.128-0.15-0.252-0.228-0.375-0.091-0.143-0.185-0.282-0.282-0.419-0.093-0.13-0.189-0.259-0.288-0.385-0.095-0.12-0.192-0.239-0.293-0.355-0.115-0.133-0.232-0.262-0.353-0.388-0.097-0.101-0.197-0.201-0.298-0.298-0.134-0.129-0.271-0.253-0.412-0.374-0.102-0.088-0.207-0.174-0.313-0.257-0.146-0.115-0.294-0.227-0.447-0.334-0.117-0.082-0.236-0.162-0.356-0.239-0.147-0.094-0.294-0.185-0.447-0.271-0.143-0.081-0.287-0.158-0.434-0.232-0.137-0.069-0.274-0.137-0.416-0.2-0.174-0.078-0.35-0.15-0.529-0.219-0.123-0.047-0.248-0.094-0.374-0.137-0.2-0.067-0.403-0.126-0.607-0.182-0.076-0.02-0.148-0.048-0.225-0.067l-184.67-45.177c-2.993-0.734-6.16-0.049-8.583 1.854-2.425 1.903-3.841 4.815-3.841 7.897v300.21c0 4.625 3.159 8.652 7.653 9.751l184.67 45.187c0.042 0.01 0.085 0.013 0.128 0.023 0.275 0.063 0.555 0.112 0.838 0.153 0.103 0.015 0.207 0.036 0.31 0.047 0.296 0.033 0.598 0.048 0.901 0.054 0.072 1e-3 0.145 0.013 0.216 0.013 0.325 0 0.648-0.02 0.967-0.052 0.069-7e-3 0.138-0.018 0.207-0.026 0.237-0.028 0.472-0.063 0.705-0.107 0.109-0.021 0.217-0.045 0.324-0.069 0.187-0.042 0.372-0.09 0.556-0.143 0.123-0.035 0.246-0.071 0.367-0.11 0.167-0.055 0.329-0.116 0.492-0.18 0.122-0.047 0.247-0.092 0.367-0.145 0.193-0.083 0.379-0.178 0.566-0.273 0.146-0.074 0.288-0.152 0.43-0.233 0.187-0.107 0.372-0.217 0.552-0.335 0.094-0.062 0.183-0.13 0.275-0.196 0.159-0.112 0.315-0.228 0.468-0.349 0.083-0.067 0.165-0.137 0.246-0.207 0.156-0.134 0.307-0.271 0.455-0.414 0.068-0.066 0.137-0.133 0.204-0.202 0.157-0.16 0.306-0.326 0.452-0.497 0.051-0.06 0.103-0.118 0.154-0.18 0.162-0.2 0.315-0.407 0.463-0.619 0.027-0.039 0.057-0.076 0.083-0.115 0.339-0.506 0.635-1.046 0.881-1.619 0.049-0.114 0.089-0.232 0.135-0.348 0.064-0.166 0.128-0.331 0.184-0.502 0.047-0.143 0.086-0.288 0.126-0.434 0.028-0.1 0.062-0.198 0.087-0.299 0.012-0.051 0.018-0.102 0.029-0.154 0.042-0.184 0.075-0.37 0.107-0.558 0.027-0.16 0.054-0.32 0.073-0.48 0.018-0.149 0.029-0.298 0.04-0.449 0.015-0.202 0.027-0.403 0.03-0.602 1e-3 -0.048 7e-3 -0.095 7e-3 -0.144v-300.22c1e-3 -0.077-9e-3 -0.152-0.011-0.23zm-20.065 287.66-164.59-40.273v-279.54l164.59 40.264z"/>
	

	
		<path d="m256 15.53c-5.544 0-10.039 4.495-10.039 10.039v23.09c0 5.545 4.496 10.039 10.039 10.039 5.544 0 10.039-4.495 10.039-10.039v-23.09c0-5.544-4.495-10.039-10.039-10.039z"/>
	

	
		<path d="m256 395.01c-5.544 0-10.039 4.495-10.039 10.039v23.09c0 5.545 4.496 10.039 10.039 10.039 5.544 0 10.039-4.495 10.039-10.039v-23.09c0-5.545-4.495-10.039-10.039-10.039z"/>
	

	
		<path d="m256 458.26c-5.544 0-10.039 4.495-10.039 10.039v18.131c0 5.545 4.496 10.039 10.039 10.039 5.544 0 10.039-4.495 10.039-10.039v-18.131c0-5.545-4.495-10.039-10.039-10.039z"/>
	

	
		<path d="m256 78.777c-5.544 0-10.039 4.495-10.039 10.039v23.09c0 5.545 4.496 10.039 10.039 10.039 5.544 0 10.039-4.495 10.039-10.039v-23.09c0-5.544-4.495-10.039-10.039-10.039z"/>
	

	
		<path d="m256 331.76c-5.544 0-10.039 4.495-10.039 10.039v23.09c0 5.545 4.496 10.039 10.039 10.039 5.544 0 10.039-4.495 10.039-10.039v-23.09c0-5.544-4.495-10.039-10.039-10.039z"/>
	

	
		<path d="m256 142.02c-5.544 0-10.039 4.495-10.039 10.039v23.09c0 5.545 4.496 10.039 10.039 10.039 5.544 0 10.039-4.495 10.039-10.039v-23.09c0-5.544-4.495-10.039-10.039-10.039z"/>
	

	
		<path d="m256 205.27c-5.544 0-10.039 4.495-10.039 10.039v23.09c0 5.545 4.496 10.039 10.039 10.039 5.544 0 10.039-4.495 10.039-10.039v-23.09c0-5.544-4.495-10.039-10.039-10.039z"/>
	

	
		<path d="m256 268.52c-5.544 0-10.039 4.495-10.039 10.039v23.09c0 5.545 4.496 10.039 10.039 10.039 5.544 0 10.039-4.495 10.039-10.039v-23.09c0-5.544-4.495-10.039-10.039-10.039z"/>
	

	
		<path d="m453.83 290.68c-5.544 0-10.039 4.495-10.039 10.039v98.546c0 5.545 4.496 10.039 10.039 10.039s10.039-4.495 10.039-10.039v-98.546c0-5.544-4.496-10.039-10.039-10.039z"/>
	

	
		<path d="m453.59 257.55c-12.919 0-12.941 20.078 0 20.078 12.919 0 12.94-20.078 0-20.078z"/>
	
</g>
</svg>
