<?xml version="1.0" encoding="UTF-8" standalone="no"?>
<svg
   xmlns:dc="http://purl.org/dc/elements/1.1/"
   xmlns:cc="http://creativecommons.org/ns#"
   xmlns:rdf="http://www.w3.org/1999/02/22-rdf-syntax-ns#"
   xmlns:svg="http://www.w3.org/2000/svg"
   xmlns="http://www.w3.org/2000/svg"
   xmlns:sodipodi="http://sodipodi.sourceforge.net/DTD/sodipodi-0.dtd"
   xmlns:inkscape="http://www.inkscape.org/namespaces/inkscape"
   version="1.1"
   id="Capa_1"
   x="0px"
   y="0px"
   viewBox="0 0 512 512"
   style="enable-background:new 0 0 512 512;"
   xml:space="preserve"
   sodipodi:docname="reset.svg"
   inkscape:version="1.0.1 (3bc2e813f5, 2020-09-07)"><metadata
   id="metadata668"><rdf:RDF><cc:Work
       rdf:about=""><dc:format>image/svg+xml</dc:format><dc:type
         rdf:resource="http://purl.org/dc/dcmitype/StillImage" /></cc:Work></rdf:RDF></metadata><defs
   id="defs666" /><sodipodi:namedview
   pagecolor="#ffffff"
   bordercolor="#666666"
   borderopacity="1"
   objecttolerance="10"
   gridtolerance="10"
   guidetolerance="10"
   inkscape:pageopacity="0"
   inkscape:pageshadow="2"
   inkscape:window-width="1366"
   inkscape:window-height="684"
   id="namedview664"
   showgrid="false"
   inkscape:zoom="1.017006"
   inkscape:cx="304.7162"
   inkscape:cy="279.98614"
   inkscape:window-x="0"
   inkscape:window-y="0"
   inkscape:window-maximized="1"
   inkscape:current-layer="Capa_1" />










<g
   id="g613"
   transform="matrix(-1,0,0,1,512.00058,0)">
	<g
   id="g611">
		<path
   d="m 511.236,252.633 c -1.554,-3.752 -5.214,-6.197 -9.275,-6.197 h -35.409 c -1.805,-42.836 -15.154,-83.921 -38.88,-119.386 -3.082,-4.609 -9.318,-5.846 -13.926,-2.762 -4.609,3.083 -5.845,9.317 -2.762,13.926 23.356,34.913 35.701,75.807 35.701,118.262 0,5.545 4.495,10.039 10.039,10.039 h 21 l -40.707,40.707 -40.707,-40.707 h 20.99 c 5.545,0 10.039,-4.495 10.039,-10.039 0,-51.826 -20.258,-100.577 -57.043,-137.271 C 333.631,82.63 285.03,62.508 233.386,62.508 h -0.491 C 126.48,62.773 39.69,149.563 39.425,255.977 c -0.122,48.564 17.861,95.105 50.635,131.055 32.552,35.704 76.803,57.901 124.587,62.499 2.381,0.232 4.581,1.341 6.193,3.122 1.612,1.781 2.502,4.091 2.502,6.502 0,2.755 -1.123,5.292 -3.163,7.146 -2.059,1.871 -4.721,2.755 -7.506,2.488 C 163.509,464.086 118.853,443.16 83.533,408.271 43.803,369.044 21.285,316.766 20.127,261.064 18.866,200.613 42.202,144.275 85.839,102.43 125.716,64.18 178.053,43.167 233.368,43.167 c 0.463,0 0.935,10e-4 1.398,0.005 50.415,0.313 99.16,18.486 137.257,51.17 4.207,3.611 10.545,3.126 14.156,-1.082 3.61,-4.207 3.125,-10.546 -1.083,-14.156 C 343.397,43.328 290.053,23.438 234.893,23.094 204.704,22.919 175.185,28.467 147.099,39.637 118.985,50.819 93.697,67.07 71.94,87.941 24.204,133.717 -1.325,195.349 0.053,261.482 c 0.626,30.139 7.016,59.511 18.991,87.299 11.963,27.758 28.913,52.58 50.381,73.776 38.645,38.172 87.519,61.07 141.334,66.219 0.949,0.091 1.896,0.137 2.842,0.137 7.386,0 14.578,-2.749 20.081,-7.749 6.19,-5.624 9.74,-13.645 9.74,-22.006 0,-7.404 -2.734,-14.5 -7.698,-19.981 -4.972,-5.49 -11.765,-8.91 -19.139,-9.629 C 128.278,421.05 59.28,344.831 59.504,256.03 59.741,160.632 137.547,82.826 232.946,82.588 h 0.44 c 46.288,0 89.86,18.043 122.731,50.833 30.593,30.518 48.438,70.334 50.861,113.016 h -34.903 c -0.051,0 -0.101,0.005 -0.153,0.006 -11.35568,0.27923 -18.13285,-1.10473 -18.365,10.031 2.55918,2.77127 5.61517,3.53373 16.356,12.035 l 60.007,60.006 c 3.92,3.92 10.277,3.92 14.198,0 l 64.943,-64.943 c 2.87,-2.87 3.729,-7.189 2.175,-10.939 z"
   id="path609"
   sodipodi:nodetypes="csccccsscccsscsccccsscccccscccccccccccscsccccsccscccccsc" />
	</g>
</g>


<g
   id="g631"
   transform="matrix(-1,0,0,1,512.00058,0)">
	<g
   id="g629">
		<path
   d="m 398.557,95.847 c -12.919,0 -12.94,20.078 0,20.078 12.919,0.001 12.94,-20.078 0,-20.078 z"
   id="path627" />
	</g>
</g>
<g
   id="g633"
   transform="matrix(-1,0,0,1,512.00058,0)">
</g>
<g
   id="g635"
   transform="matrix(-1,0,0,1,512.00058,0)">
</g>
<g
   id="g637"
   transform="matrix(-1,0,0,1,512.00058,0)">
</g>
<g
   id="g639"
   transform="matrix(-1,0,0,1,512.00058,0)">
</g>
<g
   id="g641"
   transform="matrix(-1,0,0,1,512.00058,0)">
</g>
<g
   id="g643"
   transform="matrix(-1,0,0,1,512.00058,0)">
</g>
<g
   id="g645"
   transform="matrix(-1,0,0,1,512.00058,0)">
</g>
<g
   id="g647"
   transform="matrix(-1,0,0,1,512.00058,0)">
</g>
<g
   id="g649"
   transform="matrix(-1,0,0,1,512.00058,0)">
</g>
<g
   id="g651"
   transform="matrix(-1,0,0,1,512.00058,0)">
</g>
<g
   id="g653"
   transform="matrix(-1,0,0,1,512.00058,0)">
</g>
<g
   id="g655"
   transform="matrix(-1,0,0,1,512.00058,0)">
</g>
<g
   id="g657"
   transform="matrix(-1,0,0,1,512.00058,0)">
</g>
<g
   id="g659"
   transform="matrix(-1,0,0,1,512.00058,0)">
</g>
<g
   id="g661"
   transform="matrix(-1,0,0,1,512.00058,0)">
</g>
</svg>
