<?xml version="1.0" encoding="iso-8859-1"?>
<!-- Generator: Adobe Illustrator 19.0.0, SVG Export Plug-In . SVG Version: 6.00 Build 0)  -->
<svg version="1.1" id="Capa_1" xmlns="http://www.w3.org/2000/svg" xmlns:xlink="http://www.w3.org/1999/xlink" x="0px" y="0px"
	 viewBox="0 0 512 512" style="enable-background:new 0 0 512 512;" xml:space="preserve">
<g>
	<g>
		<path d="M501.961,427.782h-54.098V74.184c0-5.545-4.495-10.039-10.039-10.039H84.218V10.039C84.218,4.495,79.723,0,74.179,0
			S64.14,4.495,64.14,10.039v54.1h-54.1C4.495,64.14,0,68.634,0,74.179s4.495,10.039,10.039,10.039h54.105v353.606
			c0,5.545,4.495,10.039,10.039,10.039h353.599v54.097c0,5.545,4.495,10.039,10.039,10.039s10.039-4.495,10.039-10.039v-54.1h54.099
			c5.545,0,10.039-4.495,10.039-10.039C512,432.277,507.505,427.782,501.961,427.782z M427.785,427.785H84.223V84.223h343.562
			V427.785z"/>
	</g>
</g>
<g>
	<g>
		<path d="M397.145,246.643c-3.873-1.493-8.272-0.442-11.059,2.635c-0.304,0.335-30.713,33.421-69.195,33.421
			c-0.142,0-0.287,0-0.429-0.001c-22.165-0.142-43.24-11.358-62.64-33.336c-73.826-83.664-133.852-78.683-136.37-78.43
			c-5.13,0.515-9.035,4.833-9.035,9.989v212.621c0,5.545,4.495,10.039,10.039,10.039h275.085c5.545,0,10.039-4.495,10.039-10.039
			V256.004C403.579,251.853,401.018,248.136,397.145,246.643z M128.496,383.501v-81.009c49.434,3.014,96.581,28.489,101.902,81.009
			H128.496z M383.501,383.501H250.577c-2.578-31.396-17.4-57.386-43.257-75.596c-21.258-14.971-48.95-23.865-78.825-25.501v-91.05
			c17.684,2.23,59.59,13.855,110.274,71.292c23.391,26.501,49.544,40.002,77.731,40.13c0.135,0,0.264,0.001,0.398,0.001
			c27.931-0.001,51.562-13.258,66.604-24.53V383.501z"/>
	</g>
</g>
<g>
	<g>
		<path d="M315.576,143.443c-20.67,0-37.486,16.812-37.486,37.476c0,20.671,16.817,37.486,37.487,37.486
			c20.665,0,37.476-16.816,37.476-37.486C353.052,160.255,336.24,143.443,315.576,143.443z M315.576,198.328
			c-9.599,0-17.408-7.81-17.408-17.408c0-9.592,7.81-17.398,17.408-17.398c9.593,0,17.398,7.804,17.398,17.398
			C332.974,190.518,325.169,198.328,315.576,198.328z"/>
	</g>
</g>
<g>
	<g>
		<path d="M169.455,107.641H118.46c-5.545,0-10.039,4.495-10.039,10.039s4.495,10.039,10.039,10.039h50.995
			c5.545,0,10.039-4.495,10.039-10.039S175,107.641,169.455,107.641z"/>
	</g>
</g>
<g>
	<g>
		<path d="M202.58,107.405c-12.919,0-12.941,20.078,0,20.078C215.5,127.483,215.521,107.405,202.58,107.405z"/>
	</g>
</g>
<g>
</g>
<g>
</g>
<g>
</g>
<g>
</g>
<g>
</g>
<g>
</g>
<g>
</g>
<g>
</g>
<g>
</g>
<g>
</g>
<g>
</g>
<g>
</g>
<g>
</g>
<g>
</g>
<g>
</g>
</svg>
