<?xml version="1.0" encoding="iso-8859-1"?>
<!-- Generator: Adobe Illustrator 19.0.0, SVG Export Plug-In . SVG Version: 6.00 Build 0)  -->
<svg version="1.1" id="Capa_1" xmlns="http://www.w3.org/2000/svg" xmlns:xlink="http://www.w3.org/1999/xlink" x="0px" y="0px"
	 viewBox="0 0 511.998 511.998" style="enable-background:new 0 0 511.998 511.998;" xml:space="preserve">
<g>
	<g>
		<path d="M509.183,255.772c-0.003-0.018-0.005-0.037-0.008-0.055c-0.047-0.244-0.11-0.483-0.176-0.721
			c-0.021-0.077-0.035-0.156-0.058-0.233c-0.063-0.211-0.142-0.416-0.218-0.622c-0.037-0.101-0.068-0.204-0.109-0.304
			c-0.084-0.207-0.184-0.407-0.282-0.606c-0.045-0.093-0.084-0.189-0.132-0.28c-0.135-0.255-0.283-0.501-0.44-0.744
			c-0.021-0.032-0.037-0.066-0.058-0.098c-0.37-0.562-0.797-1.09-1.28-1.573L334.583,78.706c-3.921-3.919-10.276-3.919-14.198,0
			l-54.653,54.654c-0.996-1.303-2.069-2.554-3.243-3.727c-6.968-6.983-16.248-10.829-26.131-10.829
			c-6.098,0-11.85,1.494-16.925,4.121c-0.491-9.102-4.266-17.593-10.762-24.091c-6.978-6.977-16.255-10.82-26.123-10.82
			c-19.681,0-35.811,15.469-36.884,34.886c-5.171-2.672-10.938-4.096-16.926-4.096c-20.37,0-36.944,16.573-36.944,36.944v166.664
			l-14.927-24.93c-0.13-0.218-0.269-0.43-0.416-0.638c-7.878-11.144-20.733-17.797-34.39-17.797c-8.726,0-17.113,2.666-24.253,7.712
			c-9.182,6.485-15.287,16.157-17.192,27.232c-1.89,10.997,0.584,22.071,6.969,31.212l60.494,94.163
			c0.08,0.123,0.162,0.246,0.247,0.365c26.267,37.183,69.124,59.381,114.643,59.381h3.775c51.84,0,98.725-28.229,123.171-73.01
			l10.468,10.468c1.961,1.96,4.53,2.94,7.099,2.94s5.138-0.981,7.099-2.94l171.836-171.836l0.003-0.003
			c0.238-0.238,0.462-0.487,0.673-0.745c0.132-0.162,0.249-0.331,0.369-0.499c0.071-0.099,0.15-0.194,0.217-0.295
			c0.14-0.21,0.263-0.427,0.385-0.643c0.038-0.067,0.082-0.132,0.119-0.2c0.113-0.214,0.212-0.434,0.308-0.654
			c0.035-0.08,0.077-0.158,0.11-0.239c0.079-0.194,0.144-0.391,0.211-0.587c0.039-0.115,0.085-0.227,0.12-0.343
			c0.046-0.153,0.078-0.308,0.116-0.462c0.041-0.166,0.088-0.33,0.121-0.498c0.016-0.082,0.023-0.166,0.037-0.248
			c0.094-0.553,0.153-1.115,0.153-1.685C509.362,257.005,509.299,256.383,509.183,255.772z M307.035,358.747
			c0,16.084-3.119,31.691-9.27,46.391c-0.01,0.024-0.021,0.048-0.032,0.072c-0.004,0.011-0.01,0.021-0.014,0.032
			c-18.809,44.831-62.355,73.794-110.972,73.794h-3.775c-38.937,0-75.599-18.953-98.12-50.712l-60.483-94.146
			c-0.08-0.124-0.163-0.247-0.248-0.367c-3.39-4.798-4.709-10.628-3.714-16.416c0.995-5.79,4.187-10.845,8.988-14.236
			c3.735-2.638,8.115-4.033,12.669-4.033c7.032,0,13.657,3.368,17.793,9.028l33.125,55.317c0.497,0.929,1.139,1.765,1.891,2.49
			c0.01,0.01,0.021,0.018,0.031,0.028c0.217,0.207,0.442,0.406,0.677,0.593c0.072,0.058,0.149,0.11,0.223,0.167
			c0.179,0.135,0.358,0.267,0.545,0.39c0.108,0.071,0.221,0.135,0.332,0.201c0.163,0.097,0.324,0.195,0.493,0.283
			c0.133,0.069,0.268,0.13,0.403,0.194c0.155,0.072,0.308,0.147,0.468,0.212c0.156,0.063,0.313,0.116,0.472,0.173
			c0.144,0.05,0.286,0.103,0.434,0.148c0.194,0.058,0.391,0.104,0.587,0.151c0.114,0.027,0.226,0.058,0.341,0.081
			c0.268,0.053,0.539,0.092,0.811,0.123c0.047,0.005,0.093,0.015,0.142,0.019c2.275,0.231,4.642-0.306,6.68-1.7
			c2.533-1.731,4.016-4.421,4.31-7.255c0.004-0.037,0.004-0.075,0.008-0.112c0.027-0.291,0.043-0.583,0.044-0.876
			c0-0.02,0.003-0.039,0.003-0.059V155.747c0-9.3,7.566-16.866,16.866-16.866c4.505,0,8.74,1.755,11.925,4.941
			c3.185,3.185,4.94,7.421,4.94,11.924v117.93c0,5.544,4.495,10.039,10.039,10.039c5.545,0,10.039-4.495,10.039-10.039v-148.72
			c0-9.3,7.566-16.866,16.866-16.866c4.505,0,8.74,1.754,11.924,4.939c3.185,3.187,4.94,7.423,4.94,11.926v30.79v117.93
			c0,5.544,4.494,10.039,10.039,10.039c5.545,0,10.039-4.495,10.039-10.039v-117.93c0-9.3,7.566-16.866,16.866-16.866
			c4.511,0,8.743,1.752,11.924,4.941c2.377,2.376,3.975,5.363,4.623,8.619c0.001,0.006,0.003,0.012,0.004,0.019
			c0.209,1.065,0.314,2.17,0.314,3.287v30.79v87.14c0,5.544,4.495,10.039,10.039,10.039s10.039-4.495,10.039-10.039v-87.14
			c0-9.3,7.565-16.866,16.866-16.866c4.511,0,8.743,1.752,11.925,4.941c3.186,3.185,4.94,7.421,4.94,11.924V358.747z
			 M327.485,415.275l-8.726-8.726c5.546-15.287,8.355-31.335,8.355-47.802v-172.21c0-9.867-3.843-19.143-10.813-26.115
			c-6.968-6.983-16.249-10.829-26.13-10.829c-5.673,0-11.05,1.288-15.858,3.583l53.172-53.174l157.64,157.632L327.485,415.275z"/>
	</g>
</g>
<g>
	<g>
		<path d="M416.033,290.058c-3.921-3.919-10.276-3.919-14.198,0l-58.561,58.561c-3.92,3.92-3.92,10.277,0,14.198
			c1.962,1.961,4.531,2.94,7.1,2.94c2.57,0,5.138-0.981,7.099-2.94l58.561-58.561C419.953,300.336,419.953,293.979,416.033,290.058z
			"/>
	</g>
</g>
<g>
	<g>
		<path d="M501.959,26.68c-5.544,0-10.039,4.495-10.039,10.039V76.38c-44.806-40.602-103.479-63.495-164.437-63.495
			c-52.713,0-102.926,16.499-145.213,47.712c-4.46,3.293-5.408,9.578-2.114,14.039c3.293,4.461,9.578,5.407,14.039,2.115
			c38.808-28.646,84.899-43.788,133.289-43.788c55.632,0,109.2,20.765,150.24,57.634h-39.682c-5.542,0-10.037,4.495-10.037,10.039
			s4.495,10.039,10.039,10.039h63.918c0.001,0,0.001,0,0.002,0s0.001,0,0.002,0c0.321,0,0.643-0.018,0.963-0.049
			c0.113-0.011,0.224-0.031,0.336-0.045c0.203-0.026,0.407-0.054,0.607-0.092c0.133-0.026,0.262-0.058,0.393-0.089
			c0.179-0.042,0.356-0.085,0.533-0.138c0.133-0.039,0.262-0.083,0.393-0.128c0.171-0.058,0.341-0.118,0.509-0.187
			c0.127-0.05,0.25-0.104,0.373-0.161c0.167-0.074,0.331-0.154,0.494-0.238c0.12-0.062,0.238-0.127,0.354-0.193
			c0.158-0.089,0.312-0.184,0.466-0.283c0.116-0.075,0.231-0.152,0.344-0.232c0.144-0.101,0.285-0.208,0.426-0.318
			c0.114-0.089,0.227-0.181,0.336-0.275c0.061-0.052,0.125-0.097,0.185-0.152c0.068-0.061,0.125-0.128,0.192-0.191
			c0.118-0.112,0.234-0.227,0.346-0.344c0.122-0.128,0.241-0.258,0.355-0.391c0.094-0.109,0.186-0.222,0.275-0.335
			c0.116-0.149,0.23-0.298,0.337-0.451c0.077-0.11,0.151-0.223,0.224-0.336c0.103-0.161,0.204-0.323,0.297-0.489
			c0.067-0.119,0.13-0.242,0.193-0.364c0.083-0.165,0.166-0.329,0.24-0.497c0.059-0.135,0.113-0.272,0.168-0.41
			c0.063-0.163,0.124-0.324,0.179-0.489c0.049-0.148,0.092-0.297,0.135-0.449c0.046-0.164,0.089-0.327,0.126-0.493
			c0.034-0.151,0.063-0.303,0.09-0.457c0.031-0.176,0.058-0.35,0.08-0.527c0.018-0.144,0.032-0.288,0.043-0.434
			c0.016-0.194,0.025-0.388,0.029-0.582c0.002-0.074,0.011-0.147,0.011-0.222V36.719C511.998,31.175,507.503,26.68,501.959,26.68z"
			/>
	</g>
</g>
<g>
	<g>
		<path d="M429.013,266.371c-12.919,0-12.941,20.078,0,20.078C441.933,286.45,441.954,266.371,429.013,266.371z"/>
	</g>
</g>
<g>
</g>
<g>
</g>
<g>
</g>
<g>
</g>
<g>
</g>
<g>
</g>
<g>
</g>
<g>
</g>
<g>
</g>
<g>
</g>
<g>
</g>
<g>
</g>
<g>
</g>
<g>
</g>
<g>
</g>
</svg>
