<svg id="Capa_1" enable-background="new 0 0 512 512" height="512" viewBox="0 0 512 512" width="512" xmlns="http://www.w3.org/2000/svg"><g><path d="m69.318 67.374c-4.142 0-7.5 3.357-7.5 7.5s3.358 7.5 7.5 7.5h151.127c4.142 0 7.5-3.357 7.5-7.5s-3.358-7.5-7.5-7.5z"/><path d="m227.945 124.25c0-4.143-3.358-7.5-7.5-7.5h-151.127c-4.142 0-7.5 3.357-7.5 7.5s3.358 7.5 7.5 7.5h151.127c4.142 0 7.5-3.357 7.5-7.5z"/><path d="m424.389 434.63h-128.089c-4.143 0-7.5 3.357-7.5 7.5s3.357 7.5 7.5 7.5h128.089c4.143 0 7.5-3.357 7.5-7.5s-3.358-7.5-7.5-7.5z"/><path d="m424.389 467.152h-128.089c-4.143 0-7.5 3.357-7.5 7.5s3.357 7.5 7.5 7.5h128.089c4.143 0 7.5-3.357 7.5-7.5s-3.358-7.5-7.5-7.5z"/><path d="m484.247 294.483-37.61-37.643c-9.311-9.316-21.688-14.447-34.854-14.447h-159.564c-16.339 0-29.633 13.302-29.633 29.651v210.29c0 16.35 13.293 29.651 29.633 29.651h216.829c16.34 0 29.633-13.302 29.633-29.651v-152.977c0-13.172-5.126-25.558-14.434-34.874zm-41.507 202.503h-164.792v-73.193c0-3.414 2.777-6.192 6.191-6.192h152.409c3.414 0 6.191 2.778 6.191 6.192v73.193zm40.941-14.651c0 8.079-6.564 14.651-14.633 14.651h-11.308v-73.193c0-11.686-9.507-21.192-21.191-21.192h-152.409c-11.685 0-21.191 9.507-21.191 21.192v73.193h-10.729c-8.068 0-14.633-6.572-14.633-14.651v-210.29c0-8.079 6.564-14.651 14.633-14.651h159.563c9.157 0 17.768 3.569 24.243 10.05l37.61 37.642c6.478 6.483 10.045 15.104 10.045 24.272z"/><path d="m389.894 279.521h-105.754c-11.685 0-21.191 9.507-21.191 21.191v34.16c0 11.685 9.507 21.191 21.191 21.191h105.754c11.685 0 21.191-9.507 21.191-21.191v-34.16c0-11.684-9.507-21.191-21.191-21.191zm6.191 55.352c0 3.414-2.777 6.191-6.191 6.191h-105.754c-3.414 0-6.191-2.777-6.191-6.191v-34.16c0-3.414 2.777-6.191 6.191-6.191h105.754c3.414 0 6.191 2.777 6.191 6.191z"/><path d="m195.19 497h-147.898c-10.462 0-18.973-8.512-18.973-18.974v-444.052c0-10.462 8.511-18.974 18.973-18.974h240.25v89.247c0 15.165 12.338 27.503 27.503 27.503h89.247v83.708c0 4.143 3.357 7.5 7.5 7.5s7.5-3.357 7.5-7.5v-91.208c0-1.989-.79-3.896-2.196-5.304l-116.75-116.75c-1.407-1.406-3.315-2.196-5.304-2.196h-247.75c-18.733 0-33.973 15.24-33.973 33.974v444.053c0 18.733 15.24 33.974 33.973 33.974h147.898c4.142 0 7.5-3.357 7.5-7.5s-3.358-7.501-7.5-7.501zm107.352-392.753v-78.641l91.144 91.144h-78.641c-6.894 0-12.503-5.608-12.503-12.503z"/></g></svg>