<?xml version="1.0" encoding="iso-8859-1"?>
<!-- Generator: Adobe Illustrator 19.0.0, SVG Export Plug-In . SVG Version: 6.00 Build 0)  -->
<svg version="1.1" id="Capa_1" xmlns="http://www.w3.org/2000/svg" xmlns:xlink="http://www.w3.org/1999/xlink" x="0px" y="0px"
	 viewBox="0 0 512 512" style="enable-background:new 0 0 512 512;" xml:space="preserve">
<g>
	<g>
		<path d="M256,117.66c-76.281,0-138.34,62.059-138.34,138.34c0,76.276,62.058,138.33,138.34,138.33
			c76.276,0,138.33-62.055,138.33-138.33C394.33,179.719,332.276,117.66,256,117.66z M245.961,373.821
			C185.432,368.709,137.738,317.823,137.738,256c0-61.828,47.694-112.718,108.223-117.831V373.821z M266.039,373.821V138.169
			c60.522,5.113,108.213,56.004,108.213,117.831C374.252,317.823,326.562,368.708,266.039,373.821z"/>
	</g>
</g>
<g>
	<g>
		<path d="M256,0c-5.544,0-10.039,4.495-10.039,10.039v57.565c0,5.545,4.496,10.039,10.039,10.039
			c5.544,0,10.039-4.495,10.039-10.039V10.039C266.039,4.495,261.544,0,256,0z"/>
	</g>
</g>
<g>
	<g>
		<path d="M129.888,115.68L89.179,74.971c-3.921-3.92-10.276-3.92-14.198,0c-3.92,3.92-3.92,10.277,0,14.198l40.709,40.709
			c1.961,1.961,4.53,2.94,7.099,2.94s5.139-0.98,7.1-2.94C133.809,125.958,133.809,119.601,129.888,115.68z"/>
	</g>
</g>
<g>
	<g>
		<path d="M67.604,245.951H10.039C4.496,245.951,0,250.445,0,255.99c0,5.545,4.496,10.039,10.039,10.039h57.565
			c5.544,0,10.039-4.495,10.039-10.039C77.643,250.445,73.148,245.951,67.604,245.951z"/>
	</g>
</g>
<g>
	<g>
		<path d="M129.879,382.113c-3.919-3.92-10.276-3.921-14.198-0.001l-40.709,40.699c-3.92,3.919-3.921,10.276-0.001,14.196
			c1.961,1.961,4.531,2.941,7.1,2.941s5.138-0.98,7.098-2.939l40.709-40.699C133.798,392.39,133.799,386.034,129.879,382.113z"/>
	</g>
</g>
<g>
	<g>
		<path d="M255.99,434.347c-5.544,0-10.039,4.495-10.039,10.039v57.575c0,5.545,4.496,10.039,10.039,10.039
			s10.039-4.495,10.039-10.039v-57.575C266.029,438.841,261.534,434.347,255.99,434.347z"/>
	</g>
</g>
<g>
	<g>
		<path d="M437.018,422.821l-40.709-40.709c-3.919-3.92-10.274-3.92-14.198,0c-3.92,3.92-3.92,10.277,0,14.197l40.709,40.709
			c1.961,1.961,4.53,2.94,7.099,2.94s5.138-0.981,7.099-2.94C440.938,433.098,440.938,426.741,437.018,422.821z"/>
	</g>
</g>
<g>
	<g>
		<path d="M501.961,245.961h-57.565c-5.544,0-10.039,4.495-10.039,10.039c0,5.545,4.496,10.039,10.039,10.039h57.565
			c5.544,0,10.039-4.495,10.039-10.039S507.504,245.961,501.961,245.961z"/>
	</g>
</g>
<g>
	<g>
		<path d="M437.02,74.982c-3.92-3.92-10.277-3.921-14.198-0.001l-40.709,40.699c-3.92,3.92-3.921,10.276-0.002,14.198
			c1.961,1.961,4.531,2.941,7.1,2.941s5.138-0.98,7.098-2.94l40.709-40.699C440.938,85.26,440.939,78.903,437.02,74.982z"/>
	</g>
</g>
<g>
	<g>
		<path d="M220.528,218.267c-5.544,0-10.039,4.495-10.039,10.039v88.508c0,5.545,4.496,10.039,10.039,10.039
			c5.544,0,10.039-4.495,10.039-10.039v-88.508C230.568,222.761,226.072,218.267,220.528,218.267z"/>
	</g>
</g>
<g>
	<g>
		<path d="M220.292,185.141c-12.919,0-12.941,20.078,0,20.078C233.211,205.22,233.232,185.141,220.292,185.141z"/>
	</g>
</g>
<g>
</g>
<g>
</g>
<g>
</g>
<g>
</g>
<g>
</g>
<g>
</g>
<g>
</g>
<g>
</g>
<g>
</g>
<g>
</g>
<g>
</g>
<g>
</g>
<g>
</g>
<g>
</g>
<g>
</g>
</svg>
