<?xml version="1.0" encoding="iso-8859-1"?>
<!-- Generator: Adobe Illustrator 19.0.0, SVG Export Plug-In . SVG Version: 6.00 Build 0)  -->
<svg version="1.1" id="Capa_1" xmlns="http://www.w3.org/2000/svg" xmlns:xlink="http://www.w3.org/1999/xlink" x="0px" y="0px"
	 viewBox="0 0 511.999 511.999" style="enable-background:new 0 0 511.999 511.999;" xml:space="preserve">
<g>
	<g>
		<path d="M481.441,235.621c-0.013-0.137-0.039-0.269-0.058-0.405c-0.026-0.19-0.049-0.38-0.086-0.567
			c-0.031-0.16-0.075-0.313-0.114-0.47c-0.04-0.162-0.075-0.323-0.125-0.483c-0.047-0.155-0.104-0.303-0.159-0.454
			c-0.056-0.159-0.108-0.317-0.174-0.474c-0.058-0.14-0.127-0.273-0.19-0.41c-0.075-0.161-0.147-0.323-0.232-0.481
			c-0.068-0.128-0.148-0.25-0.222-0.374c-0.093-0.157-0.182-0.315-0.284-0.468c-0.089-0.133-0.19-0.26-0.286-0.388
			c-0.099-0.134-0.192-0.27-0.298-0.4c-0.179-0.218-0.369-0.425-0.566-0.626c-0.033-0.034-0.062-0.072-0.096-0.106L267.225,18.19
			c-1.883-1.882-4.436-2.94-7.099-2.94s-5.216,1.058-7.099,2.94L41.979,229.247c-0.094,0.087-0.188,0.177-0.278,0.268L2.94,268.287
			c-3.92,3.921-3.919,10.276,0,14.197L214.265,493.81c1.882,1.882,4.436,2.94,7.099,2.94c2.662,0,5.216-1.058,7.099-2.94
			L478.55,243.713c0.006-0.006,0.01-0.012,0.016-0.018c0.227-0.229,0.444-0.468,0.649-0.717c0.098-0.12,0.184-0.247,0.276-0.369
			c0.104-0.14,0.212-0.275,0.309-0.421c0.097-0.147,0.183-0.297,0.272-0.448c0.078-0.132,0.161-0.26,0.233-0.395
			c0.081-0.153,0.151-0.309,0.224-0.465c0.066-0.142,0.138-0.28,0.198-0.425c0.063-0.152,0.113-0.306,0.169-0.461
			c0.055-0.155,0.115-0.308,0.163-0.466c0.047-0.156,0.082-0.314,0.121-0.472c0.04-0.16,0.085-0.317,0.117-0.48
			c0.036-0.185,0.059-0.371,0.085-0.557c0.019-0.139,0.046-0.274,0.059-0.414C481.506,236.946,481.506,236.281,481.441,235.621z
			 M221.364,472.512L24.235,275.383l28.724-28.731h394.256L221.364,472.512z M73.047,226.574L260.125,39.485l187.09,187.089H73.047z
			"/>
	</g>
</g>
<g>
	<g>
		<path d="M473.075,353.369c-1.882-2.663-4.94-4.247-8.201-4.247s-6.319,1.584-8.199,4.248
			c-6.498,9.201-38.914,56.241-38.914,78.767c0,25.979,21.136,47.114,47.114,47.114c25.984,0,47.124-21.136,47.124-47.114
			C511.999,409.609,479.575,362.57,473.075,353.369z M464.875,459.172c-14.907,0-27.036-12.128-27.036-27.036
			c0-9.799,13.946-34.918,27.039-55.059c13.095,20.133,27.043,45.248,27.043,55.059
			C491.921,447.044,479.789,459.172,464.875,459.172z"/>
	</g>
</g>
<g>
	<g>
		<path d="M161.017,261.018H72.51c-5.545,0-10.039,4.495-10.039,10.039s4.495,10.039,10.039,10.039h88.508
			c5.545,0,10.039-4.495,10.039-10.039S166.562,261.018,161.017,261.018z"/>
	</g>
</g>
<g>
	<g>
		<path d="M194.142,260.781c-12.919,0-12.941,20.078,0,20.078C207.061,280.86,207.083,260.781,194.142,260.781z"/>
	</g>
</g>
<g>
</g>
<g>
</g>
<g>
</g>
<g>
</g>
<g>
</g>
<g>
</g>
<g>
</g>
<g>
</g>
<g>
</g>
<g>
</g>
<g>
</g>
<g>
</g>
<g>
</g>
<g>
</g>
<g>
</g>
</svg>
