<?xml version="1.0" encoding="iso-8859-1"?>
<!-- Generator: Adobe Illustrator 19.0.0, SVG Export Plug-In . SVG Version: 6.00 Build 0)  -->
<svg version="1.1" id="Capa_1" xmlns="http://www.w3.org/2000/svg" xmlns:xlink="http://www.w3.org/1999/xlink" x="0px" y="0px"
	 viewBox="0 0 512 512" style="enable-background:new 0 0 512 512;" xml:space="preserve">
<g>
	<g>
		<path d="M291.539,188.278H175.225c-5.545,0-10.039,4.495-10.039,10.039v116.304c0,5.545,4.495,10.039,10.039,10.039h116.314
			c5.545,0,10.039-4.495,10.039-10.039V198.317C301.578,192.773,297.084,188.278,291.539,188.278z M281.5,304.582h-96.236v-96.226
			H281.5V304.582z"/>
	</g>
</g>
<g>
	<g>
		<path d="M248.644,375.58c-3.92-3.92-10.277-3.92-14.198,0l-1.065,1.065l-1.065-1.065c-3.92-3.92-10.277-3.92-14.198,0
			c-3.92,3.92-3.92,10.277,0,14.198l8.166,8.164c1.961,1.961,4.53,2.94,7.099,2.94c2.569,0,5.139-0.98,7.099-2.94l8.164-8.164
			C252.564,385.858,252.564,379.501,248.644,375.58z"/>
	</g>
</g>
<g>
	<g>
		<path d="M159.071,302.336l-16.355-16.356c-3.92-3.92-10.277-3.92-14.198,0c-3.92,3.92-3.92,10.277,0,14.198l16.356,16.356
			c1.961,1.961,4.53,2.94,7.099,2.94s5.139-0.98,7.099-2.94C162.991,312.614,162.991,306.257,159.071,302.336z"/>
	</g>
</g>
<g>
	<g>
		<path d="M203.872,347.137l-16.356-16.356c-3.919-3.921-10.276-3.921-14.197,0c-3.92,3.92-3.92,10.277,0,14.198l16.356,16.356
			c1.961,1.961,4.53,2.94,7.099,2.94s5.139-0.98,7.099-2.94C207.792,357.415,207.792,351.058,203.872,347.137z"/>
	</g>
</g>
<g>
	<g>
		<path d="M113.207,256.471l1.065-1.065c3.92-3.919,3.92-10.276,0-14.197c-3.92-3.92-10.277-3.92-14.198,0l-8.164,8.164
			c-1.882,1.882-2.94,4.436-2.94,7.099c0,2.662,1.058,5.216,2.94,7.099l8.164,8.163c1.961,1.961,4.53,2.94,7.099,2.94
			s5.139-0.981,7.099-2.94c3.92-3.92,3.92-10.277,0-14.197L113.207,256.471z"/>
	</g>
</g>
<g>
	<g>
		<path d="M203.873,151.607c-3.92-3.92-10.277-3.92-14.198,0l-16.356,16.356c-3.92,3.92-3.92,10.277,0,14.198
			c1.961,1.961,4.53,2.94,7.099,2.94s5.139-0.98,7.1-2.94l16.356-16.356C207.793,161.885,207.793,155.528,203.873,151.607z"/>
	</g>
</g>
<g>
	<g>
		<path d="M159.072,196.408c-3.92-3.92-10.277-3.92-14.198,0l-16.356,16.356c-3.92,3.92-3.92,10.277,0,14.198
			c1.961,1.961,4.53,2.94,7.099,2.94s5.139-0.98,7.099-2.94l16.356-16.356C162.993,206.686,162.993,200.329,159.072,196.408z"/>
	</g>
</g>
<g>
	<g>
		<path d="M248.645,123.163l-8.164-8.164c-3.92-3.92-10.277-3.92-14.198,0l-8.164,8.164c-3.92,3.92-3.92,10.277,0,14.198
			c3.921,3.921,10.278,3.921,14.198,0l1.065-1.065l1.065,1.065c1.961,1.961,4.53,2.94,7.099,2.94s5.139-0.98,7.099-2.94
			C252.565,133.441,252.565,127.084,248.645,123.163z"/>
	</g>
</g>
<g>
	<g>
		<path d="M338.243,212.763l-16.356-16.356c-3.92-3.92-10.277-3.92-14.198,0c-3.921,3.92-3.92,10.277,0,14.198l16.357,16.356
			c1.961,1.961,4.53,2.94,7.099,2.94c2.569,0,5.139-0.98,7.099-2.94C342.164,223.041,342.164,216.684,338.243,212.763z"/>
	</g>
</g>
<g>
	<g>
		<path d="M293.444,167.964l-16.356-16.356c-3.92-3.921-10.277-3.92-14.197,0c-3.92,3.92-3.921,10.277,0,14.197l16.356,16.356
			c1.961,1.961,4.53,2.94,7.099,2.94s5.139-0.981,7.099-2.94C297.364,178.241,297.365,171.884,293.444,167.964z"/>
	</g>
</g>
<g>
	<g>
		<path d="M511.236,252.633c-1.554-3.752-5.214-6.197-9.275-6.197h-35.409c-1.805-42.836-15.154-83.921-38.88-119.386
			c-3.082-4.609-9.318-5.846-13.926-2.762c-4.609,3.083-5.845,9.317-2.762,13.926c23.356,34.913,35.701,75.807,35.701,118.262
			c0,5.545,4.495,10.039,10.039,10.039h21l-40.707,40.707l-40.707-40.707h20.99c5.545,0,10.039-4.495,10.039-10.039
			c0-51.826-20.258-100.577-57.043-137.271c-36.665-36.575-85.266-56.697-136.91-56.697c-0.162,0-0.33,0-0.491,0
			c-106.415,0.265-193.205,87.055-193.47,193.469c-0.122,48.564,17.861,95.105,50.635,131.055
			c32.552,35.704,76.803,57.901,124.587,62.499c2.381,0.232,4.581,1.341,6.193,3.122s2.502,4.091,2.502,6.502
			c0,2.755-1.123,5.292-3.163,7.146c-2.059,1.871-4.721,2.755-7.506,2.488c-49.164-4.703-93.82-25.629-129.14-60.518
			c-39.73-39.227-62.248-91.505-63.406-147.207c-1.261-60.451,22.075-116.789,65.712-158.634
			c39.877-38.25,92.214-59.263,147.529-59.263c0.463,0,0.935,0.001,1.398,0.005c50.415,0.313,99.16,18.486,137.257,51.17
			c4.207,3.611,10.545,3.126,14.156-1.082c3.61-4.207,3.125-10.546-1.083-14.156c-41.699-35.776-95.043-55.666-150.203-56.01
			c-30.189-0.175-59.708,5.373-87.794,16.543c-28.114,11.182-53.402,27.433-75.159,48.304
			C24.204,133.717-1.325,195.349,0.053,261.482c0.626,30.139,7.016,59.511,18.991,87.299c11.963,27.758,28.913,52.58,50.381,73.776
			c38.645,38.172,87.519,61.07,141.334,66.219c0.949,0.091,1.896,0.137,2.842,0.137c7.386,0,14.578-2.749,20.081-7.749
			c6.19-5.624,9.74-13.645,9.74-22.006c0-7.404-2.734-14.5-7.698-19.981c-4.972-5.49-11.765-8.91-19.139-9.629
			c-88.307-8.498-157.305-84.717-157.081-173.518c0.237-95.398,78.043-173.204,173.442-173.442c0.147,0,0.292,0,0.44,0
			c46.288,0,89.86,18.043,122.731,50.833c30.593,30.518,48.438,70.334,50.861,113.016h-34.903c-0.051,0-0.101,0.005-0.153,0.006
			l-5.232-5.232c-3.92-3.92-10.277-3.92-14.198,0c-3.92,3.92-3.92,10.277,0,14.198l1.065,1.065l-1.064,1.064
			c-3.921,3.918-3.922,10.274-0.002,14.195c1.961,1.961,4.53,2.94,7.099,2.94c2.569,0,5.139-0.981,7.099-2.94l3.224-3.224
			l60.007,60.006c3.92,3.92,10.277,3.92,14.198,0l64.943-64.943C511.931,260.702,512.79,256.383,511.236,252.633z"/>
	</g>
</g>
<g>
	<g>
		<path d="M338.243,285.979c-3.92-3.92-10.277-3.92-14.198,0l-16.356,16.356c-3.919,3.921-3.919,10.278,0.001,14.198
			c1.961,1.961,4.53,2.94,7.099,2.94s5.139-0.98,7.099-2.94l16.356-16.356C342.164,296.257,342.164,289.9,338.243,285.979z"/>
	</g>
</g>
<g>
	<g>
		<path d="M293.444,330.78c-3.92-3.92-10.277-3.92-14.197,0l-16.356,16.356c-3.92,3.92-3.92,10.277,0,14.198
			c1.961,1.961,4.53,2.94,7.099,2.94c2.569,0,5.139-0.98,7.099-2.94l16.356-16.356C297.364,341.058,297.364,334.701,293.444,330.78z
			"/>
	</g>
</g>
<g>
	<g>
		<path d="M398.557,95.847c-12.919,0-12.94,20.078,0,20.078C411.476,115.926,411.497,95.847,398.557,95.847z"/>
	</g>
</g>
<g>
</g>
<g>
</g>
<g>
</g>
<g>
</g>
<g>
</g>
<g>
</g>
<g>
</g>
<g>
</g>
<g>
</g>
<g>
</g>
<g>
</g>
<g>
</g>
<g>
</g>
<g>
</g>
<g>
</g>
</svg>
