<?xml version="1.0" encoding="iso-8859-1"?>
<!-- Generator: Adobe Illustrator 19.0.0, SVG Export Plug-In . SVG Version: 6.00 Build 0)  -->
<svg version="1.1" id="Capa_1" xmlns="http://www.w3.org/2000/svg" xmlns:xlink="http://www.w3.org/1999/xlink" x="0px" y="0px"
	 viewBox="0 0 512 512" style="enable-background:new 0 0 512 512;" xml:space="preserve">
<g>
	<g>
		<path d="M501.961,163.971H348.03V10.039C348.03,4.495,343.535,0,337.99,0H10.039C4.495,0,0,4.495,0,10.039V337.99
			c0,5.545,4.495,10.039,10.039,10.039h153.931v153.931c0,5.545,4.495,10.039,10.039,10.039h327.951
			c5.545,0,10.039-4.495,10.039-10.039V174.01C512,168.465,507.505,163.971,501.961,163.971z M163.971,174.01v153.941H20.078V20.078
			h307.873v143.892H174.01C168.465,163.971,163.971,168.465,163.971,174.01z M327.951,184.049v143.902H184.049V184.049H327.951z
			 M491.922,491.922H184.049V348.03H337.99c5.545,0,10.039-4.495,10.039-10.039V184.049h143.892V491.922z"/>
	</g>
</g>
<g>
	<g>
		<path d="M463.752,363.416c-5.545,0-10.039,4.495-10.039,10.039v88.507c0,5.545,4.495,10.039,10.039,10.039
			c5.545,0,10.039-4.495,10.039-10.039v-88.507C473.791,367.91,469.296,363.416,463.752,363.416z"/>
	</g>
</g>
<g>
	<g>
		<path d="M463.516,330.29c-12.919,0-12.942,20.078,0,20.078C476.435,350.369,476.456,330.29,463.516,330.29z"/>
	</g>
</g>
<g>
</g>
<g>
</g>
<g>
</g>
<g>
</g>
<g>
</g>
<g>
</g>
<g>
</g>
<g>
</g>
<g>
</g>
<g>
</g>
<g>
</g>
<g>
</g>
<g>
</g>
<g>
</g>
<g>
</g>
</svg>
