<?xml version="1.0" encoding="iso-8859-1"?>
<!-- Generator: Adobe Illustrator 19.0.0, SVG Export Plug-In . SVG Version: 6.00 Build 0)  -->
<svg version="1.1" id="Capa_1" xmlns="http://www.w3.org/2000/svg" xmlns:xlink="http://www.w3.org/1999/xlink" x="0px" y="0px"
	 viewBox="0 0 512.002 512.002" style="enable-background:new 0 0 512.002 512.002;" xml:space="preserve">
<g>
	<g>
		<path d="M499.373,52.644c-16.818-16.818-44.183-16.818-60.999-0.001l-230.548,230.56l-33.26,33.251
			c-3.846-0.278-7.714-0.218-11.551,0.177v-13.113c0-5.67-4.598-10.269-10.269-10.269s-10.269,4.598-10.269,10.269v18.651
			c-7.15,3.264-13.738,7.816-19.336,13.406c-19.928,19.919-42.95,90.482-50.633,115.381c-1.334-0.167-2.662-0.362-3.973-0.618
			c-5.568-1.087-10.959,2.547-12.044,8.113s2.547,10.959,8.113,12.044c5.034,0.982,10.207,1.479,15.378,1.479
			c0.007,0,0.015,0,0.023,0l41.896-0.092c1.134-0.003,2.258-0.193,3.329-0.563c74.513-25.736,87.088-38.3,91.223-42.431
			c13.56-13.56,20.509-32.474,19.139-51.462l33.231-33.223l230.544-230.555c8.148-8.135,12.635-18.968,12.635-30.504
			C512.002,71.619,507.517,60.788,499.373,52.644z M201.932,414.36c-3.983,3.98-19.909,15.51-81.794,36.986l-26.251,0.057
			c10.106-31.857,29.688-87.229,43.768-101.302c5.155-5.146,11.241-8.877,18.087-11.097c0.069-0.021,0.134-0.045,0.202-0.068
			c4.463-1.423,9.151-2.145,13.843-2.145c2.344,0,4.69,0.18,7.007,0.542c9.575,1.481,18.267,5.894,25.135,12.763
			s11.282,15.557,12.765,25.133C216.916,389.518,212.146,404.149,201.932,414.36z M229.62,354.352
			c-3.219-6.916-7.644-13.255-13.167-18.778c-5.526-5.526-11.868-9.952-18.788-13.171l17.421-17.415l31.953,31.953L229.62,354.352z
			 M484.849,99.118L261.56,322.417l-31.953-31.953L452.896,67.165c8.808-8.81,23.144-8.81,31.953,0
			c4.266,4.265,6.614,9.939,6.614,15.977C491.463,89.185,489.117,94.859,484.849,99.118z"/>
	</g>
</g>
<g>
	<g>
		<path d="M160.954,234.596c-1.279-5.526-6.796-8.966-12.32-7.687c-5.526,1.279-8.966,6.795-7.687,12.32
			c1.016,4.386,1.53,8.917,1.53,13.467v9.745c0,5.67,4.598,10.269,10.269,10.269s10.269-4.598,10.269-10.269v-9.745
			C163.013,246.589,162.32,240.499,160.954,234.596z"/>
	</g>
</g>
<g>
	<g>
		<path d="M137.753,194.366c-7.221-6.773-15.514-12.088-24.649-15.796c-5.259-2.133-11.244,0.399-13.377,5.652
			c-2.133,5.255,0.397,11.244,5.652,13.377c6.786,2.755,12.951,6.706,18.32,11.745c1.983,1.86,4.506,2.78,7.025,2.78
			c2.738,0,5.469-1.088,7.491-3.242C142.094,204.746,141.888,198.248,137.753,194.366z"/>
	</g>
</g>
<g>
	<g>
		<path d="M79.023,182.249c-0.896-5.6-6.168-9.419-11.762-8.517c-9.76,1.562-19.042,4.885-27.585,9.877
			c-4.897,2.861-6.546,9.149-3.685,14.046c1.909,3.268,5.345,5.09,8.876,5.09c1.759,0,3.542-0.453,5.17-1.405
			c6.342-3.705,13.229-6.171,20.47-7.331C76.105,193.116,79.919,187.849,79.023,182.249z"/>
	</g>
</g>
<g>
	<g>
		<path d="M449.5,103.135c-4.011-4.009-10.511-4.009-14.522,0l-64.013,64.014c-4.01,4.01-4.01,10.512,0,14.523
			c2.005,2.004,4.633,3.008,7.261,3.008s5.255-1.003,7.261-3.008l64.013-64.014C453.51,113.648,453.51,107.146,449.5,103.135z"/>
	</g>
</g>
<g>
	<g>
		<path d="M466.027,76c-13.215,0-13.236,20.537,0,20.537C479.241,96.537,479.263,76,466.027,76z"/>
	</g>
</g>
<g>
	<g>
		<path d="M38.068,434.142c-5.224-5.191-9.389-11.214-12.381-17.904c-2.316-5.175-8.389-7.499-13.567-5.18
			c-5.176,2.316-7.496,8.389-5.179,13.567c4.027,9.001,9.628,17.103,16.646,24.082c2.003,1.991,4.622,2.986,7.24,2.986
			c2.637,0,5.276-1.009,7.282-3.028C42.108,444.643,42.089,438.141,38.068,434.142z"/>
	</g>
</g>
<g>
	<g>
		<path d="M21.817,212.91c-5.096-2.49-11.244-0.378-13.734,4.717c-4.336,8.874-6.959,18.375-7.796,28.239
			c-0.479,5.65,3.714,10.619,9.365,11.098c0.295,0.025,0.587,0.038,0.879,0.038c5.278,0,9.765-4.046,10.219-9.402
			c0.621-7.324,2.567-14.374,5.784-20.956C29.024,221.549,26.912,215.4,21.817,212.91z"/>
	</g>
</g>
<g>
	<g>
		<path d="M10.269,277.529C4.598,277.529,0,282.128,0,287.798v25.671c0,5.67,4.598,10.269,10.269,10.269
			c5.67,0,10.269-4.598,10.269-10.269v-25.671C20.537,282.128,15.939,277.529,10.269,277.529z"/>
	</g>
</g>
<g>
	<g>
		<path d="M10.269,344.275C4.598,344.275,0,348.873,0,354.544v25.671c0,5.67,4.598,10.269,10.269,10.269
			c5.67,0,10.269-4.597,10.269-10.269v-25.671C20.537,348.873,15.939,344.275,10.269,344.275z"/>
	</g>
</g>
<g>
</g>
<g>
</g>
<g>
</g>
<g>
</g>
<g>
</g>
<g>
</g>
<g>
</g>
<g>
</g>
<g>
</g>
<g>
</g>
<g>
</g>
<g>
</g>
<g>
</g>
<g>
</g>
<g>
</g>
</svg>
