<?xml version="1.0" encoding="iso-8859-1"?>
<!-- Generator: Adobe Illustrator 19.0.0, SVG Export Plug-In . SVG Version: 6.00 Build 0)  -->
<svg version="1.1" id="Capa_1" xmlns="http://www.w3.org/2000/svg" xmlns:xlink="http://www.w3.org/1999/xlink" x="0px" y="0px"
	 viewBox="0 0 512 512" style="enable-background:new 0 0 512 512;" xml:space="preserve">
<g>
	<g>
		<path d="M500.064,65.817c-15.896-15.896-41.759-15.896-57.654,0l-246.08,246.08c-17.791-1.201-35.483,5.321-48.181,18.018
			c-18.697,18.698-40.264,84.822-47.419,108.008H10.091C4.518,437.923,0,442.441,0,448.014s4.518,10.091,10.091,10.091h93.818
			c0.745,0,1.468-0.086,2.168-0.239c0.697,0.151,1.414,0.239,2.141,0.239c0.008,0,0.016,0,0.023,0l39.114-0.091
			c1.114-0.003,2.22-0.19,3.273-0.554c69.689-24.082,81.466-35.859,85.336-39.729c12.698-12.698,19.219-30.387,18.019-48.18
			l30.873-30.864c0.033-0.033,0.061-0.07,0.093-0.103l215.109-215.109C507.76,115.787,512,105.548,512,94.648
			C512,83.753,507.761,73.514,500.064,65.817z M221.693,403.46c-3.682,3.682-18.453,14.364-76.071,34.376l-23.743,0.055
			c10.925-34.417,28.658-81.823,40.541-93.704c7.904-7.903,18.673-12.277,29.72-12.277c2.122,0,4.256,0.161,6.381,0.49
			c8.829,1.37,16.84,5.445,23.178,11.791c6.332,6.324,10.404,14.329,11.777,23.145c0.011,0.076,0.016,0.152,0.029,0.228
			C235.469,380.683,231.067,394.087,221.693,403.46z M248.053,346.941c-3.004-6.259-7.06-12.003-12.084-17.021
			c-5.022-5.029-10.767-9.086-17.028-12.092l15.397-15.397l29.114,29.115L248.053,346.941z M485.792,109.199L277.721,317.27
			l-29.11-29.111l208.07-208.07c8.026-8.026,21.086-8.026,29.111,0c3.886,3.885,6.026,9.057,6.026,14.561
			C491.818,100.153,489.679,105.319,485.792,109.199z"/>
	</g>
</g>
<g>
	<g>
		<path d="M448.674,115.861c-3.942-3.94-10.329-3.94-14.271,0l-62.908,62.909c-3.941,3.941-3.941,10.33,0,14.272
			c1.971,1.97,4.553,2.956,7.136,2.956c2.582,0,5.165-0.986,7.136-2.956l62.908-62.909
			C452.615,126.193,452.615,119.803,448.674,115.861z"/>
	</g>
</g>
<g>
	<g>
		<path d="M464.915,89.193c-12.986,0-13.008,20.182,0,20.182C477.902,109.376,477.924,89.193,464.915,89.193z"/>
	</g>
</g>
<g>
</g>
<g>
</g>
<g>
</g>
<g>
</g>
<g>
</g>
<g>
</g>
<g>
</g>
<g>
</g>
<g>
</g>
<g>
</g>
<g>
</g>
<g>
</g>
<g>
</g>
<g>
</g>
<g>
</g>
</svg>
