<?xml version="1.0" encoding="iso-8859-1"?>
<!-- Generator: Adobe Illustrator 19.0.0, SVG Export Plug-In . SVG Version: 6.00 Build 0)  -->
<svg version="1.1" id="Capa_1" xmlns="http://www.w3.org/2000/svg" xmlns:xlink="http://www.w3.org/1999/xlink" x="0px" y="0px"
	 viewBox="0 0 512 512" style="enable-background:new 0 0 512 512;" xml:space="preserve">
<g>
	<g>
		<path d="M437.013,74.979C388.662,26.629,324.376,0,255.997,0S123.331,26.629,74.979,74.979C26.628,123.331,0,187.617,0,255.997
			c0,68.376,26.626,132.661,74.974,181.011c0.002,0.002,0.004,0.004,0.006,0.006c0.002,0.002,0.005,0.004,0.007,0.006
			C123.338,485.372,187.621,512,255.997,512c68.379,0,132.666-26.631,181.017-74.986C485.37,388.663,512,324.375,512,255.997
			C512,187.617,485.369,123.331,437.013,74.979z M89.206,89.207c45.99-45.99,106.38-68.976,166.79-68.976
			c57.264,0,114.537,20.69,159.514,62.024L82.254,415.512C-2.685,323.09-0.377,178.791,89.206,89.207z M422.787,422.788
			c-44.551,44.555-103.785,69.092-166.79,69.092c-59.64,0-115.891-21.998-159.519-62.138L429.743,96.478
			c40.14,43.627,62.138,99.879,62.138,159.519C491.881,319.002,467.343,378.236,422.787,422.788z"/>
	</g>
</g>
<g>
	<g>
		<path d="M342.713,108.706c-3.928-3.926-10.299-3.926-14.227,0l-62.714,62.714c-3.928,3.928-3.928,10.298,0,14.228
			c1.965,1.964,4.538,2.947,7.113,2.947c2.574,0,5.15-0.983,7.114-2.947l62.714-62.714
			C346.641,119.006,346.642,112.636,342.713,108.706z"/>
	</g>
</g>
<g>
	<g>
		<path d="M358.904,82.12c-12.946,0-12.967,20.12,0,20.12C371.85,102.241,371.871,82.12,358.904,82.12z"/>
	</g>
</g>
<g>
</g>
<g>
</g>
<g>
</g>
<g>
</g>
<g>
</g>
<g>
</g>
<g>
</g>
<g>
</g>
<g>
</g>
<g>
</g>
<g>
</g>
<g>
</g>
<g>
</g>
<g>
</g>
<g>
</g>
</svg>
