<?xml version="1.0" encoding="iso-8859-1"?>
<!-- Generator: Adobe Illustrator 19.0.0, SVG Export Plug-In . SVG Version: 6.00 Build 0)  -->
<svg version="1.1" id="Capa_1" xmlns="http://www.w3.org/2000/svg" xmlns:xlink="http://www.w3.org/1999/xlink" x="0px" y="0px"
	 viewBox="0 0 512 512" style="enable-background:new 0 0 512 512;" xml:space="preserve">
<g>
	<g>
		<path d="M450.57,369.965h-11.52v-21.251c0-5.544-4.496-10.039-10.039-10.039c-5.544,0-10.039,4.496-10.039,10.039v21.251h-11.52
			c-5.544,0-10.039,4.496-10.039,10.039v43.118c0,5.544,4.496,10.039,10.039,10.039h43.117c5.544,0,10.039-4.496,10.039-10.039
			v-43.118C460.609,374.46,456.114,369.965,450.57,369.965z M417.491,413.084v-23.04h23.039v23.04H417.491z"/>
	</g>
</g>
<g>
	<g>
		<path d="M501.961,78.838h-43.118c-5.544,0-10.039,4.496-10.039,10.039v11.522H266.039v-11.52c0-5.544-4.496-10.039-10.039-10.039
			c-5.544,0-10.039,4.496-10.039,10.039v11.52H63.197V88.877c0-5.544-4.496-10.039-10.039-10.039H10.039
			C4.496,78.838,0,83.333,0,88.877v43.118c0,5.544,4.496,10.039,10.039,10.039h43.118c5.544,0,10.039-4.496,10.039-10.039v-11.519
			h109.497c-59.167,30.368-99.744,92.019-99.744,162.972v86.516H61.43c-5.544,0-10.039,4.496-10.039,10.039v43.118
			c0,5.544,4.496,10.039,10.039,10.039h43.117c5.544,0,10.039-4.496,10.039-10.039v-43.118c0-5.544-4.496-10.039-10.039-10.039
			H93.028v-86.516c0-86.491,67.729-157.449,152.932-162.653v11.201c0,5.544,4.496,10.039,10.039,10.039
			c5.544,0,10.039-4.496,10.039-10.039v-11.201c85.204,5.204,152.932,76.162,152.932,162.653c0,5.544,4.496,10.039,10.039,10.039
			s10.039-4.496,10.039-10.039c0-70.952-40.578-132.604-99.744-162.972h109.497v11.519c0,5.544,4.496,10.039,10.039,10.039h43.118
			c5.544,0,10.039-4.496,10.039-10.039V88.877C512,83.334,507.504,78.838,501.961,78.838z M43.118,121.956h-23.04v-23.04h23.04
			V121.956z M94.509,390.044v23.04h-23.04v-23.04H94.509z M491.922,121.956h-23.04v-23.04h23.04V121.956z"/>
	</g>
</g>
<g>
	<g>
		<path d="M427.671,305.192c-12.919,0-12.941,20.078,0,20.078C440.59,325.271,440.611,305.192,427.671,305.192z"/>
	</g>
</g>
<g>
</g>
<g>
</g>
<g>
</g>
<g>
</g>
<g>
</g>
<g>
</g>
<g>
</g>
<g>
</g>
<g>
</g>
<g>
</g>
<g>
</g>
<g>
</g>
<g>
</g>
<g>
</g>
<g>
</g>
</svg>
