<?xml version="1.0" encoding="iso-8859-1"?>
<!-- Generator: Adobe Illustrator 19.0.0, SVG Export Plug-In . SVG Version: 6.00 Build 0)  -->
<svg version="1.1" id="Capa_1" xmlns="http://www.w3.org/2000/svg" xmlns:xlink="http://www.w3.org/1999/xlink" x="0px" y="0px"
	 viewBox="0 0 512 512" style="enable-background:new 0 0 512 512;" xml:space="preserve">
<g>
	<g>
		<path d="M172.424,215.148c-11.886-2.138-24.16-5.446-37.179-8.955c-9.942-2.68-20.224-5.451-30.264-7.604
			c-5.419-1.164-10.758,2.292-11.921,7.713c-1.161,5.42,2.291,10.758,7.713,11.921c9.529,2.042,19.553,4.745,29.271,7.364
			c13.42,3.617,26.096,7.033,38.828,9.322c0.601,0.108,1.198,0.161,1.788,0.161c4.767,0,8.996-3.409,9.869-8.264
			C181.509,221.348,177.881,216.128,172.424,215.148z"/>
	</g>
</g>
<g>
	<g>
		<path d="M435.81,121.854C387.655,86.961,323.797,67.745,256,67.745c-32.352,0-49.396,4.875-56.989,16.302
			c-8.252,12.419-1.972,27.363,4.102,41.814c6.55,15.585,13.323,31.701,5.47,46.036c-5.237,9.56-33.924,1.828-59.235-4.995
			c-40.692-10.969-86.815-23.404-118.35,0.758C10.141,183.642,0,212.538,0,256c0,50.907,27.058,98.547,76.19,134.146
			c48.155,34.893,112.014,54.109,179.81,54.109s131.655-19.216,179.81-54.108C484.942,354.547,512,306.907,512,256
			S484.942,157.453,435.81,121.854z M256,424.177c-130.087,0-235.922-75.445-235.922-168.177c0-36.283,7.782-60.641,23.131-72.401
			c9.23-7.072,21.098-9.702,34.296-9.702c20.643,0,44.531,6.439,66.617,12.393c16.898,4.554,32.857,8.857,46.18,9.906
			c17.735,1.396,29.8-3.535,35.89-14.653c12.505-22.829,2.636-46.313-4.57-63.46c-3.646-8.676-8.183-19.472-5.889-22.924
			c1.143-1.721,7.426-7.336,40.264-7.336c130.087,0,235.922,75.444,235.922,168.177S386.087,424.177,256,424.177z"/>
	</g>
</g>
<g>
	<g>
		<path d="M122.478,273.067c-19.929,0-36.141,16.212-36.141,36.141c0,19.929,16.212,36.141,36.141,36.141
			s36.141-16.212,36.141-36.141C158.62,289.279,142.407,273.067,122.478,273.067z M122.478,325.271
			c-8.857,0-16.063-7.206-16.063-16.063c0-8.857,7.206-16.063,16.063-16.063c8.857,0,16.063,7.206,16.063,16.063
			C138.541,318.064,131.335,325.271,122.478,325.271z"/>
	</g>
</g>
<g>
	<g>
		<path d="M217.389,305.975c-19.929,0-36.141,16.212-36.141,36.141c0,19.929,16.212,36.141,36.141,36.141
			c19.929,0,36.141-16.212,36.141-36.141C253.53,322.188,237.318,305.975,217.389,305.975z M217.389,358.179
			c-8.857,0-16.063-7.206-16.063-16.063c0-8.857,7.206-16.063,16.063-16.063c8.857,0,16.063,7.206,16.063,16.063
			C233.452,350.973,226.246,358.179,217.389,358.179z"/>
	</g>
</g>
<g>
	<g>
		<path d="M316.316,312.571c-19.929,0-36.141,16.212-36.141,36.141c0,19.929,16.212,36.141,36.141,36.141
			s36.141-16.212,36.141-36.141C352.457,328.783,336.244,312.571,316.316,312.571z M316.316,364.775
			c-8.857,0-16.063-7.206-16.063-16.063c0-8.857,7.206-16.063,16.063-16.063s16.063,7.206,16.063,16.063
			C332.378,357.569,325.172,364.775,316.316,364.775z"/>
	</g>
</g>
<g>
	<g>
		<path d="M403.195,270.878c-19.929,0-36.141,16.212-36.141,36.141c0,19.929,16.212,36.141,36.141,36.141
			c19.929,0,36.141-16.212,36.141-36.141C439.336,287.09,423.124,270.878,403.195,270.878z M403.195,323.082
			c-8.857,0-16.063-7.206-16.063-16.063c0-8.857,7.206-16.063,16.063-16.063s16.063,7.206,16.063,16.063
			C419.258,315.876,412.052,323.082,403.195,323.082z"/>
	</g>
</g>
<g>
	<g>
		<path d="M412.019,181.258c-17.769,0-32.227,14.456-32.227,32.227c0,17.763,14.456,32.216,32.227,32.216
			c17.763,0,32.216-14.452,32.216-32.216C444.235,195.715,429.783,181.258,412.019,181.258z M412.019,225.621
			c-6.698,0-12.148-5.445-12.148-12.137c0-6.698,5.45-12.148,12.148-12.148c6.692,0,12.137,5.45,12.137,12.148
			C424.157,220.176,418.712,225.621,412.019,225.621z"/>
	</g>
</g>
<g>
	<g>
		<path d="M327.459,134.526c-15.72,0-28.51,12.79-28.51,28.511c0,15.72,12.79,28.51,28.51,28.51c15.721,0,28.511-12.79,28.511-28.51
			C355.971,147.315,343.181,134.526,327.459,134.526z M327.459,171.47c-4.65,0-8.432-3.783-8.432-8.432
			c0-4.649,3.783-8.433,8.432-8.433c4.649,0,8.433,3.784,8.433,8.433C335.892,167.687,332.109,171.47,327.459,171.47z"/>
	</g>
</g>
<g>
	<g>
		<path d="M204.298,217.349c-12.919,0-12.941,20.078,0,20.078C217.218,237.427,217.239,217.349,204.298,217.349z"/>
	</g>
</g>
<g>
</g>
<g>
</g>
<g>
</g>
<g>
</g>
<g>
</g>
<g>
</g>
<g>
</g>
<g>
</g>
<g>
</g>
<g>
</g>
<g>
</g>
<g>
</g>
<g>
</g>
<g>
</g>
<g>
</g>
</svg>
