<?xml version="1.0" encoding="iso-8859-1"?>
<!-- Generator: Adobe Illustrator 19.0.0, SVG Export Plug-In . SVG Version: 6.00 Build 0)  -->
<svg version="1.1" id="Capa_1" xmlns="http://www.w3.org/2000/svg" xmlns:xlink="http://www.w3.org/1999/xlink" x="0px" y="0px"
	 viewBox="0 0 512 512" style="enable-background:new 0 0 512 512;" xml:space="preserve">
<g>
	<g>
		<path d="M501.961,50.728H10.039C4.495,50.728,0,55.224,0,60.767v130.158v130.148v130.158c0,5.544,4.495,10.039,10.039,10.039
			h491.922c5.544,0,10.039-4.496,10.039-10.039V321.074V190.926V60.767C512,55.224,507.504,50.728,501.961,50.728z M163.971,441.193
			H20.078v-110.08h143.892V441.193z M163.971,311.035H20.078v-110.07h143.892V311.035z M163.971,180.887H20.078V70.807h143.892
			V180.887z M327.941,441.193H184.049v-110.08h143.892V441.193z M327.941,311.035H184.049v-110.07h143.892V311.035z
			 M327.941,180.887H184.049V70.807h143.892V180.887z M491.922,441.193H348.019v-110.08h143.902V441.193z M491.922,311.035H348.019
			v-110.07h143.902V311.035z M491.922,180.887H348.019V70.807h143.902V180.887z"/>
	</g>
</g>
<g>
	<g>
		<path d="M429.843,86.839h-53.874c-5.544,0-10.039,4.496-10.039,10.039c0,5.544,4.496,10.039,10.039,10.039h53.874
			c5.544,0,10.039-4.496,10.039-10.039C439.882,91.335,435.387,86.839,429.843,86.839z"/>
	</g>
</g>
<g>
	<g>
		<path d="M462.969,86.602c-12.919,0-12.941,20.078,0,20.078C475.888,106.681,475.909,86.602,462.969,86.602z"/>
	</g>
</g>
<g>
</g>
<g>
</g>
<g>
</g>
<g>
</g>
<g>
</g>
<g>
</g>
<g>
</g>
<g>
</g>
<g>
</g>
<g>
</g>
<g>
</g>
<g>
</g>
<g>
</g>
<g>
</g>
<g>
</g>
</svg>
