<?xml version="1.0" encoding="iso-8859-1"?>
<!-- Generator: Adobe Illustrator 19.0.0, SVG Export Plug-In . SVG Version: 6.00 Build 0)  -->
<svg version="1.1" id="Capa_1" xmlns="http://www.w3.org/2000/svg" xmlns:xlink="http://www.w3.org/1999/xlink" x="0px" y="0px"
	 viewBox="0 0 512.001 512.001" style="enable-background:new 0 0 512.001 512.001;" xml:space="preserve">
<g>
	<g>
		<path d="M502.778,37.514c-6.913-8.105-16.579-12.887-27.219-13.464c-10.647-0.569-20.773,3.133-28.527,10.446
			c-0.033,0.031-0.067,0.064-0.1,0.096L192.433,281.33c-0.015,0.014-0.026,0.031-0.041,0.046c-0.022,0.022-0.047,0.041-0.069,0.063
			L2.974,470.686c-3.32,3.319-3.93,8.482-1.475,12.482c1.883,3.069,5.194,4.84,8.647,4.84c1.049,0,2.11-0.163,3.149-0.502
			l183.256-59.866c13.75-4.498,24.987-14.047,31.642-26.889c6.656-12.844,7.977-27.534,3.72-41.361l-3.046-9.896l270.87-258.797
			c7.795-7.262,12.265-17.531,12.265-28.188C512.001,53.358,508.724,44.48,502.778,37.514z M190.247,408.353L47.326,455.044
			L194.758,307.69l12.875,41.781v0.001l4.89,15.885C218.029,383.249,208.035,402.535,190.247,408.353z M485.879,75.878
			c-0.037,0.033-0.073,0.068-0.11,0.103L222.191,327.815l-11.169-36.246L460.999,49.214c3.665-3.436,8.453-5.159,13.461-4.904
			c5.035,0.274,9.61,2.536,12.884,6.375c2.816,3.299,4.368,7.499,4.368,11.825C491.712,67.642,489.64,72.388,485.879,75.878z"/>
	</g>
</g>
<g>
	<g>
		<path d="M169.962,366.192c-3.961-3.96-10.385-3.96-14.347,0l-28.497,28.496c-3.961,3.961-3.962,10.385,0,14.348
			c1.981,1.98,4.577,2.971,7.173,2.971s5.193-0.991,7.173-2.971l28.497-28.496C173.924,376.578,173.925,370.155,169.962,366.192z"/>
	</g>
</g>
<g>
	<g>
		<path d="M186.289,339.382c-13.055,0-13.076,20.289,0,20.289C199.344,359.671,199.366,339.382,186.289,339.382z"/>
	</g>
</g>
<g>
</g>
<g>
</g>
<g>
</g>
<g>
</g>
<g>
</g>
<g>
</g>
<g>
</g>
<g>
</g>
<g>
</g>
<g>
</g>
<g>
</g>
<g>
</g>
<g>
</g>
<g>
</g>
<g>
</g>
</svg>
