<?xml version="1.0" encoding="iso-8859-1"?>
<!-- Generator: Adobe Illustrator 19.0.0, SVG Export Plug-In . SVG Version: 6.00 Build 0)  -->
<svg version="1.1" id="Capa_1" xmlns="http://www.w3.org/2000/svg" xmlns:xlink="http://www.w3.org/1999/xlink" x="0px" y="0px"
	 viewBox="0 0 512 512" style="enable-background:new 0 0 512 512;" xml:space="preserve">
<g>
	<g>
		<path d="M443.553,311.788H294.842V168.274c13.626-6.639,25.298-16.637,34.025-29.221c10.303-14.859,15.75-32.303,15.75-50.447
			C344.616,39.748,304.863,0,256,0c-48.863,0-88.616,39.748-88.616,88.606c0,18.144,5.446,35.588,15.75,50.447
			c8.729,12.588,20.405,22.587,34.035,29.227v143.508H68.447c-25.098,0-45.518,20.42-45.518,45.518v78.285
			c0,5.544,4.496,10.039,10.039,10.039H46.15v56.331c0,5.544,4.496,10.039,10.039,10.039h399.621
			c5.544,0,10.039-4.496,10.039-10.039v-56.33h13.182c5.544,0,10.039-4.496,10.039-10.039v-78.286
			C489.07,332.208,468.651,311.788,443.553,311.788z M187.462,88.606c0-37.787,30.746-68.528,68.538-68.528
			s68.538,30.741,68.538,68.528c0,28.362-17.046,53.403-43.427,63.796c-7.983,3.147-16.431,4.742-25.111,4.742
			c-8.68,0-17.128-1.595-25.111-4.742c-0.001,0-0.001,0-0.002,0C204.508,142.009,187.462,116.968,187.462,88.606z M274.763,175.21
			v136.578h-37.517V175.212c6.124,1.321,12.39,2.01,18.753,2.01C262.367,177.222,268.636,176.533,274.763,175.21z M445.771,491.922
			H66.229v-46.291h379.543V491.922z M468.992,425.551h-13.181H56.19H43.008v-68.246c0-14.028,11.412-25.439,25.439-25.439h375.105
			c14.028,0,25.439,11.413,25.439,25.439V425.551z"/>
	</g>
</g>
<g>
	<g>
		<path d="M403.709,392.199h-88.507c-5.544,0-10.039,4.496-10.039,10.039c0,5.544,4.495,10.039,10.039,10.039h88.507
			c5.544,0,10.039-4.496,10.039-10.039C413.748,396.695,409.253,392.199,403.709,392.199z"/>
	</g>
</g>
<g>
	<g>
		<path d="M436.833,391.962c-12.919,0-12.941,20.078,0,20.078C449.753,412.041,449.774,391.962,436.833,391.962z"/>
	</g>
</g>
<g>
</g>
<g>
</g>
<g>
</g>
<g>
</g>
<g>
</g>
<g>
</g>
<g>
</g>
<g>
</g>
<g>
</g>
<g>
</g>
<g>
</g>
<g>
</g>
<g>
</g>
<g>
</g>
<g>
</g>
</svg>
