<?xml version="1.0" encoding="iso-8859-1"?>
<!-- Generator: Adobe Illustrator 19.0.0, SVG Export Plug-In . SVG Version: 6.00 Build 0)  -->
<svg version="1.1" id="Capa_1" xmlns="http://www.w3.org/2000/svg" xmlns:xlink="http://www.w3.org/1999/xlink" x="0px" y="0px"
	 viewBox="0 0 512.002 512.002" style="enable-background:new 0 0 512.002 512.002;" xml:space="preserve">
<g>
	<g>
		<path d="M502.019,435.42c-0.021-0.042-0.046-0.083-0.068-0.124L358.815,180.102l54.763,32.384c0.22,0.13,0.444,0.252,0.672,0.364
			c8.322,4.108,17.216,6.191,26.437,6.191c22.944,0,43.505-12.771,53.66-33.331c14.559-29.497,2.473-65.333-26.942-80.002
			l-152.12-83.613c-0.13-0.071-0.262-0.14-0.396-0.206c-61.692-30.458-134.632-29.057-195.109,3.75l-5.143,2.789
			C11.809,84.218-26.46,213.264,29.329,316.091c0.001,0.002,0.002,0.003,0.003,0.005L92.22,431.985
			c8.974,16.549,26.256,26.83,45.105,26.83c8.647,0,17.285-2.206,24.979-6.38c12.134-6.583,20.609-17.303,24.608-29.431
			c9.035,7.201,20.381,11.308,32.352,11.308c8.565,0,17.101-2.176,24.685-6.289c13.572-7.364,22.53-19.955,25.76-33.934
			c3.661,2.172,7.617,3.908,11.806,5.15c4.879,1.447,9.858,2.164,14.809,2.164c8.521-0.001,16.957-2.124,24.657-6.301
			c0.554-0.3,1.069-0.646,1.543-1.028c10.212-6.012,17.637-15.051,21.771-25.339l66.638,116.247c1.29,2.365,2.777,4.589,4.398,6.696
			H299.336c-5.601,0-10.142,4.542-10.142,10.142c0,5.601,4.542,10.142,10.142,10.142h155.394c0.583,0.021,1.163,0.041,1.75,0.041
			c8.566,0,17.102-2.174,24.684-6.287c12.177-6.604,21.051-17.553,24.99-30.829C510.093,461.608,508.625,447.594,502.019,435.42z
			 M486.703,469.111c-2.397,8.082-7.799,14.747-15.214,18.768c-4.441,2.409-9.407,3.714-14.4,3.814
			c-0.14-0.006-0.278-0.021-0.419-0.021h-1.662c-11.161-0.519-20.989-6.672-26.31-16.479c-0.038-0.069-0.076-0.139-0.116-0.208
			L329.867,302.78c-2.785-4.859-8.98-6.541-13.843-3.755c-4.859,2.786-6.54,8.983-3.755,13.843l10.676,18.624
			c0.19,1.018,0.535,2.025,1.055,2.985c8.262,15.228,2.539,34.369-12.759,42.669c-0.433,0.234-0.842,0.496-1.226,0.782
			c-15.07,7.315-33.436,1.521-41.506-13.351l-3.722-6.856c-0.001-0.001-0.001-0.002-0.002-0.004l-9.59-17.689
			c-0.003-0.006-0.007-0.01-0.01-0.016c-0.003-0.006-0.006-0.012-0.009-0.018l-0.943-1.723c-2.688-4.915-8.851-6.718-13.765-4.029
			c-4.914,2.688-6.718,8.852-4.03,13.765l0.94,1.718l9.58,17.673c0,0,0,0.001,0.001,0.001v0.001v0.001
			c8.297,15.296,2.604,34.49-12.689,42.788c-4.623,2.509-9.814,3.834-15.012,3.834c-11.606,0-22.251-6.331-27.781-16.521
			l-2.201-4.057c-0.001-0.002-0.002-0.003-0.003-0.005l-5.912-10.883c-0.001-0.002-0.001-0.003-0.002-0.005l-1.481-2.737
			c-2.664-4.926-8.818-6.757-13.747-4.095c-4.926,2.665-6.76,8.819-4.095,13.747l1.481,2.737c0.001,0.003,0.003,0.005,0.005,0.008
			c0.001,0.001,0.001,0.003,0.002,0.004c8.318,15.329,2.65,33.948-12.901,42.385c-4.8,2.604-9.951,3.925-15.306,3.925
			c-11.399,0-21.849-6.213-27.275-16.217L47.163,306.425c-0.001-0.002-0.002-0.005-0.003-0.007
			c-50.457-92.996-15.847-209.704,77.148-260.16l5.143-2.789c54.632-29.638,120.508-30.937,176.261-3.487l152.109,83.605
			c0.129,0.071,0.261,0.14,0.393,0.205c19.539,9.652,27.588,33.401,17.945,52.938c-6.711,13.587-20.304,22.028-35.473,22.028
			c-5.961,0-11.723-1.325-17.133-3.936l-86.316-51.042c-0.984-0.671-2.08-1.153-3.227-1.444c-0.036-0.009-0.073-0.021-0.111-0.03
			c-0.24-0.058-0.484-0.104-0.729-0.144c-0.09-0.015-0.181-0.036-0.272-0.048c-0.187-0.025-0.375-0.04-0.564-0.055
			c-0.144-0.012-0.287-0.028-0.431-0.034c-0.132-0.005-0.264,0-0.396,0c-0.199,0-0.398-0.002-0.595,0.009
			c-0.075,0.005-0.151,0.016-0.226,0.022c-0.256,0.02-0.51,0.046-0.763,0.085c-0.022,0.003-0.045,0.009-0.067,0.013
			c-2.818,0.464-5.424,2.109-7.027,4.746c-1.856,3.054-1.892,6.702-0.435,9.701c0.004,0.009,0.007,0.018,0.012,0.027
			c0.084,0.174,0.174,0.347,0.27,0.515l0.018,0.034c0.03,0.054,0.059,0.109,0.09,0.161l161.43,287.81
			C488.211,452.543,489.095,461.051,486.703,469.111z"/>
	</g>
</g>
<g>
	<g>
		<path d="M182.542,70.653c-1.842-5.289-7.625-8.09-12.911-6.246c-8.031,2.794-15.852,6.246-23.254,10.262l-5.128,2.786
			c-26.568,14.416-48.233,36.04-62.652,62.536c-2.678,4.92-0.859,11.079,4.06,13.757c1.541,0.839,3.201,1.236,4.839,1.236
			c3.594,0,7.078-1.917,8.917-5.296c12.543-23.048,31.392-41.86,54.516-54.408l5.127-2.785c6.435-3.491,13.245-6.496,20.241-8.931
			C181.588,81.723,184.384,75.942,182.542,70.653z"/>
	</g>
</g>
<g>
	<g>
		<path d="M208.289,56.177c-13.052,0-13.073,20.285,0,20.285C221.341,76.461,221.363,56.177,208.289,56.177z"/>
	</g>
</g>
<g>
	<g>
		<path d="M268.002,491.675c-13.052,0-13.073,20.284,0,20.284C281.054,511.959,281.075,491.675,268.002,491.675z"/>
	</g>
</g>
<g>
</g>
<g>
</g>
<g>
</g>
<g>
</g>
<g>
</g>
<g>
</g>
<g>
</g>
<g>
</g>
<g>
</g>
<g>
</g>
<g>
</g>
<g>
</g>
<g>
</g>
<g>
</g>
<g>
</g>
</svg>
