<?xml version="1.0" encoding="iso-8859-1"?>
<!-- Generator: Adobe Illustrator 19.0.0, SVG Export Plug-In . SVG Version: 6.00 Build 0)  -->
<svg version="1.1" id="Capa_1" xmlns="http://www.w3.org/2000/svg" xmlns:xlink="http://www.w3.org/1999/xlink" x="0px" y="0px"
	 viewBox="0 0 512 512" style="enable-background:new 0 0 512 512;" xml:space="preserve">
<g>
	<g>
		<path d="M511.95,9.046c-0.013-0.138-0.039-0.27-0.058-0.406c-0.026-0.189-0.049-0.378-0.086-0.566
			c-0.031-0.159-0.075-0.313-0.115-0.469c-0.04-0.162-0.076-0.324-0.124-0.484c-0.046-0.154-0.104-0.301-0.158-0.451
			c-0.057-0.16-0.109-0.32-0.175-0.477c-0.057-0.138-0.124-0.269-0.187-0.404c-0.076-0.164-0.15-0.327-0.235-0.488
			c-0.067-0.125-0.144-0.244-0.216-0.365c-0.094-0.16-0.186-0.321-0.29-0.477c-0.087-0.131-0.186-0.253-0.278-0.378
			c-0.101-0.137-0.197-0.276-0.306-0.409c-0.17-0.207-0.351-0.402-0.537-0.594c-0.043-0.045-0.08-0.093-0.125-0.138
			c-0.041-0.041-0.086-0.075-0.128-0.115c-0.196-0.189-0.396-0.374-0.605-0.547c-0.122-0.1-0.252-0.189-0.378-0.283
			c-0.137-0.101-0.27-0.208-0.412-0.302c-0.144-0.096-0.292-0.18-0.44-0.267c-0.135-0.08-0.266-0.165-0.405-0.239
			c-0.146-0.078-0.296-0.144-0.445-0.214c-0.149-0.07-0.295-0.145-0.448-0.208c-0.141-0.058-0.284-0.104-0.428-0.157
			c-0.167-0.06-0.331-0.123-0.502-0.176c-0.139-0.042-0.279-0.072-0.42-0.107c-0.177-0.045-0.352-0.094-0.533-0.131
			c-0.157-0.031-0.314-0.048-0.472-0.072c-0.167-0.025-0.331-0.055-0.5-0.072c-0.268-0.026-0.537-0.036-0.807-0.041
			C502.079,0.008,502.021,0,501.961,0H10.039c-0.06,0-0.118,0.008-0.179,0.009C9.591,0.014,9.322,0.023,9.054,0.05
			c-0.17,0.016-0.333,0.047-0.5,0.071C8.397,0.145,8.239,0.163,8.083,0.194C7.902,0.23,7.726,0.279,7.549,0.324
			C7.409,0.359,7.268,0.391,7.13,0.432C6.959,0.483,6.795,0.547,6.628,0.607C6.484,0.659,6.341,0.706,6.2,0.764
			C6.048,0.827,5.901,0.902,5.752,0.972c-0.149,0.07-0.298,0.137-0.445,0.214C5.17,1.26,5.039,1.344,4.904,1.425
			c-0.148,0.088-0.297,0.172-0.44,0.267C4.323,1.787,4.189,1.892,4.053,1.994C3.926,2.088,3.797,2.177,3.674,2.277
			C3.464,2.45,3.264,2.635,3.068,2.824C3.027,2.864,2.982,2.899,2.94,2.941C2.896,2.985,2.859,3.033,2.815,3.078
			C2.63,3.271,2.449,3.466,2.279,3.672C2.169,3.805,2.074,3.944,1.973,4.081C1.879,4.207,1.782,4.329,1.695,4.459
			C1.59,4.616,1.499,4.777,1.404,4.937C1.332,5.059,1.256,5.178,1.189,5.303C1.103,5.462,1.03,5.627,0.954,5.79
			c-0.063,0.135-0.13,0.266-0.188,0.404C0.702,6.351,0.649,6.51,0.591,6.67c-0.053,0.151-0.11,0.298-0.158,0.452
			C0.385,7.281,0.35,7.443,0.309,7.605c-0.038,0.157-0.082,0.31-0.114,0.47C0.158,8.262,0.136,8.451,0.108,8.641
			C0.089,8.776,0.063,8.909,0.05,9.046C0.017,9.378,0,9.711,0,10.044v491.912c0,0.333,0.017,0.667,0.05,0.998
			c0.013,0.138,0.039,0.27,0.058,0.406c0.026,0.189,0.049,0.378,0.086,0.566c0.031,0.159,0.075,0.313,0.114,0.469
			c0.04,0.162,0.076,0.324,0.125,0.484c0.046,0.154,0.104,0.301,0.158,0.452c0.056,0.16,0.109,0.319,0.175,0.476
			c0.057,0.138,0.125,0.27,0.188,0.405c0.076,0.163,0.15,0.327,0.235,0.487c0.067,0.125,0.144,0.244,0.216,0.365
			c0.094,0.16,0.186,0.321,0.29,0.477c0.087,0.13,0.186,0.253,0.278,0.378c0.101,0.137,0.197,0.276,0.306,0.409
			c0.17,0.207,0.351,0.402,0.537,0.594c0.043,0.045,0.08,0.093,0.125,0.138c0.042,0.042,0.087,0.076,0.13,0.117
			c0.195,0.189,0.394,0.372,0.603,0.545c0.124,0.102,0.256,0.192,0.384,0.288c0.135,0.1,0.265,0.204,0.405,0.297
			c0.148,0.098,0.3,0.184,0.451,0.274c0.13,0.077,0.258,0.16,0.393,0.232c0.152,0.081,0.307,0.15,0.463,0.223
			c0.143,0.067,0.282,0.139,0.429,0.199c0.15,0.062,0.301,0.111,0.453,0.166c0.158,0.057,0.313,0.117,0.475,0.167
			c0.151,0.045,0.304,0.079,0.457,0.117c0.165,0.042,0.328,0.087,0.496,0.122c0.176,0.035,0.353,0.055,0.53,0.081
			c0.147,0.021,0.292,0.049,0.441,0.063c0.328,0.033,0.66,0.05,0.99,0.05h491.922c0.33,0,0.662-0.017,0.991-0.05
			c0.149-0.015,0.293-0.042,0.441-0.063c0.177-0.025,0.354-0.046,0.53-0.081c0.168-0.033,0.331-0.079,0.496-0.121
			c0.153-0.038,0.305-0.072,0.457-0.117c0.162-0.049,0.317-0.109,0.475-0.167c0.152-0.054,0.304-0.104,0.453-0.166
			c0.147-0.06,0.286-0.132,0.429-0.199c0.155-0.073,0.311-0.142,0.463-0.223c0.135-0.072,0.262-0.154,0.393-0.232
			c0.151-0.09,0.303-0.176,0.451-0.274c0.14-0.093,0.27-0.198,0.405-0.297c0.129-0.095,0.26-0.185,0.385-0.288
			c0.21-0.173,0.409-0.356,0.603-0.545c0.042-0.041,0.088-0.076,0.13-0.117c0.044-0.044,0.081-0.093,0.124-0.138
			c0.186-0.192,0.367-0.388,0.537-0.594c0.108-0.133,0.205-0.272,0.306-0.409c0.093-0.125,0.191-0.248,0.278-0.378
			c0.104-0.156,0.195-0.316,0.29-0.477c0.072-0.122,0.149-0.241,0.216-0.365c0.085-0.16,0.159-0.324,0.235-0.487
			c0.063-0.135,0.13-0.267,0.188-0.405c0.064-0.157,0.117-0.317,0.174-0.476c0.053-0.151,0.111-0.298,0.158-0.452
			c0.048-0.16,0.084-0.322,0.125-0.484c0.039-0.157,0.083-0.31,0.114-0.469c0.037-0.188,0.06-0.376,0.086-0.566
			c0.019-0.135,0.045-0.269,0.058-0.406c0.033-0.332,0.05-0.665,0.05-0.998V10.044C512,9.711,511.983,9.378,511.95,9.046z
			 M477.724,20.078L256,241.802L34.277,20.078H477.724z M20.078,34.277L241.802,256L20.078,477.723V34.277z M34.277,491.922
			L256,270.199l221.723,221.723H34.277z M491.922,477.724L270.198,256L491.922,34.277V477.724z"/>
	</g>
</g>
<g>
	<g>
		<path d="M459.796,297.669c-5.544,0-10.039,4.496-10.039,10.039v88.507c0,5.544,4.496,10.039,10.039,10.039
			c5.544,0,10.039-4.496,10.039-10.039v-88.507C469.835,302.163,465.34,297.669,459.796,297.669z"/>
	</g>
</g>
<g>
	<g>
		<path d="M459.559,264.543c-12.919,0-12.941,20.078,0,20.078C472.479,284.622,472.501,264.543,459.559,264.543z"/>
	</g>
</g>
<g>
</g>
<g>
</g>
<g>
</g>
<g>
</g>
<g>
</g>
<g>
</g>
<g>
</g>
<g>
</g>
<g>
</g>
<g>
</g>
<g>
</g>
<g>
</g>
<g>
</g>
<g>
</g>
<g>
</g>
</svg>
