<?xml version="1.0" encoding="iso-8859-1"?>
<!-- Generator: Adobe Illustrator 19.0.0, SVG Export Plug-In . SVG Version: 6.00 Build 0)  -->
<svg version="1.1" id="Capa_1" xmlns="http://www.w3.org/2000/svg" xmlns:xlink="http://www.w3.org/1999/xlink" x="0px" y="0px"
	 viewBox="0 0 512.001 512.001" style="enable-background:new 0 0 512.001 512.001;" xml:space="preserve">
<g>
	<g>
		<path d="M501.008,407.326c-0.005-0.216-0.013-0.432-0.033-0.65c-0.013-0.148-0.034-0.295-0.053-0.443
			c-0.024-0.179-0.048-0.357-0.082-0.537c-0.035-0.187-0.079-0.371-0.123-0.554c-0.034-0.136-0.066-0.271-0.104-0.407
			c-0.063-0.218-0.136-0.43-0.213-0.642c-0.028-0.075-0.046-0.151-0.075-0.225l-88.743-228.316h13.914
			c5.656,0,10.242-4.586,10.242-10.242c0-5.657-4.586-10.242-10.242-10.242h-18.641v-17.535c0-5.657-4.586-10.242-10.242-10.242
			c-5.656,0-10.242,4.585-10.242,10.242v17.535h-82.6l-37.523-74.08V10.242C266.248,4.585,261.662,0,256.006,0
			s-10.242,4.585-10.242,10.242v70.745l-37.521,74.08h-82.61v-17.535c0-5.657-4.586-10.242-10.242-10.242
			s-10.242,4.585-10.242,10.242v17.535H86.507c-5.656,0-10.242,4.586-10.242,10.242c0,5.657,4.586,10.242,10.242,10.242h13.914
			L11.677,403.869c-0.029,0.075-0.048,0.151-0.075,0.225c-0.077,0.211-0.15,0.424-0.213,0.642c-0.039,0.135-0.071,0.271-0.104,0.407
			c-0.045,0.183-0.088,0.367-0.123,0.554c-0.034,0.179-0.058,0.357-0.082,0.537c-0.019,0.146-0.04,0.293-0.053,0.443
			c-0.019,0.217-0.028,0.433-0.033,0.649c-0.002,0.086-0.013,0.169-0.013,0.255c0,0.08,0.003,0.16,0.003,0.241
			c0.001,0.028,0,0.056,0.001,0.084c0.176,57.428,46.942,104.095,104.405,104.095c57.469,0,104.24-46.667,104.416-104.095
			c0.001-0.029,0-0.058,0.001-0.087c0-0.08,0.003-0.159,0.003-0.239c0-0.086-0.01-0.169-0.012-0.254
			c-0.005-0.217-0.013-0.433-0.033-0.65c-0.013-0.148-0.034-0.294-0.053-0.44c-0.024-0.179-0.048-0.358-0.082-0.538
			c-0.035-0.186-0.079-0.37-0.123-0.553c-0.034-0.136-0.066-0.272-0.104-0.408c-0.063-0.217-0.136-0.43-0.213-0.641
			c-0.027-0.075-0.046-0.151-0.075-0.225L130.36,175.552h74.278c1.309,11.575,6.441,22.296,14.802,30.657
			c9.768,9.768,22.754,15.147,36.566,15.147c26.516,0,48.422-20.063,51.366-45.803h74.27l-88.753,228.316
			c-0.029,0.075-0.048,0.151-0.075,0.225c-0.077,0.211-0.15,0.424-0.213,0.641c-0.04,0.136-0.072,0.271-0.106,0.408
			c-0.044,0.183-0.088,0.366-0.123,0.553c-0.034,0.179-0.058,0.358-0.082,0.538c-0.019,0.146-0.04,0.292-0.053,0.44
			c-0.019,0.217-0.028,0.433-0.033,0.649c-0.002,0.086-0.013,0.169-0.013,0.255c0,0.08,0.003,0.16,0.003,0.241
			c0.001,0.028,0,0.056,0.001,0.084c0.176,57.428,46.946,104.095,104.416,104.095c57.463,0,104.228-46.667,104.405-104.094
			c0.001-0.029,0-0.058,0.001-0.087c0-0.08,0.003-0.159,0.003-0.239C501.021,407.494,501.011,407.411,501.008,407.326z
			 M115.39,491.516c-42.812,0-78.239-32.223-83.304-73.693h166.619C193.638,459.292,158.207,491.516,115.39,491.516z
			 M194.598,397.338H36.192l79.199-203.757L194.598,397.338z M256.006,106.101l24.803,48.967h-49.604L256.006,106.101z
			 M256.006,200.871c-8.341,0-16.183-3.249-22.081-9.147c-4.481-4.481-7.433-10.081-8.593-16.171h61.342
			C283.905,189.955,271.206,200.871,256.006,200.871z M396.611,193.581l79.199,203.757H317.404L396.611,193.581z M396.613,491.516
			c-42.817,0-78.247-32.223-83.315-73.693h166.618C474.849,459.292,439.423,491.516,396.613,491.516z"/>
	</g>
</g>
<g>
	<g>
		<path d="M447.68,427.672c-13.181,0-13.203,20.484,0,20.484C460.86,448.157,460.882,427.672,447.68,427.672z"/>
	</g>
</g>
<g>
	<g>
		<path d="M433.286,454.481c-2.752-4.941-8.99-6.714-13.932-3.963c-7.25,4.04-15.501,6.174-23.861,6.174
			c-16.788,0-32.241-8.442-41.337-22.582c-3.059-4.758-9.398-6.133-14.155-3.073c-4.757,3.06-6.133,9.398-3.073,14.156
			c12.884,20.028,34.778,31.984,58.565,31.984c11.842,0,23.54-3.031,33.831-8.764C434.265,465.66,436.04,459.422,433.286,454.481z"
			/>
	</g>
</g>
<g>
</g>
<g>
</g>
<g>
</g>
<g>
</g>
<g>
</g>
<g>
</g>
<g>
</g>
<g>
</g>
<g>
</g>
<g>
</g>
<g>
</g>
<g>
</g>
<g>
</g>
<g>
</g>
<g>
</g>
</svg>
