<?xml version="1.0" encoding="iso-8859-1"?>
<!-- Generator: Adobe Illustrator 19.0.0, SVG Export Plug-In . SVG Version: 6.00 Build 0)  -->
<svg version="1.1" id="Capa_1" xmlns="http://www.w3.org/2000/svg" xmlns:xlink="http://www.w3.org/1999/xlink" x="0px" y="0px"
	 viewBox="0 0 512 512" style="enable-background:new 0 0 512 512;" xml:space="preserve">
<g>
	<g>
		<path d="M501.961,0H10.039C4.496,0,0,4.495,0,10.039v491.922C0,507.505,4.496,512,10.039,512h491.922
			c5.544,0,10.039-4.495,10.039-10.039V10.039C512,4.495,507.504,0,501.961,0z M245.961,491.922H20.078V20.078h225.882V491.922z
			 M491.922,491.922H266.039V20.078h225.882V491.922z"/>
	</g>
</g>
<g>
	<g>
		<path d="M461.804,352.884c-5.544,0-10.039,4.495-10.039,10.039v88.507c0,5.545,4.496,10.039,10.039,10.039
			s10.039-4.495,10.039-10.039v-88.507C471.843,357.379,467.348,352.884,461.804,352.884z"/>
	</g>
</g>
<g>
	<g>
		<path d="M461.567,319.759c-12.919,0-12.941,20.078,0,20.078C474.487,339.838,474.508,319.759,461.567,319.759z"/>
	</g>
</g>
<g>
</g>
<g>
</g>
<g>
</g>
<g>
</g>
<g>
</g>
<g>
</g>
<g>
</g>
<g>
</g>
<g>
</g>
<g>
</g>
<g>
</g>
<g>
</g>
<g>
</g>
<g>
</g>
<g>
</g>
</svg>
