<?xml version="1.0" encoding="iso-8859-1"?>
<!-- Generator: Adobe Illustrator 19.0.0, SVG Export Plug-In . SVG Version: 6.00 Build 0)  -->
<svg version="1.1" id="Capa_1" xmlns="http://www.w3.org/2000/svg" xmlns:xlink="http://www.w3.org/1999/xlink" x="0px" y="0px"
	 viewBox="0 0 512 512" style="enable-background:new 0 0 512 512;" xml:space="preserve">
<g>
	<g>
		<path d="M511.95,9.046c-0.013-0.138-0.04-0.271-0.058-0.408c-0.026-0.189-0.049-0.377-0.086-0.564
			c-0.032-0.16-0.076-0.315-0.115-0.472c-0.04-0.161-0.075-0.321-0.123-0.48c-0.047-0.155-0.105-0.304-0.16-0.457
			c-0.056-0.158-0.108-0.316-0.173-0.472c-0.058-0.14-0.127-0.274-0.191-0.411c-0.075-0.161-0.147-0.322-0.231-0.48
			c-0.068-0.128-0.148-0.25-0.222-0.374c-0.093-0.157-0.182-0.315-0.284-0.468c-0.09-0.135-0.191-0.261-0.287-0.391
			c-0.098-0.133-0.191-0.268-0.297-0.398c-0.18-0.218-0.37-0.426-0.567-0.627c-0.033-0.034-0.061-0.071-0.095-0.105
			c-0.032-0.032-0.068-0.059-0.1-0.091c-0.204-0.199-0.413-0.392-0.633-0.572c-0.125-0.103-0.258-0.194-0.387-0.29
			c-0.134-0.099-0.263-0.203-0.402-0.295c-0.15-0.099-0.304-0.187-0.457-0.278c-0.129-0.076-0.253-0.157-0.386-0.228
			c-0.155-0.083-0.314-0.154-0.472-0.227c-0.14-0.065-0.276-0.135-0.419-0.194c-0.154-0.063-0.311-0.115-0.468-0.171
			c-0.153-0.054-0.303-0.113-0.46-0.161c-0.159-0.048-0.319-0.083-0.479-0.124c-0.158-0.039-0.313-0.083-0.474-0.115
			c-0.187-0.037-0.375-0.059-0.563-0.086c-0.137-0.019-0.27-0.045-0.408-0.059C502.621,0.017,502.289,0,501.956,0H10.039
			C4.495,0,0,4.495,0,10.039v491.917c0,0.333,0.017,0.667,0.05,0.998c0.013,0.138,0.04,0.271,0.059,0.408
			c0.026,0.189,0.049,0.378,0.086,0.564c0.032,0.16,0.076,0.315,0.115,0.472c0.04,0.161,0.075,0.321,0.123,0.48
			c0.047,0.156,0.105,0.306,0.161,0.459c0.056,0.157,0.107,0.314,0.172,0.468c0.059,0.143,0.129,0.278,0.194,0.418
			c0.074,0.159,0.145,0.318,0.228,0.473c0.07,0.132,0.151,0.256,0.226,0.383c0.091,0.154,0.179,0.309,0.279,0.46
			c0.092,0.139,0.196,0.268,0.295,0.402c0.096,0.13,0.186,0.261,0.289,0.387c0.19,0.231,0.391,0.451,0.599,0.664
			c0.022,0.023,0.041,0.047,0.063,0.07c0.022,0.023,0.047,0.041,0.07,0.063c0.213,0.209,0.433,0.411,0.664,0.599
			c0.124,0.102,0.255,0.191,0.382,0.286c0.135,0.1,0.266,0.205,0.406,0.298c0.148,0.098,0.3,0.184,0.451,0.274
			c0.13,0.077,0.258,0.16,0.393,0.232c0.152,0.081,0.308,0.151,0.463,0.223c0.143,0.067,0.282,0.138,0.428,0.199
			c0.151,0.062,0.303,0.112,0.456,0.167c0.157,0.056,0.311,0.116,0.472,0.165c0.152,0.046,0.306,0.079,0.46,0.118
			c0.164,0.041,0.326,0.087,0.493,0.12c0.176,0.035,0.353,0.055,0.53,0.081c0.148,0.021,0.292,0.049,0.441,0.063
			c0.33,0.034,0.662,0.051,0.992,0.051h491.922c5.544,0,10.039-4.495,10.039-10.039V10.044C512,9.711,511.983,9.378,511.95,9.046z
			 M20.078,20.078h457.645L364.445,133.357C334.505,106.795,296.376,92.27,256,92.27c-90.281,0-163.73,73.449-163.73,163.73
			c0,40.377,14.526,78.507,41.086,108.446L20.078,477.723V20.078z M364.418,161.78c22.782,26.136,35.224,59.222,35.224,94.22
			c0,79.204-64.438,143.641-143.641,143.641c-34.997,0-68.081-12.441-94.219-35.224L364.418,161.78z M147.579,350.222
			c-22.786-26.125-35.231-59.212-35.231-94.222c0-79.209,64.442-143.651,143.651-143.651c35.01,0,68.096,12.445,94.222,35.231
			L147.579,350.222z M491.922,491.922H34.277l113.281-113.281c29.951,26.557,68.08,41.078,108.443,41.078
			c90.276,0,163.72-73.444,163.72-163.72c0-40.364-14.523-78.494-41.078-108.443l113.28-113.28V491.922z"/>
	</g>
</g>
<g>
	<g>
		<path d="M454.889,352.884c-5.544,0-10.039,4.495-10.039,10.039v88.507c0,5.545,4.496,10.039,10.039,10.039
			c5.544,0,10.039-4.495,10.039-10.039v-88.507C464.928,357.379,460.434,352.884,454.889,352.884z"/>
	</g>
</g>
<g>
	<g>
		<path d="M454.652,319.759c-12.919,0-12.941,20.078,0,20.078C467.571,339.838,467.593,319.759,454.652,319.759z"/>
	</g>
</g>
<g>
</g>
<g>
</g>
<g>
</g>
<g>
</g>
<g>
</g>
<g>
</g>
<g>
</g>
<g>
</g>
<g>
</g>
<g>
</g>
<g>
</g>
<g>
</g>
<g>
</g>
<g>
</g>
<g>
</g>
</svg>
