<?xml version="1.0" encoding="iso-8859-1"?>
<!-- Generator: Adobe Illustrator 19.0.0, SVG Export Plug-In . SVG Version: 6.00 Build 0)  -->
<svg version="1.1" id="Capa_1" xmlns="http://www.w3.org/2000/svg" xmlns:xlink="http://www.w3.org/1999/xlink" x="0px" y="0px"
	 viewBox="0 0 511.999 511.999" style="enable-background:new 0 0 511.999 511.999;" xml:space="preserve">
<g>
	<g>
		<path d="M501.961,459.745H282.485l72.551-72.551c0.001-0.001,0.001-0.001,0.002-0.002s0.001-0.001,0.002-0.002L488.611,253.62
			c15.19-15.19,15.19-39.907,0-55.098L333.654,43.566c-15.19-15.19-39.908-15.19-55.099,0L144.985,177.137
			c-0.001,0.001-0.002,0.001-0.002,0.002c0,0.001-0.001,0.002-0.002,0.003L11.411,310.711C4.053,318.07,0,327.853,0,338.259
			c0,10.408,4.054,20.189,11.411,27.54l111.075,111.085c0.002,0.002,0.004,0.003,0.006,0.005c0.232,0.232,0.476,0.452,0.73,0.66
			c0.118,0.097,0.243,0.182,0.363,0.272c0.141,0.105,0.278,0.215,0.425,0.312c0.146,0.097,0.297,0.183,0.447,0.272
			c0.13,0.078,0.259,0.161,0.394,0.233c0.155,0.083,0.314,0.154,0.472,0.228c0.139,0.065,0.275,0.135,0.417,0.194
			c0.157,0.065,0.317,0.117,0.476,0.175c0.15,0.053,0.296,0.11,0.45,0.158c0.166,0.05,0.333,0.087,0.501,0.128
			c0.15,0.037,0.298,0.079,0.451,0.11c0.203,0.04,0.407,0.065,0.611,0.093c0.12,0.016,0.238,0.04,0.359,0.052
			c0.337,0.033,0.675,0.051,1.013,0.05H501.96c5.544,0,10.039-4.495,10.039-10.039S507.505,459.745,501.961,459.745z
			 M292.753,57.765c7.361-7.363,19.342-7.363,26.702,0l154.956,154.956c7.362,7.362,7.362,19.341,0,26.702L347.938,365.896
			L166.281,184.237L292.753,57.765z M133.742,459.746L25.606,351.598c-3.565-3.561-5.528-8.298-5.528-13.339
			c0-5.043,1.964-9.783,5.531-13.349l126.474-126.474l181.658,181.659l-79.652,79.652H133.742z"/>
	</g>
</g>
<g>
	<g>
		<path d="M420.233,196.815l-62.584-62.584c-3.92-3.92-10.277-3.92-14.199,0c-3.92,3.92-3.92,10.277,0,14.198l62.585,62.585
			c1.961,1.961,4.53,2.94,7.099,2.94s5.138-0.981,7.099-2.94C424.153,207.093,424.153,200.736,420.233,196.815z"/>
	</g>
</g>
<g>
	<g>
		<path d="M326.96,108.035c-12.919,0-12.941,20.079,0,20.079C339.88,128.114,339.901,108.035,326.96,108.035z"/>
	</g>
</g>
<g>
</g>
<g>
</g>
<g>
</g>
<g>
</g>
<g>
</g>
<g>
</g>
<g>
</g>
<g>
</g>
<g>
</g>
<g>
</g>
<g>
</g>
<g>
</g>
<g>
</g>
<g>
</g>
<g>
</g>
</svg>
