<?xml version="1.0" encoding="iso-8859-1"?>
<!-- Generator: Adobe Illustrator 19.0.0, SVG Export Plug-In . SVG Version: 6.00 Build 0)  -->
<svg version="1.1" id="Capa_1" xmlns="http://www.w3.org/2000/svg" xmlns:xlink="http://www.w3.org/1999/xlink" x="0px" y="0px"
	 viewBox="0 0 512 512" style="enable-background:new 0 0 512 512;" xml:space="preserve">
<g>
	<g>
		<path d="M501.961,64.14H419.25c-5.545,0-10.039,4.495-10.039,10.039s4.495,10.039,10.039,10.039h82.711
			c5.545,0,10.039-4.495,10.039-10.039S507.505,64.14,501.961,64.14z"/>
	</g>
</g>
<g>
	<g>
		<path d="M347.361,64.14H199.914v-9.757c0-15.312-12.453-27.768-27.758-27.768h-39.605c-15.306,0-27.758,12.457-27.758,27.768
			v9.757H10.039C4.495,64.14,0,68.634,0,74.179s4.495,10.039,10.039,10.039h94.753v9.759c0,15.312,12.453,27.768,27.758,27.768
			h39.605c15.306,0,27.758-12.457,27.758-27.768v-9.759h147.447c5.545,0,10.039-4.495,10.039-10.039S352.906,64.14,347.361,64.14z
			 M179.836,74.169c0,0.003,0,0.006,0,0.01s0,0.006,0,0.01v19.788c0,4.241-3.445,7.69-7.68,7.69h-39.605
			c-4.235,0-7.68-3.451-7.68-7.69V54.382c0-4.241,3.445-7.69,7.68-7.69h39.605c4.234,0,7.68,3.451,7.68,7.69V74.169z"/>
	</g>
</g>
<g>
	<g>
		<path d="M501.961,245.961h-74.518v-9.768c0-15.306-12.453-27.758-27.758-27.758H360.08c-15.306,0-27.758,12.453-27.758,27.758
			v9.765l-322.282,0.003C4.495,245.961,0,250.455,0,256c0,5.545,4.495,10.039,10.039,10.039l322.282-0.003v9.762
			c0,15.306,12.453,27.758,27.758,27.758h39.605c15.306,0,27.758-12.453,27.758-27.758v-9.759h74.518
			c5.545,0,10.039-4.495,10.039-10.039C512,250.455,507.505,245.961,501.961,245.961z M407.364,275.797
			c0,4.234-3.445,7.68-7.68,7.68H360.08c-4.235,0-7.68-3.445-7.68-7.68v-19.791c0-0.003,0-0.006,0-0.01c0-0.004,0-0.006,0-0.01
			v-19.793c0-4.234,3.445-7.68,7.68-7.68h39.605c4.234,0,7.68,3.445,7.68,7.68V275.797z"/>
	</g>
</g>
<g>
	<g>
		<path d="M501.961,427.782H266.042v-9.759c0-15.312-12.457-27.768-27.768-27.768h-39.595c-15.311,0-27.768,12.457-27.768,27.768
			v9.759H10.039C4.495,427.782,0,432.277,0,437.821c0,5.545,4.495,10.039,10.039,10.039h160.872v9.757
			c0,15.312,12.457,27.768,27.768,27.768h39.595c15.312,0,27.768-12.457,27.768-27.768v-9.757h235.918
			c5.545,0,10.039-4.495,10.039-10.039C512,432.277,507.505,427.782,501.961,427.782z M245.964,457.618c0,4.241-3.45,7.69-7.69,7.69
			h-39.595c-4.241,0-7.69-3.451-7.69-7.69V437.89c0-0.023,0.003-0.045,0.003-0.068s-0.003-0.045-0.003-0.068v-19.73
			c0.001-4.24,3.45-7.69,7.69-7.69h39.595c4.241,0,7.69,3.451,7.69,7.69V457.618z"/>
	</g>
</g>
<g>
	<g>
		<path d="M383.167,64.14c-12.919,0-12.941,20.078,0,20.078C396.086,84.218,396.107,64.14,383.167,64.14z"/>
	</g>
</g>
<g>
</g>
<g>
</g>
<g>
</g>
<g>
</g>
<g>
</g>
<g>
</g>
<g>
</g>
<g>
</g>
<g>
</g>
<g>
</g>
<g>
</g>
<g>
</g>
<g>
</g>
<g>
</g>
<g>
</g>
</svg>
