<?xml version="1.0" encoding="iso-8859-1"?>
<!-- Generator: Adobe Illustrator 19.0.0, SVG Export Plug-In . SVG Version: 6.00 Build 0)  -->
<svg version="1.1" id="Capa_1" xmlns="http://www.w3.org/2000/svg" xmlns:xlink="http://www.w3.org/1999/xlink" x="0px" y="0px"
	 viewBox="0 0 512 512" style="enable-background:new 0 0 512 512;" xml:space="preserve">
<g>
	<g>
		<path d="M501.961,427.781h-54.101V266.039h54.101c5.545,0,10.039-4.495,10.039-10.039s-4.495-10.039-10.039-10.039h-54.101V84.219
			h22.036c5.545,0,10.039-4.495,10.039-10.039c0-5.545-4.495-10.039-10.039-10.039h-22.036V10.039C447.859,4.495,443.365,0,437.82,0
			s-10.039,4.495-10.039,10.039v54.101H266.039V10.039C266.039,4.495,261.545,0,256,0s-10.039,4.495-10.039,10.039v54.101H84.219
			V10.039C84.219,4.495,79.724,0,74.18,0c-5.545,0-10.039,4.495-10.039,10.039v54.101H10.039C4.495,64.141,0,68.635,0,74.18
			c0,5.545,4.495,10.039,10.039,10.039h54.101v161.742H10.039C4.495,245.961,0,250.455,0,256c0,5.545,4.495,10.039,10.039,10.039
			h54.101v161.742H10.039C4.495,427.781,0,432.276,0,437.82s4.495,10.039,10.039,10.039h54.101v54.101
			c0,5.545,4.495,10.039,10.039,10.039c5.545,0,10.039-4.495,10.039-10.039v-54.101h161.742v54.091
			c0,5.545,4.495,10.039,10.039,10.039c5.545,0,10.039-4.495,10.039-10.039v-54.091h161.742v54.101
			c0,5.545,4.495,10.039,10.039,10.039s10.039-4.495,10.039-10.039v-54.101h54.101c5.545,0,10.039-4.495,10.039-10.039
			S507.505,427.781,501.961,427.781z M84.219,266.039h161.425c-5.2,85.333-76.091,156.224-161.425,161.425V266.039z M245.96,427.781
			h-88.259c18.255-9.096,35.27-21.101,50.171-35.668c15.776-15.422,28.558-32.915,38.088-51.802V427.781z M245.961,245.961H84.219
			V84.219h161.742V245.961z M266.04,84.219h88.259c-18.255,9.096-35.27,21.101-50.171,35.668
			c-15.776,15.422-28.557,32.915-38.088,51.802V84.219z M427.781,427.781H266.039V266.039h161.742V427.781z M427.781,245.961
			L427.781,245.961H266.357c5.2-85.333,76.091-156.224,161.425-161.425V245.961z"/>
	</g>
</g>
<g>
	<g>
		<path d="M501.958,64.921c-12.919,0-12.942,20.078,0,20.078C514.877,84.999,514.898,64.921,501.958,64.921z"/>
	</g>
</g>
<g>
</g>
<g>
</g>
<g>
</g>
<g>
</g>
<g>
</g>
<g>
</g>
<g>
</g>
<g>
</g>
<g>
</g>
<g>
</g>
<g>
</g>
<g>
</g>
<g>
</g>
<g>
</g>
<g>
</g>
</svg>
