<?xml version="1.0" encoding="iso-8859-1"?>
<!-- Generator: Adobe Illustrator 19.0.0, SVG Export Plug-In . SVG Version: 6.00 Build 0)  -->
<svg version="1.1" id="Capa_1" xmlns="http://www.w3.org/2000/svg" xmlns:xlink="http://www.w3.org/1999/xlink" x="0px" y="0px"
	 viewBox="0 0 512 512" style="enable-background:new 0 0 512 512;" xml:space="preserve">
<g>
	<g>
		<path d="M303.224,269.351V47.224C303.224,21.185,282.04,0,256,0c-12.625,0-24.487,4.915-33.386,13.827
			c-8.924,8.91-13.838,20.77-13.838,33.397v222.135c-47.352,19.124-78.677,65.154-78.677,116.739
			C130.098,455.52,186.578,512,256,512s125.902-56.48,125.902-125.902C381.902,334.518,350.575,288.485,303.224,269.351z
			 M228.854,47.224c0-7.257,2.822-14.072,7.957-19.199c5.117-5.124,11.932-7.947,19.189-7.947c14.969,0,27.146,12.178,27.146,27.146
			v140.7h-54.292V47.224z M256,491.922c-58.351,0-105.823-47.472-105.823-105.823c0-45.409,28.878-85.697,71.858-100.25
			c4.077-1.38,6.82-5.205,6.82-9.509v-68.337h54.292v68.327c0,4.303,2.742,8.128,6.818,9.508
			c42.982,14.563,71.86,54.854,71.86,100.261C361.823,444.449,314.351,491.922,256,491.922z"/>
	</g>
</g>
<g>
	<g>
		<path d="M325.061,406.633c-5.041-2.302-10.999-0.083-13.302,4.96c-9.945,21.773-31.831,35.842-55.759,35.842
			c-5.544,0-10.039,4.496-10.039,10.039c0,5.545,4.496,10.039,10.039,10.039c31.766,0,60.821-18.676,74.021-47.578
			C332.325,414.893,330.104,408.936,325.061,406.633z"/>
	</g>
</g>
<g>
	<g>
		<path d="M327.948,376.136c-12.919,0-12.942,20.078,0,20.078C340.867,396.215,340.889,376.136,327.948,376.136z"/>
	</g>
</g>
<g>
</g>
<g>
</g>
<g>
</g>
<g>
</g>
<g>
</g>
<g>
</g>
<g>
</g>
<g>
</g>
<g>
</g>
<g>
</g>
<g>
</g>
<g>
</g>
<g>
</g>
<g>
</g>
<g>
</g>
</svg>
